<svg width="524.718" xmlns="http://www.w3.org/2000/svg" height="95" id="screenshot-8c5cf91c-312f-80ca-8007-b4485ff56f93" viewBox="-0 -0 524.718 95" xmlns:xlink="http://www.w3.org/1999/xlink" fill="none" version="1.1"><g id="shape-8c5cf91c-312f-80ca-8007-b4485ff56f93" rx="0" ry="0"><g id="shape-b1712094-cced-80d3-8007-9be82083d79f"><g class="frame-container-wrapper"><g class="frame-container-blur"><g class="frame-container-shadows"><g fill="none"><g class="fills" id="fills-b1712094-cced-80d3-8007-9be82083d79f"><rect rx="0" ry="0" x="186.99999999999997" y="11.999999999999972" width="337.71771240234375" height="83" transform="matrix(1.000000, 0.000000, 0.000000, 1.000000, 0.000000, 0.000000)" class="frame-background"/></g><g class="frame-children"><g id="shape-4a085bf9-ae80-80da-8007-ae905e362af2"><g class="fills" id="fills-4a085bf9-ae80-80da-8007-ae905e362af2"><path d="M206.22250366210938,91.9840087890625C203.58261108398438,91.9840087890625,201.11093139648438,91.7919921875,198.80697631835938,91.40802001953125C196.50326538085938,91.072021484375,194.51132202148438,90.5679931640625,192.83139038085938,89.89599609375C191.43978881835938,89.416015625,190.45565795898438,88.72003173828125,189.87973022460938,87.8079833984375C189.30380249023438,86.89599609375,189.03988647460938,85.93603515625,189.08773803710938,84.927978515625C189.13583374023438,83.91998291015625,189.39974975585938,83.00799560546875,189.87973022460938,82.1920166015625C190.40780639648438,81.3759765625,191.10360717773438,80.7760009765625,191.96762084960938,80.3919677734375C192.83139038085938,80.0560302734375,193.79135131835938,80.08001708984375,194.84750366210938,80.4639892578125C196.95932006835938,81.3280029296875,198.87899780273438,81.8800048828125,200.60678100585938,82.1199951171875C202.33480834960938,82.40802001953125,203.79867553710938,82.552001953125,204.99862670898438,82.552001953125C207.92636108398438,82.552001953125,210.11019897460938,81.927978515625,211.55014038085938,80.67999267578125C213.03793334960938,79.47998046875,213.78182983398438,77.583984375,213.78182983398438,74.99200439453125L213.78182983398438,70.45599365234375L214.35775756835938,70.45599365234375C213.63778686523438,72.47198486328125,212.17391967773438,74.12799072265625,209.96615600585938,75.42401123046875C207.75839233398438,76.6719970703125,205.35848999023438,77.2960205078125,202.76669311523438,77.2960205078125C199.59896850585938,77.2960205078125,196.83920288085938,76.57598876953125,194.48739624023438,75.135986328125C192.13558959960938,73.64801025390625,190.28768920898438,71.583984375,188.94369506835938,68.9439697265625C187.64779663085938,66.30401611328125,186.99984741210938,63.2080078125,186.99984741210938,59.656005859375C186.99984741210938,56.968017578125,187.38412475585938,54.54400634765625,188.15194702148438,52.384033203125C188.91976928710938,50.2239990234375,189.97592163085938,48.3759765625,191.31967163085938,46.8399658203125C192.71151733398438,45.30401611328125,194.36752319335938,44.12799072265625,196.28720092773438,43.31201171875C198.25521850585938,42.447998046875,200.41488647460938,42.0159912109375,202.76669311523438,42.0159912109375C205.45443725585938,42.0159912109375,207.85433959960938,42.6400146484375,209.96615600585938,43.88800048828125C212.12582397460938,45.135986328125,213.56576538085938,46.76800537109375,214.28573608398438,48.78399658203125L213.56576538085938,51.7359619140625L213.56576538085938,48.5679931640625C213.56576538085938,46.5040283203125,214.11776733398438,44.9200439453125,215.22177124023438,43.8160400390625C216.37362670898438,42.7120361328125,217.95736694335938,42.1600341796875,219.97348022460938,42.1600341796875C221.98910522460938,42.1600341796875,223.52499389648438,42.7120361328125,224.58090209960938,43.8160400390625C225.68490600585938,44.9200439453125,226.23690795898438,46.5040283203125,226.23690795898438,48.5679931640625L226.23690795898438,73.47998046875C226.23690795898438,79.6240234375,224.50912475585938,84.23199462890625,221.05331420898438,87.30401611328125C217.59750366210938,90.42401123046875,212.65390014648438,91.9840087890625,206.22250366210938,91.9840087890625L206.22250366210938,91.9840087890625M206.72640991210938,67.864013671875C208.16635131835938,67.864013671875,209.39022827148438,67.552001953125,210.39804077148438,66.927978515625C211.40609741210938,66.2559814453125,212.19808959960938,65.32000732421875,212.77377319335938,64.1199951171875C213.34994506835938,62.87200927734375,213.63778686523438,61.384033203125,213.63778686523438,59.656005859375C213.63778686523438,57.06396484375,213.01400756835938,55.0479736328125,211.76596069335938,53.6080322265625C210.51815795898438,52.16796875,208.83822631835938,51.447998046875,206.72640991210938,51.447998046875C205.38265991210938,51.447998046875,204.18246459960938,51.78399658203125,203.12680053710938,52.45599365234375C202.07064819335938,53.08001708984375,201.25473022460938,54.0159912109375,200.67904663085938,55.2640380859375C200.15097045898438,56.4639892578125,199.88705444335938,57.927978515625,199.88705444335938,59.656005859375C199.88705444335938,62.24798583984375,200.51083374023438,64.2640380859375,201.75888061523438,65.7039794921875C203.00668334960938,67.14404296875,204.66244506835938,67.864013671875,206.72640991210938,67.864013671875L206.72640991210938,67.864013671875M240.05966186523438,91.84002685546875C238.04379272460938,91.84002685546875,236.48397827148438,91.28802490234375,235.38021850585938,90.18402099609375C234.27621459960938,89.08001708984375,233.72421264648438,87.4720458984375,233.72421264648438,85.3599853515625L233.72421264648438,48.5679931640625C233.72421264648438,46.5040283203125,234.25228881835938,44.9200439453125,235.30795288085938,43.8160400390625C236.41195678710938,42.7120361328125,237.97201538085938,42.1600341796875,239.98764038085938,42.1600341796875C242.05160522460938,42.1600341796875,243.61141967773438,42.7120361328125,244.66732788085938,43.8160400390625C245.77133178710938,44.9200439453125,246.32308959960938,46.5040283203125,246.32308959960938,48.5679931640625L246.32308959960938,52.7440185546875L245.53109741210938,49.21600341796875C246.20321655273438,47.0560302734375,247.59506225585938,45.3280029296875,249.70687866210938,44.031982421875C251.86679077148438,42.68798828125,254.31454467773438,42.0159912109375,257.0503845214844,42.0159912109375C260.1219177246094,42.0159912109375,262.8099060058594,42.760009765625,265.1136169433594,44.24798583984375C267.4654235839844,45.7359619140625,269.2893981933594,47.8480224609375,270.5852966308594,50.583984375C271.8811950683594,53.32000732421875,272.5291442871094,56.63201904296875,272.5291442871094,60.52001953125C272.5291442871094,64.31201171875,271.8811950683594,67.5999755859375,270.5852966308594,70.384033203125C269.2893981933594,73.16796875,267.4654235839844,75.30401611328125,265.1136169433594,76.7919921875C262.8099060058594,78.280029296875,260.1219177246094,79.02398681640625,257.0503845214844,79.02398681640625C254.41049194335938,79.02398681640625,252.03475952148438,78.4000244140625,249.92294311523438,77.1519775390625C247.81112670898438,75.90399169921875,246.39511108398438,74.27197265625,245.67514038085938,72.2559814453125L246.53915405273438,72.2559814453125L246.53915405273438,85.3599853515625C246.53915405273438,87.4720458984375,245.96322631835938,89.08001708984375,244.81137084960938,90.18402099609375C243.70736694335938,91.28802490234375,242.12338256835938,91.84002685546875,240.05966186523438,91.84002685546875L240.05966186523438,91.84002685546875M253.01864624023438,69.592041015625C254.31454467773438,69.592041015625,255.44247436523438,69.280029296875,256.4024353027344,68.656005859375C257.4102478027344,67.9840087890625,258.2022399902344,67,258.7781677246094,65.7039794921875C259.3540954589844,64.3599853515625,259.6419372558594,62.63201904296875,259.6419372558594,60.52001953125C259.6419372558594,57.30401611328125,259.0181579589844,55,257.7703552246094,53.6080322265625C256.5223083496094,52.16796875,254.93832397460938,51.447998046875,253.01864624023438,51.447998046875C251.72274780273438,51.447998046875,250.57089233398438,51.760009765625,249.56283569335938,52.384033203125C248.55502319335938,53.00799560546875,247.76303100585938,53.99200439453125,247.18710327148438,55.33599853515625C246.61117553710938,56.63201904296875,246.32308959960938,58.3599853515625,246.32308959960938,60.52001953125C246.32308959960938,63.68798828125,246.94711303710938,65.99200439453125,248.19515991210938,67.4320068359375C249.44296264648438,68.87200927734375,251.05087280273438,69.592041015625,253.01864624023438,69.592041015625L253.01864624023438,69.592041015625M284.6961364746094,78.8800048828125C282.6802673339844,78.8800048828125,281.1204528808594,78.3280029296875,280.0164489746094,77.2239990234375C278.9126892089844,76.1199951171875,278.3606872558594,74.51202392578125,278.3606872558594,72.4000244140625L278.3606872558594,48.5679931640625C278.3606872558594,46.5040283203125,278.8885192871094,44.9200439453125,279.9446716308594,43.8160400390625C281.0484313964844,42.7120361328125,282.6082458496094,42.1600341796875,284.6241149902344,42.1600341796875C286.6399841308594,42.1600341796875,288.1758728027344,42.7120361328125,289.2317810058594,43.8160400390625C290.2876892089844,44.9200439453125,290.8157653808594,46.5040283203125,290.8157653808594,48.5679931640625L290.8157653808594,51.9520263671875L290.0237731933594,49C291.1756286621094,46.7440185546875,292.8074645996094,45.0159912109375,294.9192810058594,43.8160400390625C297.0791931152344,42.615966796875,299.5269470214844,42.0159912109375,302.2627868652344,42.0159912109375C305.0945739746094,42.0159912109375,307.4222106933594,42.5679931640625,309.2461853027344,43.6719970703125C311.0701599121094,44.72802734375,312.4378356933594,46.40802001953125,313.3499450683594,48.7120361328125C314.2618103027344,50.968017578125,314.7176208496094,53.823974609375,314.7176208496094,57.280029296875L314.7176208496094,72.4000244140625C314.7176208496094,74.51202392578125,314.1658630371094,76.1199951171875,313.0618591308594,77.2239990234375C311.9578552246094,78.3280029296875,310.3741149902344,78.8800048828125,308.3103942871094,78.8800048828125C306.2464294433594,78.8800048828125,304.6624450683594,78.3280029296875,303.5586853027344,77.2239990234375C302.4546813964844,76.1199951171875,301.9026794433594,74.51202392578125,301.9026794433594,72.4000244140625L301.9026794433594,57.78399658203125C301.9026794433594,55.6240234375,301.5188903808594,54.0880126953125,300.7508239746094,53.176025390625C300.0308532714844,52.2640380859375,298.9510192871094,51.8079833984375,297.5110778808594,51.8079833984375C295.5911560058594,51.8079833984375,294.0555114746094,52.4320068359375,292.9034118652344,53.67999267578125C291.7515563964844,54.8800048828125,291.1756286621094,56.511962890625,291.1756286621094,58.57598876953125L291.1756286621094,72.4000244140625C291.1756286621094,76.719970703125,289.0159606933594,78.8800048828125,284.6961364746094,78.8800048828125L284.6961364746094,78.8800048828125" style="font-weight: 900; font-size: 72px; font-family: Nunito; dominant-baseline: ideographic; white-space: pre; fill: rgb(77, 70, 67); fill-opacity: 1;"/></g></g><g id="shape-b1712094-cced-80d3-8007-9be820840502"><g class="frame-container-wrapper"><g class="frame-container-blur"><g class="frame-container-shadows"><g fill="none"><g class="fills" id="fills-b1712094-cced-80d3-8007-9be820840502"><rect width="103" height="83" class="frame-background" x="318.71771240234375" transform="matrix(1.000000, 0.000000, 0.000000, 1.000000, 0.000000, 0.000000)" style="fill: rgb(234, 91, 12); fill-opacity: 1;" ry="16" rx="16" y="11.999999999999972"/></g><g class="frame-children"><g id="shape-4a085bf9-ae80-80da-8007-ae90d1ed79d3"><g class="fills" id="fills-4a085bf9-ae80-80da-8007-ae90d1ed79d3"><path d="M335.9742736816406,79.35447692871094C333.8605041503906,79.35447692871094,332.3229064941406,78.8763427734375,331.3619689941406,77.91999816894531C330.4491271972656,76.91586303710938,329.9925842285156,75.45748901367188,329.9925842285156,73.5447998046875C329.9925842285156,72.20594787597656,330.2809143066406,71.01058959960938,330.8575744628906,69.9586181640625C331.4823303222656,68.90669250488281,332.2750549316406,67.87860107421875,333.2357482910156,66.87452697753906L345.8475646972656,53.748992919921875C347.7213439941406,51.74072265625,349.0426330566406,50.019317626953125,349.8111877441406,48.58482360839844C350.6280822753906,47.15034484863281,351.0365295410156,45.715850830078125,351.0365295410156,44.2813720703125C351.0365295410156,42.464385986328125,350.4359436035156,41.101593017578125,349.2347717285156,40.193084716796875C348.0335998535156,39.28460693359375,346.3041076660156,38.830352783203125,344.0458068847656,38.830352783203125C342.8929748535156,38.830352783203125,341.6676330566406,38.99774169921875,340.3705139160156,39.3323974609375C339.0733947753906,39.61930847167969,337.6798400878906,40.145294189453125,336.1905822753906,40.910369873046875C334.8932189941406,41.48414611816406,333.7162170410156,41.65147399902344,332.6590881347656,41.41239929199219C331.6502990722656,41.17333984375,330.7853088378906,40.64739990234375,330.0648498535156,39.83448791503906C329.3919982910156,39.021636962890625,328.9598693847656,38.08918762207031,328.7674865722656,37.037261962890625C328.6234436035156,35.98527526855469,328.7914123535156,34.957244873046875,329.2721252441406,33.953125C329.7525939941406,32.90118408203125,330.6170959472656,32.040496826171875,331.8663635253906,31.371063232421875C334.0765686035156,30.1756591796875,336.3585510253906,29.31494140625,338.7127990722656,28.788955688476562C341.1151428222656,28.263031005859375,343.5174865722656,28,345.9195861816406,28C349.8592834472656,28,353.1505432128906,28.573837280273438,355.7928771972656,29.721405029296875C358.4835510253906,30.868972778320312,360.5255432128906,32.54252624511719,361.9186096191406,34.7420654296875C363.3119201660156,36.893768310546875,364.0086975097656,39.57151794433594,364.0086975097656,42.77520751953125C364.0086975097656,44.783477783203125,363.6964416503906,46.74394226074219,363.0716857910156,48.65657043457031C362.4952697753906,50.56919860839844,361.5343322753906,52.48188781738281,360.1888732910156,54.39445495605469C358.8917541503906,56.30714416503906,357.1383361816406,58.33929443359375,354.9281311035156,60.490997314453125L343.2530822753906,71.96688842773438L343.2530822753906,68.66755676269531L361.0541076660156,68.66755676269531C362.8314514160156,68.66755676269531,364.1769104003906,69.12185668945312,365.0895080566406,70.03036499023438C366.0506896972656,70.9388427734375,366.5311584472656,72.25379943847656,366.5311584472656,73.97514343261719C366.5311584472656,75.69654846191406,366.0506896972656,77.035400390625,365.0895080566406,77.99174499511719C364.1769104003906,78.90023803710938,362.8314514160156,79.35447692871094,361.0541076660156,79.35447692871094ZM398.0968322753906,80C396.0790100097656,80,394.4933166503906,79.45011901855469,393.3402404785156,78.350341796875C392.2352600097656,77.25057983398438,391.6827697753906,75.62481689453125,391.6827697753906,73.47311401367188L391.6827697753906,70.89105224609375L377.1971740722656,70.89105224609375C375.0831604003906,70.89105224609375,373.4254455566406,70.41291809082031,372.2245178222656,69.45651245117188C371.0711975097656,68.50022888183594,370.4947814941406,67.04185485839844,370.4947814941406,65.08137512207031C370.4947814941406,63.933807373046875,370.7110900878906,62.83404541015625,371.1434631347656,61.78204345703125C371.5758361816406,60.682281494140625,372.3443908691406,59.36738586425781,373.4493713378906,57.83726501464844L391.0340881347656,32.30345153808594C391.9950256347656,30.868972778320312,393.0760803222656,29.816986083984375,394.2772521972656,29.147567749023438C395.4781799316406,28.4781494140625,396.8956604003906,28.14349365234375,398.5292053222656,28.14349365234375C400.3548889160156,28.14349365234375,401.7962951660156,28.693374633789062,402.8531799316406,29.79315185546875C403.9103088378906,30.845077514648438,404.4386291503906,32.47084045410156,404.4386291503906,34.670379638671875L404.4386291503906,60.921356201171875L406.1683654785156,60.921356201171875C407.9942932128906,60.921356201171875,409.3634338378906,61.35169982910156,410.2760314941406,62.21240234375C411.2369689941406,63.07310485839844,411.7174377441406,64.29241943359375,411.7174377441406,65.87033081054688C411.7174377441406,67.49609375,411.2369689941406,68.73930358886719,410.2760314941406,69.60000610351562C409.3634338378906,70.46070861816406,407.9942932128906,70.89105224609375,406.1683654785156,70.89105224609375L404.4386291503906,70.89105224609375L404.4386291503906,73.47311401367188C404.4386291503906,75.5770263671875,403.8863830566406,77.20278930664062,402.7814025878906,78.350341796875C401.7242736816406,79.45011901855469,400.1625061035156,80,398.0968322753906,80ZM391.6827697753906,60.921356201171875L391.6827697753906,43.9945068359375L393.7005920410156,43.9945068359375L380.1517639160156,64.00555419921875L380.1517639160156,60.921356201171875Z" style="font-weight: 900; font-size: 72px; font-family: Nunito; dominant-baseline: ideographic; white-space: pre; fill: rgb(246, 245, 244);"/></g></g></g></g></g></g></g></g><g id="shape-4a085bf9-ae80-80da-8007-ae90bd27c4e9"><g class="fills" id="fills-4a085bf9-ae80-80da-8007-ae90bd27c4e9"><path d="M432.7935791015625,79.14140319824219C430.6276550292969,79.14140319824219,428.8946228027344,78.49588012695312,427.594970703125,77.20481872558594C426.34332275390625,75.913818359375,425.7177429199219,74.21631622314453,425.7177429199219,72.1124038696289C425.7177429199219,70.05635070800781,426.34332275390625,68.40669250488281,427.594970703125,67.16342163085938C428.8946228027344,65.87242889404297,430.6276550292969,65.2269058227539,432.7935791015625,65.2269058227539C435.05621337890625,65.2269058227539,436.78900146484375,65.87242889404297,437.992431640625,67.16342163085938C439.24383544921875,68.40669250488281,439.8696594238281,70.05635070800781,439.8696594238281,72.1124038696289C439.8696594238281,74.21631622314453,439.24383544921875,75.913818359375,437.992431640625,77.20481872558594C436.78900146484375,78.49588012695312,435.05621337890625,79.14140319824219,432.7935791015625,79.14140319824219ZM459.3005065917969,79.5C456.26806640625,79.5,453.5722961425781,78.75885009765625,451.21368408203125,77.27656555175781C448.903076171875,75.79428100585938,447.0740661621094,73.66642761230469,445.7259216308594,70.89309692382812C444.42626953125,68.11976623535156,443.7764587402344,64.8443374633789,443.7764587402344,61.06687927246094C443.7764587402344,57.19383239746094,444.42626953125,53.89451599121094,445.7259216308594,51.168975830078125C447.0740661621094,48.44343566894531,448.903076171875,46.33952331542969,451.21368408203125,44.85725402832031C453.5722961425781,43.374908447265625,456.26806640625,42.63380432128906,459.3005065917969,42.63380432128906C461.9480285644531,42.63380432128906,464.3309020996094,43.25538635253906,466.4488220214844,44.49864196777344C468.5667724609375,45.741851806640625,469.98687744140625,47.343658447265625,470.70867919921875,49.30413818359375L469.9143981933594,49.30413818359375L469.9143981933594,33.95521545410156C469.9143981933594,31.851242065429688,470.46826171875,30.249435424804688,471.5751953125,29.149658203125C472.6824035644531,28.049880981445312,474.2707214355469,27.5,476.3406677246094,27.5C478.36260986328125,27.5,479.92669677734375,28.049880981445312,481.0339050292969,29.149658203125C482.1893310546875,30.249435424804688,482.7669372558594,31.851242065429688,482.7669372558594,33.95521545410156L482.7669372558594,72.9013671875C482.7669372558594,75.00527954101562,482.21331787109375,76.60714721679688,481.10638427734375,77.7069091796875C480.04718017578125,78.80670166015625,478.48284912109375,79.35650634765625,476.41290283203125,79.35650634765625C474.3912048339844,79.35650634765625,472.8268737792969,78.80670166015625,471.71966552734375,77.7069091796875C470.6124572753906,76.60714721679688,470.0588684082031,75.00527954101562,470.0588684082031,72.9013671875L470.0588684082031,68.8130874633789L470.8531494140625,72.32758331298828C470.1793212890625,74.47927856445312,468.75921630859375,76.22457885742188,466.5932922363281,77.5634765625C464.47509765625,78.85447692871094,462.0442810058594,79.5,459.3005065917969,79.5ZM463.4161376953125,70.10414123535156C464.7157897949219,70.10414123535156,465.8710021972656,69.79331970214844,466.8819580078125,69.17169189453125C467.8929443359375,68.50226593017578,468.6629943847656,67.52203369140625,469.1925964355469,66.23103332519531C469.77020263671875,64.8921890258789,470.0588684082031,63.17084503173828,470.0588684082031,61.06687927246094C470.0588684082031,57.863250732421875,469.43304443359375,55.56800842285156,468.1816101074219,54.181365966796875C466.9302062988281,52.74688720703125,465.34161376953125,52.02967834472656,463.4161376953125,52.02967834472656C462.1164855957031,52.02967834472656,460.9613037109375,52.34043884277344,459.9503479003906,52.962066650390625C458.9393615722656,53.58369445800781,458.14508056640625,54.563934326171875,457.5677185058594,55.90278625488281C456.9898986816406,57.19383239746094,456.7012023925781,58.91517639160156,456.7012023925781,61.06687927246094C456.7012023925781,64.22277069091797,457.3267822265625,66.51795959472656,458.5784606933594,67.95238494873047C459.8301086425781,69.38692474365234,461.44268798828125,70.10414123535156,463.4161376953125,70.10414123535156ZM509.5546875,79.5C505.2223815917969,79.5,501.4678955078125,78.75885009765625,498.2907409667969,77.27656555175781C495.1620788574219,75.74642944335938,492.7552490234375,73.59474182128906,491.0704345703125,70.82135009765625C489.3856506347656,68.04808044433594,488.5433654785156,64.77265930175781,488.5433654785156,60.99519348144531C488.5433654785156,57.36116027832031,489.337646484375,54.181365966796875,490.9262390136719,51.455902099609375C492.5627746582031,48.68251037597656,494.7769470214844,46.53080749511719,497.5689392089844,45.00068664550781C500.408935546875,43.422760009765625,503.6340637207031,42.63380432128906,507.24432373046875,42.63380432128906C509.8916015625,42.63380432128906,512.2984619140625,43.06416320800781,514.464599609375,43.9248046875C516.6307983398438,44.73771667480469,518.4840698242188,45.95703125,520.0244140625,47.582733154296875C521.56494140625,49.16070556640625,522.7201538085938,51.073333740234375,523.490234375,53.32066345214844C524.3087158203125,55.56800842285156,524.7176513671875,58.078369140625,524.7176513671875,60.85176086425781C524.7176513671875,61.80804443359375,524.4529418945312,62.52526092529297,523.92333984375,63.003456115722656C523.3939819335938,63.433815002441406,522.5516967773438,63.64898681640625,521.396240234375,63.64898681640625L499.3017272949219,63.64898681640625L499.3017272949219,57.62413024902344L515.3311767578125,57.62413024902344L514.1759643554688,58.5565185546875C514.1759643554688,56.787384033203125,513.93505859375,55.35289001464844,513.4536743164062,54.25311279296875C512.9722900390625,53.153350830078125,512.25048828125,52.31654357910156,511.2877197265625,51.74275207519531C510.37298583984375,51.168975830078125,509.2178039550781,50.882049560546875,507.8219299316406,50.882049560546875C506.32958984375,50.882049560546875,505.0299377441406,51.24066162109375,503.9227294921875,51.95793151855469C502.864013671875,52.627349853515625,502.04571533203125,53.63148498535156,501.4678955078125,54.9703369140625C500.8902893066406,56.309173583984375,500.60162353515625,57.9827880859375,500.60162353515625,59.991058349609375L500.60162353515625,60.63652038574219C500.60162353515625,64.03148651123047,501.347412109375,66.47010803222656,502.83978271484375,67.95238494873047C504.3800964355469,69.38692474365234,506.73895263671875,70.10414123535156,509.9158630371094,70.10414123535156C510.9748229980469,70.10414123535156,512.17822265625,69.98460388183594,513.526123046875,69.74553680419922C514.9219970703125,69.45861053466797,516.2459106445312,69.07611083984375,517.497314453125,68.59796905517578C518.7487182617188,68.11976623535156,519.8319091796875,68.04808044433594,520.7464599609375,68.38273620605469C521.6609497070312,68.6696548461914,522.3590087890625,69.19564819335938,522.8403930664062,69.96070861816406C523.3699951171875,70.67792510986328,523.6588745117188,71.51473236083984,523.7069091796875,72.47101593017578C523.7548828125,73.37950897216797,523.5384521484375,74.2880630493164,523.0570678710938,75.19656372070312C522.57568359375,76.0572509765625,521.7813720703125,76.7266845703125,520.6741943359375,77.20481872558594C518.9896240234375,77.96987915039062,517.1843872070312,78.54367065429688,515.2589111328125,78.92622375488281C513.3816528320312,79.3087158203125,511.4801940917969,79.5,509.5546875,79.5Z" style="font-weight: 900; font-size: 72px; font-family: Nunito; dominant-baseline: ideographic; white-space: pre; fill: rgb(77, 70, 67); fill-opacity: 1;"/></g></g></g></g></g></g></g></g><g id="shape-b1712094-cced-80d3-8007-9be82fea77d1"><g class="frame-container-wrapper"><g class="frame-container-blur"><g class="frame-container-shadows"><g fill="none"><g class="fills" id="fills-b1712094-cced-80d3-8007-9be82fea77d1"><rect rx="0" ry="0" x="0" y="0" width="170.99999999999997" height="94.99999999999997" transform="matrix(1.000000, 0.000000, 0.000000, 1.000000, 0.000000, 0.000000)" class="frame-background"/></g><g class="frame-children"><g id="shape-b1712094-cced-80d3-8007-9be82fea77d7" rx="0" ry="0" style="fill: rgb(0, 0, 0);"><g id="shape-b1712094-cced-80d3-8007-9be82fea77d8"><g class="fills" id="fills-b1712094-cced-80d3-8007-9be82fea77d8"><path d="M81.78543090820312,56.213356018066406C83.31759643554688,78.02413940429688,101.53761291503906,94.95318603515625,123.52978515625,94.99993896484375C139.79112243652344,94.96554565429688,154.56655883789062,85.58824157714844,161.44277954101562,70.9382095336914C152.78793334960938,81.96742248535156,139.50572204589844,88.41900634765625,125.43511962890625,88.42820739746094C105.34498596191406,88.39381408691406,87.63275146484375,75.32160949707031,81.78543090820312,56.213356018066406Z" style="stroke-width: 0.668315; fill: rgb(234, 91, 12); fill-opacity: 1;"/></g></g><g id="shape-b1712094-cced-80d3-8007-9be82fea77d9"><g class="fills" id="fills-b1712094-cced-80d3-8007-9be82fea77d9"><path d="M123.52978515625,11.617111206054688C107.70329284667969,11.65423583984375,93.24588012695312,20.546241760253906,86.14741516113281,34.60906219482422C94.80685424804688,23.894073486328125,107.87934875488281,17.651588439941406,121.7049560546875,17.629348754882812C141.62477111816406,17.66895294189453,159.224853515625,30.52941131591797,165.2093505859375,49.418251037597656C163.19235229492188,28.021591186523438,145.1462860107422,11.654731750488281,123.52978515625,11.617111206054688Z" style="stroke-width: 0.668315; fill: rgb(234, 91, 12); fill-opacity: 1;"/></g></g><g id="shape-b1712094-cced-80d3-8007-9be82fea77da"><g class="fills" id="fills-b1712094-cced-80d3-8007-9be82fea77da"><path d="M-0.000030517578125,0.031269073486328125C86.84346008300781,15.779075622558594,67.02645874023438,68.5654296875,130.7381134033203,70.66864776611328C157.79803466796875,70.66865539550781,168.085205078125,58.68904113769531,170.9845733642578,53.345794677734375C171.5622100830078,52.28124237060547,155.7744903564453,64.04529571533203,131.30264282226562,63.70355987548828C128.97715759277344,63.70356750488281,126.75302124023438,63.60389709472656,124.62120056152344,63.412391662597656C72.17778015136719,58.70160675048828,75.57810974121094,-1.568115234375,-0.000030517578125,0.031269073486328125L-0.000030517578125,0.031269073486328125L-0.000030517578125,0.031269073486328125" style="stroke-width: 0.942867; fill: rgb(77, 70, 67); fill-opacity: 1;"/></g></g></g></g></g></g></g></g></g></g></svg>