<svg width="583" xmlns="http://www.w3.org/2000/svg" height="209" id="screenshot-4a085bf9-ae80-80da-8007-ae91fa8019e9" viewBox="0 0 583 209" xmlns:xlink="http://www.w3.org/1999/xlink" fill="none" version="1.1"><g id="shape-4a085bf9-ae80-80da-8007-ae91fa8019e9"><defs><clipPath id="frame-clip-4a085bf9-ae80-80da-8007-ae91fa8019e9-render-37" class="frame-clip frame-clip-def"><rect rx="0" ry="0" x="0" y="0" width="583.0000000000001" height="209" transform="matrix(1.000000, 0.000000, 0.000000, 1.000000, 0.000000, 0.000000)"/></clipPath></defs><g class="frame-container-wrapper"><g class="frame-container-blur"><g class="frame-container-shadows"><g clip-path="url(#frame-clip-4a085bf9-ae80-80da-8007-ae91fa8019e9-render-37)" fill="none"><g class="fills" id="fills-4a085bf9-ae80-80da-8007-ae91fa8019e9"><rect width="583.0000000000001" height="209" class="frame-background" x="0" transform="matrix(1.000000, 0.000000, 0.000000, 1.000000, 0.000000, 0.000000)" style="fill: rgb(18, 17, 17); fill-opacity: 1;" ry="0" rx="0" y="0"/></g><g class="frame-children"><g id="shape-8c5cf91c-312f-80ca-8007-b4485df03eb7" rx="0" ry="0"><g id="shape-4a085bf9-ae80-80da-8007-ae91fa8019ea"><g class="frame-container-wrapper"><g class="frame-container-blur"><g class="frame-container-shadows"><g fill="none"><g class="fills" id="fills-4a085bf9-ae80-80da-8007-ae91fa8019ea"><rect rx="0" ry="0" x="216.141143798828" y="62" width="337.71771240234375" height="83" transform="matrix(1.000000, 0.000000, 0.000000, 1.000000, 0.000000, 0.000000)" class="frame-background"/></g><g class="frame-children"><g id="shape-4a085bf9-ae80-80da-8007-ae91fa8019ee"><g class="fills" id="fills-4a085bf9-ae80-80da-8007-ae91fa8019ee"><path d="M235.3636474609375,141.9840087890625C232.7237548828125,141.9840087890625,230.2520751953125,141.7919921875,227.9481201171875,141.40802001953125C225.6444091796875,141.072021484375,223.6524658203125,140.5679931640625,221.9725341796875,139.89599609375C220.5809326171875,139.416015625,219.5968017578125,138.72003173828125,219.0208740234375,137.8079833984375C218.4449462890625,136.89599609375,218.1810302734375,135.93603515625,218.2288818359375,134.927978515625C218.2769775390625,133.91998291015625,218.5408935546875,133.00799560546875,219.0208740234375,132.1920166015625C219.5489501953125,131.3759765625,220.2447509765625,130.7760009765625,221.1087646484375,130.3919677734375C221.9725341796875,130.0560302734375,222.9324951171875,130.08001708984375,223.9886474609375,130.4639892578125C226.1004638671875,131.3280029296875,228.0201416015625,131.8800048828125,229.7479248046875,132.1199951171875C231.4759521484375,132.40802001953125,232.9398193359375,132.552001953125,234.1397705078125,132.552001953125C237.0675048828125,132.552001953125,239.2513427734375,131.927978515625,240.6912841796875,130.67999267578125C242.1790771484375,129.47998046875,242.9229736328125,127.583984375,242.9229736328125,124.99200439453125L242.9229736328125,120.45599365234375L243.4989013671875,120.45599365234375C242.7789306640625,122.47198486328125,241.3150634765625,124.12799072265625,239.1072998046875,125.42401123046875C236.8995361328125,126.6719970703125,234.4996337890625,127.2960205078125,231.9078369140625,127.2960205078125C228.7401123046875,127.2960205078125,225.9803466796875,126.57598876953125,223.6285400390625,125.135986328125C221.2767333984375,123.64801025390625,219.4288330078125,121.583984375,218.0848388671875,118.9439697265625C216.7889404296875,116.30401611328125,216.1409912109375,113.2080078125,216.1409912109375,109.656005859375C216.1409912109375,106.968017578125,216.5252685546875,104.54400634765625,217.2930908203125,102.384033203125C218.0609130859375,100.2239990234375,219.1170654296875,98.3759765625,220.4608154296875,96.8399658203125C221.8526611328125,95.30401611328125,223.5086669921875,94.12799072265625,225.4283447265625,93.31201171875C227.3963623046875,92.447998046875,229.5560302734375,92.0159912109375,231.9078369140625,92.0159912109375C234.5955810546875,92.0159912109375,236.9954833984375,92.6400146484375,239.1072998046875,93.88800048828125C241.2669677734375,95.135986328125,242.7069091796875,96.76800537109375,243.4268798828125,98.78399658203125L242.7069091796875,101.7359619140625L242.7069091796875,98.5679931640625C242.7069091796875,96.5040283203125,243.2589111328125,94.9200439453125,244.3629150390625,93.8160400390625C245.5147705078125,92.7120361328125,247.0985107421875,92.1600341796875,249.1146240234375,92.1600341796875C251.1302490234375,92.1600341796875,252.6661376953125,92.7120361328125,253.7220458984375,93.8160400390625C254.8260498046875,94.9200439453125,255.3780517578125,96.5040283203125,255.3780517578125,98.5679931640625L255.3780517578125,123.47998046875C255.3780517578125,129.6240234375,253.6502685546875,134.23199462890625,250.1944580078125,137.30401611328125C246.7386474609375,140.42401123046875,241.7950439453125,141.9840087890625,235.3636474609375,141.9840087890625L235.3636474609375,141.9840087890625M235.8675537109375,117.864013671875C237.3074951171875,117.864013671875,238.5313720703125,117.552001953125,239.5391845703125,116.927978515625C240.5472412109375,116.2559814453125,241.3392333984375,115.32000732421875,241.9149169921875,114.1199951171875C242.4910888671875,112.87200927734375,242.7789306640625,111.384033203125,242.7789306640625,109.656005859375C242.7789306640625,107.06396484375,242.1551513671875,105.0479736328125,240.9071044921875,103.6080322265625C239.6593017578125,102.16796875,237.9793701171875,101.447998046875,235.8675537109375,101.447998046875C234.5238037109375,101.447998046875,233.3236083984375,101.78399658203125,232.2679443359375,102.45599365234375C231.2117919921875,103.08001708984375,230.3958740234375,104.0159912109375,229.8201904296875,105.2640380859375C229.2921142578125,106.4639892578125,229.0281982421875,107.927978515625,229.0281982421875,109.656005859375C229.0281982421875,112.24798583984375,229.6519775390625,114.2640380859375,230.9000244140625,115.7039794921875C232.1478271484375,117.14404296875,233.8035888671875,117.864013671875,235.8675537109375,117.864013671875L235.8675537109375,117.864013671875M269.2008056640625,141.84002685546875C267.1849365234375,141.84002685546875,265.6251220703125,141.28802490234375,264.5213623046875,140.18402099609375C263.4173583984375,139.08001708984375,262.8653564453125,137.4720458984375,262.8653564453125,135.3599853515625L262.8653564453125,98.5679931640625C262.8653564453125,96.5040283203125,263.3934326171875,94.9200439453125,264.4490966796875,93.8160400390625C265.5531005859375,92.7120361328125,267.1131591796875,92.1600341796875,269.1287841796875,92.1600341796875C271.1927490234375,92.1600341796875,272.7525634765625,92.7120361328125,273.8084716796875,93.8160400390625C274.9124755859375,94.9200439453125,275.4642333984375,96.5040283203125,275.4642333984375,98.5679931640625L275.4642333984375,102.7440185546875L274.6722412109375,99.21600341796875C275.3443603515625,97.0560302734375,276.7362060546875,95.3280029296875,278.8480224609375,94.031982421875C281.0079345703125,92.68798828125,283.4556884765625,92.0159912109375,286.1915283203125,92.0159912109375C289.2630615234375,92.0159912109375,291.9510498046875,92.760009765625,294.2547607421875,94.24798583984375C296.6065673828125,95.7359619140625,298.4305419921875,97.8480224609375,299.7264404296875,100.583984375C301.0223388671875,103.32000732421875,301.6702880859375,106.63201904296875,301.6702880859375,110.52001953125C301.6702880859375,114.31201171875,301.0223388671875,117.5999755859375,299.7264404296875,120.384033203125C298.4305419921875,123.16796875,296.6065673828125,125.30401611328125,294.2547607421875,126.7919921875C291.9510498046875,128.280029296875,289.2630615234375,129.02398681640625,286.1915283203125,129.02398681640625C283.5516357421875,129.02398681640625,281.1759033203125,128.4000244140625,279.0640869140625,127.1519775390625C276.9522705078125,125.90399169921875,275.5362548828125,124.27197265625,274.8162841796875,122.2559814453125L275.6802978515625,122.2559814453125L275.6802978515625,135.3599853515625C275.6802978515625,137.4720458984375,275.1043701171875,139.08001708984375,273.9525146484375,140.18402099609375C272.8485107421875,141.28802490234375,271.2645263671875,141.84002685546875,269.2008056640625,141.84002685546875L269.2008056640625,141.84002685546875M282.1597900390625,119.592041015625C283.4556884765625,119.592041015625,284.5836181640625,119.280029296875,285.5435791015625,118.656005859375C286.5513916015625,117.9840087890625,287.3433837890625,117,287.9193115234375,115.7039794921875C288.4952392578125,114.3599853515625,288.7830810546875,112.63201904296875,288.7830810546875,110.52001953125C288.7830810546875,107.30401611328125,288.1593017578125,105,286.9114990234375,103.6080322265625C285.6634521484375,102.16796875,284.0794677734375,101.447998046875,282.1597900390625,101.447998046875C280.8638916015625,101.447998046875,279.7120361328125,101.760009765625,278.7039794921875,102.384033203125C277.6961669921875,103.00799560546875,276.9041748046875,103.99200439453125,276.3282470703125,105.33599853515625C275.7523193359375,106.63201904296875,275.4642333984375,108.3599853515625,275.4642333984375,110.52001953125C275.4642333984375,113.68798828125,276.0882568359375,115.99200439453125,277.3363037109375,117.4320068359375C278.5841064453125,118.87200927734375,280.1920166015625,119.592041015625,282.1597900390625,119.592041015625L282.1597900390625,119.592041015625M313.8372802734375,128.8800048828125C311.8214111328125,128.8800048828125,310.2615966796875,128.3280029296875,309.1575927734375,127.2239990234375C308.0538330078125,126.1199951171875,307.5018310546875,124.51202392578125,307.5018310546875,122.4000244140625L307.5018310546875,98.5679931640625C307.5018310546875,96.5040283203125,308.0296630859375,94.9200439453125,309.0858154296875,93.8160400390625C310.1895751953125,92.7120361328125,311.7493896484375,92.1600341796875,313.7652587890625,92.1600341796875C315.7811279296875,92.1600341796875,317.3170166015625,92.7120361328125,318.3729248046875,93.8160400390625C319.4288330078125,94.9200439453125,319.9569091796875,96.5040283203125,319.9569091796875,98.5679931640625L319.9569091796875,101.9520263671875L319.1649169921875,99C320.3167724609375,96.7440185546875,321.9486083984375,95.0159912109375,324.0604248046875,93.8160400390625C326.2203369140625,92.615966796875,328.6680908203125,92.0159912109375,331.4039306640625,92.0159912109375C334.2357177734375,92.0159912109375,336.5633544921875,92.5679931640625,338.3873291015625,93.6719970703125C340.2113037109375,94.72802734375,341.5789794921875,96.40802001953125,342.4910888671875,98.7120361328125C343.4029541015625,100.968017578125,343.8587646484375,103.823974609375,343.8587646484375,107.280029296875L343.8587646484375,122.4000244140625C343.8587646484375,124.51202392578125,343.3070068359375,126.1199951171875,342.2030029296875,127.2239990234375C341.0989990234375,128.3280029296875,339.5152587890625,128.8800048828125,337.4515380859375,128.8800048828125C335.3875732421875,128.8800048828125,333.8035888671875,128.3280029296875,332.6998291015625,127.2239990234375C331.5958251953125,126.1199951171875,331.0438232421875,124.51202392578125,331.0438232421875,122.4000244140625L331.0438232421875,107.78399658203125C331.0438232421875,105.6240234375,330.6600341796875,104.0880126953125,329.8919677734375,103.176025390625C329.1719970703125,102.2640380859375,328.0921630859375,101.8079833984375,326.6522216796875,101.8079833984375C324.7322998046875,101.8079833984375,323.1966552734375,102.4320068359375,322.0445556640625,103.67999267578125C320.8927001953125,104.8800048828125,320.3167724609375,106.511962890625,320.3167724609375,108.57598876953125L320.3167724609375,122.4000244140625C320.3167724609375,126.719970703125,318.1571044921875,128.8800048828125,313.8372802734375,128.8800048828125L313.8372802734375,128.8800048828125" style="font-weight: 900; font-size: 72px; font-family: Nunito; dominant-baseline: ideographic; white-space: pre; fill: rgb(246, 245, 244); fill-opacity: 1;"/></g></g><g id="shape-4a085bf9-ae80-80da-8007-ae91fa8019ed"><g class="frame-container-wrapper"><g class="frame-container-blur"><g class="frame-container-shadows"><g fill="none"><g class="fills" id="fills-4a085bf9-ae80-80da-8007-ae91fa8019ed"><rect width="103" height="83" class="frame-background" x="347.85885620117176" transform="matrix(1.000000, 0.000000, 0.000000, 1.000000, 0.000000, 0.000000)" style="fill: rgb(234, 91, 12); fill-opacity: 1;" ry="16" rx="16" y="62"/></g><g class="frame-children"><g id="shape-4a085bf9-ae80-80da-8007-ae91fa8019ef"><g class="fills" id="fills-4a085bf9-ae80-80da-8007-ae91fa8019ef"><path d="M365.11541748046875,129.35447692871094C363.00164794921875,129.35447692871094,361.46405029296875,128.8763427734375,360.50311279296875,127.91999816894531C359.59027099609375,126.91586303710938,359.13372802734375,125.45748901367188,359.13372802734375,123.5447998046875C359.13372802734375,122.20594787597656,359.42205810546875,121.01058959960938,359.99871826171875,119.9586181640625C360.62347412109375,118.90669250488281,361.41619873046875,117.87860107421875,362.37689208984375,116.87452697753906L374.98870849609375,103.74899291992188C376.86248779296875,101.74072265625,378.18377685546875,100.01931762695312,378.95233154296875,98.58482360839844C379.76922607421875,97.15034484863281,380.17767333984375,95.71585083007812,380.17767333984375,94.2813720703125C380.17767333984375,92.46438598632812,379.57708740234375,91.10159301757812,378.37591552734375,90.19308471679688C377.17474365234375,89.28460693359375,375.44525146484375,88.83035278320312,373.18695068359375,88.83035278320312C372.03411865234375,88.83035278320312,370.80877685546875,88.99774169921875,369.51165771484375,89.3323974609375C368.21453857421875,89.61930847167969,366.82098388671875,90.14529418945312,365.33172607421875,90.91036987304688C364.03436279296875,91.48414611816406,362.85736083984375,91.65147399902344,361.80023193359375,91.41239929199219C360.79144287109375,91.17333984375,359.92645263671875,90.64739990234375,359.20599365234375,89.83448791503906C358.53314208984375,89.02163696289062,358.10101318359375,88.08918762207031,357.90863037109375,87.03726196289062C357.76458740234375,85.98527526855469,357.93255615234375,84.95724487304688,358.41326904296875,83.953125C358.89373779296875,82.90118408203125,359.75823974609375,82.04049682617188,361.00750732421875,81.37106323242188C363.21771240234375,80.1756591796875,365.49969482421875,79.31494140625,367.85394287109375,78.78895568847656C370.25628662109375,78.26303100585938,372.65863037109375,78,375.06072998046875,78C379.00042724609375,78,382.29168701171875,78.57383728027344,384.93402099609375,79.72140502929688C387.62469482421875,80.86897277832031,389.66668701171875,82.54252624511719,391.05975341796875,84.7420654296875C392.45306396484375,86.89376831054688,393.14984130859375,89.57151794433594,393.14984130859375,92.77520751953125C393.14984130859375,94.78347778320312,392.83758544921875,96.74394226074219,392.21282958984375,98.65657043457031C391.63641357421875,100.56919860839844,390.67547607421875,102.48188781738281,389.33001708984375,104.39445495605469C388.03289794921875,106.30714416503906,386.27947998046875,108.33929443359375,384.06927490234375,110.49099731445312L372.39422607421875,121.96688842773438L372.39422607421875,118.66755676269531L390.19525146484375,118.66755676269531C391.97259521484375,118.66755676269531,393.31805419921875,119.12185668945312,394.23065185546875,120.03036499023438C395.19183349609375,120.9388427734375,395.67230224609375,122.25379943847656,395.67230224609375,123.97514343261719C395.67230224609375,125.69654846191406,395.19183349609375,127.035400390625,394.23065185546875,127.99174499511719C393.31805419921875,128.90023803710938,391.97259521484375,129.35447692871094,390.19525146484375,129.35447692871094ZM427.23797607421875,130C425.22015380859375,130,423.63446044921875,129.4501190185547,422.48138427734375,128.350341796875C421.37640380859375,127.25057983398438,420.82391357421875,125.62481689453125,420.82391357421875,123.47311401367188L420.82391357421875,120.89105224609375L406.33831787109375,120.89105224609375C404.22430419921875,120.89105224609375,402.56658935546875,120.41291809082031,401.36566162109375,119.45651245117188C400.21234130859375,118.50022888183594,399.63592529296875,117.04185485839844,399.63592529296875,115.08137512207031C399.63592529296875,113.93380737304688,399.85223388671875,112.83404541015625,400.28460693359375,111.78204345703125C400.71697998046875,110.68228149414062,401.48553466796875,109.36738586425781,402.59051513671875,107.83726501464844L420.17523193359375,82.30345153808594C421.13616943359375,80.86897277832031,422.21722412109375,79.81698608398438,423.41839599609375,79.14756774902344C424.61932373046875,78.4781494140625,426.03680419921875,78.14349365234375,427.67034912109375,78.14349365234375C429.49603271484375,78.14349365234375,430.93743896484375,78.69337463378906,431.99432373046875,79.79315185546875C433.05145263671875,80.84507751464844,433.57977294921875,82.47084045410156,433.57977294921875,84.67037963867188L433.57977294921875,110.92135620117188L435.30950927734375,110.92135620117188C437.13543701171875,110.92135620117188,438.50457763671875,111.35169982910156,439.41717529296875,112.21240234375C440.37811279296875,113.07310485839844,440.85858154296875,114.29241943359375,440.85858154296875,115.87033081054688C440.85858154296875,117.49609375,440.37811279296875,118.73930358886719,439.41717529296875,119.60000610351562C438.50457763671875,120.46070861816406,437.13543701171875,120.89105224609375,435.30950927734375,120.89105224609375L433.57977294921875,120.89105224609375L433.57977294921875,123.47311401367188C433.57977294921875,125.5770263671875,433.02752685546875,127.20278930664062,431.92254638671875,128.350341796875C430.86541748046875,129.4501190185547,429.30364990234375,130,427.23797607421875,130ZM420.82391357421875,110.92135620117188L420.82391357421875,93.9945068359375L422.84173583984375,93.9945068359375L409.29290771484375,114.00555419921875L409.29290771484375,110.92135620117188Z" style="font-weight: 900; font-size: 72px; font-family: Nunito; dominant-baseline: ideographic; white-space: pre; fill: rgb(246, 245, 244); fill-opacity: 1;"/></g></g></g></g></g></g></g></g><g id="shape-4a085bf9-ae80-80da-8007-ae91fa8019ec"><g class="fills" id="fills-4a085bf9-ae80-80da-8007-ae91fa8019ec"><path d="M461.93475341796875,129.1414031982422C459.768798828125,129.1414031982422,458.0357666015625,128.49588012695312,456.73614501953125,127.20481872558594C455.4844970703125,125.913818359375,454.85888671875,124.21631622314453,454.85888671875,122.1124038696289C454.85888671875,120.05635070800781,455.4844970703125,118.40669250488281,456.73614501953125,117.16342163085938C458.0357666015625,115.87242889404297,459.768798828125,115.2269058227539,461.93475341796875,115.2269058227539C464.1973876953125,115.2269058227539,465.93017578125,115.87242889404297,467.133544921875,117.16342163085938C468.385009765625,118.40669250488281,469.01080322265625,120.05635070800781,469.01080322265625,122.1124038696289C469.01080322265625,124.21631622314453,468.385009765625,125.913818359375,467.133544921875,127.20481872558594C465.93017578125,128.49588012695312,464.1973876953125,129.1414031982422,461.93475341796875,129.1414031982422ZM488.441650390625,129.5C485.40924072265625,129.5,482.71343994140625,128.75885009765625,480.3548583984375,127.27656555175781C478.044189453125,125.79428100585938,476.2152099609375,123.66642761230469,474.8670654296875,120.89309692382812C473.56744384765625,118.11976623535156,472.9176025390625,114.8443374633789,472.9176025390625,111.06687927246094C472.9176025390625,107.19383239746094,473.56744384765625,103.89451599121094,474.8670654296875,101.16897583007812C476.2152099609375,98.44343566894531,478.044189453125,96.33952331542969,480.3548583984375,94.85725402832031C482.71343994140625,93.37490844726562,485.40924072265625,92.63380432128906,488.441650390625,92.63380432128906C491.08917236328125,92.63380432128906,493.4720458984375,93.25538635253906,495.5899658203125,94.49864196777344C497.7078857421875,95.74185180664062,499.1280517578125,97.34365844726562,499.849853515625,99.30413818359375L499.0555419921875,99.30413818359375L499.0555419921875,83.95521545410156C499.0555419921875,81.85124206542969,499.609375,80.24943542480469,500.71636962890625,79.149658203125C501.82354736328125,78.04988098144531,503.411865234375,77.5,505.4818115234375,77.5C507.5037841796875,77.5,509.06787109375,78.04988098144531,510.175048828125,79.149658203125C511.3304443359375,80.24943542480469,511.9080810546875,81.85124206542969,511.9080810546875,83.95521545410156L511.9080810546875,122.9013671875C511.9080810546875,125.00527954101562,511.3544921875,126.60714721679688,510.24755859375,127.7069091796875C509.1883544921875,128.80670166015625,507.6240234375,129.35650634765625,505.5540771484375,129.35650634765625C503.5323486328125,129.35650634765625,501.968017578125,128.80670166015625,500.86083984375,127.7069091796875C499.75360107421875,126.60714721679688,499.20001220703125,125.00527954101562,499.20001220703125,122.9013671875L499.20001220703125,118.8130874633789L499.9942626953125,122.32758331298828C499.32049560546875,124.47927856445312,497.900390625,126.22457885742188,495.73443603515625,127.5634765625C493.61627197265625,128.85447692871094,491.1854248046875,129.5,488.441650390625,129.5ZM492.55731201171875,120.10414123535156C493.85693359375,120.10414123535156,495.01214599609375,119.79331970214844,496.02313232421875,119.17169189453125C497.0340576171875,118.50226593017578,497.80413818359375,117.52203369140625,498.333740234375,116.23103332519531C498.911376953125,114.8921890258789,499.20001220703125,113.17084503173828,499.20001220703125,111.06687927246094C499.20001220703125,107.86325073242188,498.57421875,105.56800842285156,497.32275390625,104.18136596679688C496.07135009765625,102.74688720703125,494.4827880859375,102.02967834472656,492.55731201171875,102.02967834472656C491.25762939453125,102.02967834472656,490.10247802734375,102.34043884277344,489.09149169921875,102.96206665039062C488.08050537109375,103.58369445800781,487.2862548828125,104.56393432617188,486.7088623046875,105.90278625488281C486.13104248046875,107.19383239746094,485.84234619140625,108.91517639160156,485.84234619140625,111.06687927246094C485.84234619140625,114.22277069091797,486.46795654296875,116.51795959472656,487.7196044921875,117.95238494873047C488.97125244140625,119.38692474365234,490.5838623046875,120.10414123535156,492.55731201171875,120.10414123535156ZM538.6958618164062,129.5C534.363525390625,129.5,530.6090087890625,128.75885009765625,527.431884765625,127.27656555175781C524.30322265625,125.74642944335938,521.8963623046875,123.59474182128906,520.2116088867188,120.82135009765625C518.5267944335938,118.04808044433594,517.6845092773438,114.77265930175781,517.6845092773438,110.99519348144531C517.6845092773438,107.36116027832031,518.4788208007812,104.18136596679688,520.0673828125,101.45590209960938C521.7039184570312,98.68251037597656,523.9180908203125,96.53080749511719,526.7100830078125,95.00068664550781C529.550048828125,93.42276000976562,532.7752075195312,92.63380432128906,536.385498046875,92.63380432128906C539.0327758789062,92.63380432128906,541.4395751953125,93.06416320800781,543.6057739257812,93.9248046875C545.77197265625,94.73771667480469,547.6251831054688,95.95703125,549.16552734375,97.58273315429688C550.7061157226562,99.16070556640625,551.861328125,101.07333374023438,552.63134765625,103.32066345214844C553.4498291015625,105.56800842285156,553.8587646484375,108.078369140625,553.8587646484375,110.85176086425781C553.8587646484375,111.80804443359375,553.5941162109375,112.52526092529297,553.064453125,113.00345611572266C552.5350952148438,113.4338150024414,551.69287109375,113.64898681640625,550.5374145507812,113.64898681640625L528.44287109375,113.64898681640625L528.44287109375,107.62413024902344L544.4722900390625,107.62413024902344L543.317138671875,108.5565185546875C543.317138671875,106.78738403320312,543.076171875,105.35289001464844,542.5947875976562,104.25311279296875C542.1134033203125,103.15335083007812,541.3916015625,102.31654357910156,540.4288940429688,101.74275207519531C539.51416015625,101.16897583007812,538.3589477539062,100.88204956054688,536.9630737304688,100.88204956054688C535.470703125,100.88204956054688,534.1710815429688,101.24066162109375,533.0638427734375,101.95793151855469C532.005126953125,102.62734985351562,531.1868896484375,103.63148498535156,530.6090087890625,104.9703369140625C530.0314331054688,106.30917358398438,529.7427978515625,107.9827880859375,529.7427978515625,109.99105834960938L529.7427978515625,110.63652038574219C529.7427978515625,114.03148651123047,530.4885864257812,116.47010803222656,531.98095703125,117.95238494873047C533.521240234375,119.38692474365234,535.880126953125,120.10414123535156,539.0570068359375,120.10414123535156C540.115966796875,120.10414123535156,541.3193969726562,119.98460388183594,542.6672973632812,119.74553680419922C544.0631713867188,119.45861053466797,545.3870239257812,119.07611083984375,546.638427734375,118.59796905517578C547.889892578125,118.11976623535156,548.9730834960938,118.04808044433594,549.8875732421875,118.38273620605469C550.8020629882812,118.6696548461914,551.5001220703125,119.19564819335938,551.9815063476562,119.96070861816406C552.5111083984375,120.67792510986328,552.800048828125,121.51473236083984,552.8480224609375,122.47101593017578C552.89599609375,123.37950897216797,552.6795654296875,124.2880630493164,552.1982421875,125.19656372070312C551.7168579101562,126.0572509765625,550.9225463867188,126.7266845703125,549.8153686523438,127.20481872558594C548.1307983398438,127.96987915039062,546.3255615234375,128.54367065429688,544.4000244140625,128.9262237548828C542.5228271484375,129.3087158203125,540.621337890625,129.5,538.6958618164062,129.5Z" style="font-weight: 900; font-size: 72px; font-family: Nunito; dominant-baseline: ideographic; white-space: pre; fill: rgb(246, 245, 244); fill-opacity: 1;"/></g></g></g></g></g></g></g></g><g id="shape-4a085bf9-ae80-80da-8007-ae91fa8019eb"><g class="frame-container-wrapper"><g class="frame-container-blur"><g class="frame-container-shadows"><g fill="none"><g class="fills" id="fills-4a085bf9-ae80-80da-8007-ae91fa8019eb"><rect rx="0" ry="0" x="29.14114379882824" y="50.00000000000003" width="171" height="94.99999999999997" transform="matrix(1.000000, 0.000000, 0.000000, 1.000000, 0.000000, 0.000000)" class="frame-background"/></g><g class="frame-children"><g id="shape-4a085bf9-ae80-80da-8007-ae91fa8019f0" rx="0" ry="0" style="fill: rgb(0, 0, 0);"><g id="shape-4a085bf9-ae80-80da-8007-ae91fa8019f1"><g class="fills" id="fills-4a085bf9-ae80-80da-8007-ae91fa8019f1"><path d="M110.92657470703125,106.2133560180664C112.458740234375,128.02413940429688,130.67877197265625,144.95318603515625,152.67095947265625,144.99993896484375C168.9322509765625,144.96554565429688,183.70770263671875,135.58824157714844,190.58392333984375,120.9382095336914C181.9290771484375,131.96742248535156,168.6468505859375,138.41900634765625,154.5762939453125,138.42820739746094C134.48614501953125,138.39381408691406,116.77392578125,125.32160949707031,110.92657470703125,106.2133560180664Z" style="stroke-width: 0.668315; fill: rgb(234, 91, 12); fill-opacity: 1;"/></g></g><g id="shape-4a085bf9-ae80-80da-8007-ae91fa8019f2"><g class="fills" id="fills-4a085bf9-ae80-80da-8007-ae91fa8019f2"><path d="M152.67095947265625,61.617103576660156C136.84442138671875,61.65422821044922,122.38702392578125,70.5462417602539,115.28857421875,84.60906219482422C123.947998046875,73.8940658569336,137.0205078125,67.6515884399414,150.84613037109375,67.62934112548828C170.76593017578125,67.66895294189453,188.36602783203125,80.52941131591797,194.35052490234375,99.41825103759766C192.33349609375,78.0215835571289,174.28741455078125,61.65473175048828,152.67095947265625,61.617103576660156Z" style="stroke-width: 0.668315; fill: rgb(234, 91, 12); fill-opacity: 1;"/></g></g><g id="shape-4a085bf9-ae80-80da-8007-ae91fa8019f3"><g class="fills" id="fills-4a085bf9-ae80-80da-8007-ae91fa8019f3"><path d="M29.14111328125,50.031272888183594C115.984619140625,65.7790756225586,96.1676025390625,118.56542205810547,159.8792724609375,120.66864776611328C186.939208984375,120.66864776611328,197.22637939453125,108.68903350830078,200.125732421875,103.34578704833984C200.703369140625,102.28124237060547,184.9156494140625,114.04529571533203,160.44378662109375,113.70355987548828C158.1182861328125,113.70355987548828,155.8941650390625,113.60388946533203,153.7623291015625,113.41239166259766C101.31890869140625,108.70160675048828,104.71923828125,48.43187713623047,29.14111328125,50.031272888183594L29.14111328125,50.031272888183594L29.14111328125,50.031272888183594" style="stroke-width: 0.942867; fill: rgb(246, 245, 244); fill-opacity: 1;"/></g></g></g></g></g></g></g></g></g></g></g></g></g></g></g></g></svg>