<svg width="583.222" xmlns="http://www.w3.org/2000/svg" height="369.981" id="screenshot-b1712094-cced-80d3-8007-9bda8648848a" viewBox="0 0 583.222 369.981" xmlns:xlink="http://www.w3.org/1999/xlink" fill="none" version="1.1"><g id="shape-b1712094-cced-80d3-8007-9bda8648848a"><defs><clipPath id="frame-clip-b1712094-cced-80d3-8007-9bda8648848a-render-67" class="frame-clip frame-clip-def"><rect rx="0" ry="0" x="0" y="0" width="583.2219999999999" height="369.981" transform="matrix(1.000000, 0.000000, 0.000000, 1.000000, 0.000000, 0.000000)"/></clipPath></defs><g class="frame-container-wrapper"><g class="frame-container-blur"><g class="frame-container-shadows"><g clip-path="url(#frame-clip-b1712094-cced-80d3-8007-9bda8648848a-render-67)" fill="none"><g class="fills" id="fills-b1712094-cced-80d3-8007-9bda8648848a"><rect width="583.2219999999999" height="369.981" class="frame-background" x="0" transform="matrix(1.000000, 0.000000, 0.000000, 1.000000, 0.000000, 0.000000)" style="fill: rgb(246, 245, 244); fill-opacity: 1;" ry="0" rx="0" y="0"/></g><g class="frame-children"><g id="shape-b1712094-cced-80d3-8007-9be257468753"><g class="frame-container-wrapper"><g class="frame-container-blur"><g class="frame-container-shadows"><g fill="none"><g class="fills" id="fills-b1712094-cced-80d3-8007-9be257468753"><rect rx="0" ry="0" x="16.000000000000057" y="32" width="551.222" height="305.981" transform="matrix(1.000000, 0.000000, 0.000000, 1.000000, 0.000000, 0.000000)" class="frame-background"/></g><g class="frame-children"><g id="shape-b1712094-cced-80d3-8007-9bdadcb92a52" rx="0" ry="0" style="fill: rgb(0, 0, 0);"><g id="shape-b1712094-cced-80d3-8007-9bdadcb952f5"><g class="fills" id="fills-b1712094-cced-80d3-8007-9bdadcb952f5"><path d="M279.636962890625,213.054931640625C284.5760498046875,283.3043212890625,343.30859375,337.8302307128906,414.2008056640625,337.9808349609375C466.61956787109375,337.8700866699219,514.2484741210938,307.6670837402344,536.4141235351562,260.48150634765625C508.5150146484375,296.00506591796875,465.6995849609375,316.7845764160156,420.3426513671875,316.8142395019531C355.58172607421875,316.70343017578125,298.4859619140625,274.59979248046875,279.636962890625,213.054931640625Z" style="stroke-width: 0.668315; fill: rgb(234, 91, 12); fill-opacity: 1;"/></g></g><g id="shape-b1712094-cced-80d3-8007-9bdadcb98f32"><g class="fills" id="fills-b1712094-cced-80d3-8007-9bdadcb98f32"><path d="M414.2008056640625,69.4169921875C363.18377685546875,69.53656005859375,316.58001708984375,98.1763916015625,293.69793701171875,143.470703125C321.61181640625,108.95928955078125,363.75128173828125,88.8531494140625,408.31842041015625,88.78155517578125C472.53033447265625,88.90911865234375,529.2645874023438,130.33074951171875,548.5557861328125,191.16888427734375C542.053955078125,122.25341796875,483.88201904296875,69.5382080078125,414.2008056640625,69.4169921875Z" style="stroke-width: 0.668315; fill: rgb(234, 91, 12); fill-opacity: 1;"/></g></g><g id="shape-b1712094-cced-80d3-8007-9bdadcb98f33"><g class="fills" id="fills-b1712094-cced-80d3-8007-9bdadcb98f33"><path d="M15.9998779296875,32.1007080078125C295.94171142578125,82.82208251953125,232.06114196777344,252.839111328125,437.43695068359375,259.61328125C524.6652221679688,259.61334228515625,557.8261108398438,221.02871704101562,567.1722412109375,203.81893920898438C569.0343017578125,200.39016723632812,518.1422729492188,238.28045654296875,439.2567138671875,237.1798095703125C431.760498046875,237.17984008789062,424.59100341796875,236.8587646484375,417.718994140625,236.24197387695312C248.66661071777344,221.0692138671875,259.62762451171875,26.9493408203125,15.9998779296875,32.1007080078125L15.9998779296875,32.1007080078125L15.9998779296875,32.1007080078125" style="stroke-width: 0.942867; fill: rgb(77, 70, 67); fill-opacity: 1;"/></g></g></g></g></g></g></g></g></g></g></g></g></g></g></g></svg>