<svg width="551.222" xmlns="http://www.w3.org/2000/svg" height="305.981" id="screenshot-b1712094-cced-80d3-8007-9be27ad59bbe" viewBox="-0 -0 551.222 305.981" xmlns:xlink="http://www.w3.org/1999/xlink" fill="none" version="1.1"><g id="shape-b1712094-cced-80d3-8007-9be27ad59bbe"><g class="frame-container-wrapper"><g class="frame-container-blur"><g class="frame-container-shadows"><g fill="none"><g class="fills" id="fills-b1712094-cced-80d3-8007-9be27ad59bbe"><rect rx="0" ry="0" x="0" y="0" width="551.222" height="305.981" transform="matrix(1.000000, 0.000000, 0.000000, 1.000000, 0.000000, 0.000000)" class="frame-background"/></g><g class="frame-children"><g id="shape-b1712094-cced-80d3-8007-9be27ad5f4ce" rx="0" ry="0" style="fill: rgb(0, 0, 0);"><g id="shape-b1712094-cced-80d3-8007-9be27ad5f4cf"><g class="fills" id="fills-b1712094-cced-80d3-8007-9be27ad5f4cf"><path d="M263.636962890625,181.054931640625C268.5760498046875,251.3043212890625,327.30859375,305.8302307128906,398.2008056640625,305.9808349609375C450.61956787109375,305.8700866699219,498.24847412109375,275.6670837402344,520.4141235351562,228.48150634765625C492.5150146484375,264.00506591796875,449.6995849609375,284.7845764160156,404.3426513671875,284.8142395019531C339.58172607421875,284.70343017578125,282.4859619140625,242.59979248046875,263.636962890625,181.054931640625Z" style="stroke-width: 0.668315; fill: rgb(234, 91, 12); fill-opacity: 1;"/></g></g><g id="shape-b1712094-cced-80d3-8007-9be27ad5f4d0"><g class="fills" id="fills-b1712094-cced-80d3-8007-9be27ad5f4d0"><path d="M398.2008056640625,37.4169921875C347.18377685546875,37.53656005859375,300.58001708984375,66.1763916015625,277.69793701171875,111.470703125C305.61181640625,76.95928955078125,347.75128173828125,56.8531494140625,392.31842041015625,56.78155517578125C456.53033447265625,56.90911865234375,513.2645874023438,98.33074951171875,532.5557861328125,159.16888427734375C526.053955078125,90.25341796875,467.88201904296875,37.5382080078125,398.2008056640625,37.4169921875Z" style="stroke-width: 0.668315; fill: rgb(234, 91, 12); fill-opacity: 1;"/></g></g><g id="shape-b1712094-cced-80d3-8007-9be27ad5f4d1"><g class="fills" id="fills-b1712094-cced-80d3-8007-9be27ad5f4d1"><path d="M-0.0001220703125,0.1007080078125C279.94171142578125,50.82208251953125,216.0611572265625,220.839111328125,421.43695068359375,227.61328125C508.66522216796875,227.61334228515625,541.8261108398438,189.02871704101562,551.1722412109375,171.81893920898438C553.0343017578125,168.39016723632812,502.14227294921875,206.28045654296875,423.2567138671875,205.1798095703125C415.760498046875,205.17984008789062,408.59100341796875,204.8587646484375,401.718994140625,204.24197387695312C232.6666259765625,189.0692138671875,243.62762451171875,-5.0506591796875,-0.0001220703125,0.1007080078125L-0.0001220703125,0.1007080078125L-0.0001220703125,0.1007080078125" style="stroke-width: 0.942867; fill: rgb(246, 245, 244); fill-opacity: 1;"/></g></g></g></g></g></g></g></g></g></svg>