<svg width="551.222" xmlns="http://www.w3.org/2000/svg" height="305.981" id="screenshot-b1712094-cced-80d3-8007-9be257468753" viewBox="-0 -0 551.222 305.981" xmlns:xlink="http://www.w3.org/1999/xlink" fill="none" version="1.1"><g id="shape-b1712094-cced-80d3-8007-9be257468753"><g class="frame-container-wrapper"><g class="frame-container-blur"><g class="frame-container-shadows"><g fill="none"><g class="fills" id="fills-b1712094-cced-80d3-8007-9be257468753"><rect rx="0" ry="0" x="0" y="0" width="551.222" height="305.981" transform="matrix(1.000000, 0.000000, 0.000000, 1.000000, 0.000000, 0.000000)" class="frame-background"/></g><g class="frame-children"><g id="shape-b1712094-cced-80d3-8007-9bdadcb92a52" rx="0" ry="0" style="fill: rgb(0, 0, 0);"><g id="shape-b1712094-cced-80d3-8007-9bdadcb952f5"><g class="fills" id="fills-b1712094-cced-80d3-8007-9bdadcb952f5"><path d="M263.6369323730469,181.054931640625C268.5760192871094,251.3043212890625,327.3085632324219,305.8302307128906,398.2007751464844,305.9808349609375C450.6195373535156,305.8700866699219,498.2484436035156,275.6670837402344,520.4141235351562,228.48150634765625C492.5149841308594,264.00506591796875,449.6995544433594,284.7845764160156,404.3426208496094,284.8142395019531C339.5816955566406,284.70343017578125,282.4859313964844,242.59979248046875,263.6369323730469,181.054931640625Z" style="stroke-width: 0.668315; fill: rgb(234, 91, 12); fill-opacity: 1;"/></g></g><g id="shape-b1712094-cced-80d3-8007-9bdadcb98f32"><g class="fills" id="fills-b1712094-cced-80d3-8007-9bdadcb98f32"><path d="M398.2007751464844,37.4169921875C347.1837463378906,37.53656005859375,300.58001708984375,66.1763916015625,277.6979064941406,111.470703125C305.6117858886719,76.95928955078125,347.7512512207031,56.8531494140625,392.3183898925781,56.78155517578125C456.5303039550781,56.90911865234375,513.2645874023438,98.33074951171875,532.5557861328125,159.16888427734375C526.053955078125,90.25341796875,467.8819885253906,37.5382080078125,398.2007751464844,37.4169921875Z" style="stroke-width: 0.668315; fill: rgb(234, 91, 12); fill-opacity: 1;"/></g></g><g id="shape-b1712094-cced-80d3-8007-9bdadcb98f33"><g class="fills" id="fills-b1712094-cced-80d3-8007-9bdadcb98f33"><path d="M-0.0001220703125,0.1007080078125C279.9416809082031,50.82208251953125,216.06114196777344,220.839111328125,421.4369201660156,227.61328125C508.6651916503906,227.61334228515625,541.8261108398438,189.02871704101562,551.1722412109375,171.81893920898438C553.0343017578125,168.39016723632812,502.1422424316406,206.28045654296875,423.2566833496094,205.1798095703125C415.7604675292969,205.17984008789062,408.5909729003906,204.8587646484375,401.7189636230469,204.24197387695312C232.66661071777344,189.0692138671875,243.6276092529297,-5.0506591796875,-0.0001220703125,0.1007080078125L-0.0001220703125,0.1007080078125L-0.0001220703125,0.1007080078125" style="stroke-width: 0.942867; fill: rgb(77, 70, 67); fill-opacity: 1;"/></g></g></g></g></g></g></g></g></g></svg>