<svg width="337.718" xmlns="http://www.w3.org/2000/svg" height="83" id="screenshot-b1712094-cced-80d3-8007-9bdedd307208" viewBox="0 0 337.718 83" xmlns:xlink="http://www.w3.org/1999/xlink" fill="none" version="1.1"><g id="shape-b1712094-cced-80d3-8007-9bdedd307208"><g class="frame-container-wrapper"><g class="frame-container-blur"><g class="frame-container-shadows"><g fill="none"><g class="fills" id="fills-b1712094-cced-80d3-8007-9bdedd307208"><rect rx="0" ry="0" x="0" y="0" width="337.71771240234375" height="83" transform="matrix(1.000000, 0.000000, 0.000000, 1.000000, 0.000000, 0.000000)" class="frame-background"/></g><g class="frame-children"><g id="shape-4a085bf9-ae80-80da-8007-ae905e2060a9"><g class="fills" id="fills-4a085bf9-ae80-80da-8007-ae905e2060a9"><path d="M19.222503662109375,79.98400115966797C16.582611083984375,79.98400115966797,14.110931396484375,79.79198455810547,11.806976318359375,79.40801239013672C9.503265380859375,79.07201385498047,7.511322021484375,78.56798553466797,5.831390380859375,77.89598846435547C4.439788818359375,77.41600799560547,3.455657958984375,76.72002410888672,2.879730224609375,75.80797576904297C2.303802490234375,74.89598846435547,2.039886474609375,73.93602752685547,2.087738037109375,72.92797088623047C2.135833740234375,71.91997528076172,2.399749755859375,71.00798797607422,2.879730224609375,70.19200897216797C3.407806396484375,69.37596893310547,4.103607177734375,68.77599334716797,4.967620849609375,68.39196014404297C5.831390380859375,68.05602264404297,6.791351318359375,68.08000946044922,7.847503662109375,68.46398162841797C9.959320068359375,69.32799530029297,11.878997802734375,69.87999725341797,13.606781005859375,70.11998748779297C15.334808349609375,70.40801239013672,16.798675537109375,70.55199432373047,17.998626708984375,70.55199432373047C20.926361083984375,70.55199432373047,23.110198974609375,69.92797088623047,24.550140380859375,68.67998504638672C26.037933349609375,67.47997283935547,26.781829833984375,65.58397674560547,26.781829833984375,62.99200439453125L26.781829833984375,58.45599365234375L27.357757568359375,58.45599365234375C26.637786865234375,60.47198486328125,25.173919677734375,62.12799072265625,22.966156005859375,63.42401123046875C20.758392333984375,64.67198944091797,18.358489990234375,65.29601287841797,15.766693115234375,65.29601287841797C12.598968505859375,65.29601287841797,9.839202880859375,64.57598114013672,7.487396240234375,63.135986328125C5.135589599609375,61.64801025390625,3.287689208984375,59.583984375,1.943695068359375,56.9439697265625C0.647796630859375,54.30401611328125,-0.000152587890625,51.2080078125,-0.000152587890625,47.656005859375C-0.000152587890625,44.968017578125,0.384124755859375,42.54400634765625,1.151947021484375,40.384033203125C1.919769287109375,38.2239990234375,2.975921630859375,36.3759765625,4.319671630859375,34.8399658203125C5.711517333984375,33.30401611328125,7.367523193359375,32.12799072265625,9.287200927734375,31.31201171875C11.255218505859375,30.447998046875,13.414886474609375,30.0159912109375,15.766693115234375,30.0159912109375C18.454437255859375,30.0159912109375,20.854339599609375,30.6400146484375,22.966156005859375,31.88800048828125C25.125823974609375,33.135986328125,26.565765380859375,34.76800537109375,27.285736083984375,36.78399658203125L26.565765380859375,39.7359619140625L26.565765380859375,36.5679931640625C26.565765380859375,34.5040283203125,27.117767333984375,32.9200439453125,28.221771240234375,31.8160400390625C29.373626708984375,30.7120361328125,30.957366943359375,30.1600341796875,32.973480224609375,30.1600341796875C34.989105224609375,30.1600341796875,36.524993896484375,30.7120361328125,37.580902099609375,31.8160400390625C38.684906005859375,32.9200439453125,39.236907958984375,34.5040283203125,39.236907958984375,36.5679931640625L39.236907958984375,61.47998046875C39.236907958984375,67.62401580810547,37.509124755859375,72.23198699951172,34.053314208984375,75.30400848388672C30.597503662109375,78.42400360107422,25.653900146484375,79.98400115966797,19.222503662109375,79.98400115966797L19.222503662109375,79.98400115966797M19.726409912109375,55.864013671875C21.166351318359375,55.864013671875,22.390228271484375,55.552001953125,23.398040771484375,54.927978515625C24.406097412109375,54.2559814453125,25.198089599609375,53.32000732421875,25.773773193359375,52.1199951171875C26.349945068359375,50.87200927734375,26.637786865234375,49.384033203125,26.637786865234375,47.656005859375C26.637786865234375,45.06396484375,26.014007568359375,43.0479736328125,24.765960693359375,41.6080322265625C23.518157958984375,40.16796875,21.838226318359375,39.447998046875,19.726409912109375,39.447998046875C18.382659912109375,39.447998046875,17.182464599609375,39.78399658203125,16.126800537109375,40.45599365234375C15.070648193359375,41.08001708984375,14.254730224609375,42.0159912109375,13.679046630859375,43.2640380859375C13.150970458984375,44.4639892578125,12.887054443359375,45.927978515625,12.887054443359375,47.656005859375C12.887054443359375,50.24798583984375,13.510833740234375,52.2640380859375,14.758880615234375,53.7039794921875C16.006683349609375,55.14404296875,17.662445068359375,55.864013671875,19.726409912109375,55.864013671875L19.726409912109375,55.864013671875M53.059661865234375,79.84001922607422C51.043792724609375,79.84001922607422,49.483978271484375,79.28801727294922,48.380218505859375,78.18401336669922C47.276214599609375,77.08000946044922,46.724212646484375,75.47203826904297,46.724212646484375,73.35997772216797L46.724212646484375,36.5679931640625C46.724212646484375,34.5040283203125,47.252288818359375,32.9200439453125,48.307952880859375,31.8160400390625C49.411956787109375,30.7120361328125,50.972015380859375,30.1600341796875,52.987640380859375,30.1600341796875C55.051605224609375,30.1600341796875,56.611419677734375,30.7120361328125,57.667327880859375,31.8160400390625C58.771331787109375,32.9200439453125,59.323089599609375,34.5040283203125,59.323089599609375,36.5679931640625L59.323089599609375,40.7440185546875L58.531097412109375,37.21600341796875C59.203216552734375,35.0560302734375,60.595062255859375,33.3280029296875,62.706878662109375,32.031982421875C64.86679077148438,30.68798828125,67.31454467773438,30.0159912109375,70.05038452148438,30.0159912109375C73.12191772460938,30.0159912109375,75.80990600585938,30.760009765625,78.11361694335938,32.24798583984375C80.46542358398438,33.7359619140625,82.28939819335938,35.8480224609375,83.58529663085938,38.583984375C84.88119506835938,41.32000732421875,85.52914428710938,44.63201904296875,85.52914428710938,48.52001953125C85.52914428710938,52.31201171875,84.88119506835938,55.5999755859375,83.58529663085938,58.384033203125C82.28939819335938,61.16796875,80.46542358398438,63.30401611328125,78.11361694335938,64.79198455810547C75.80990600585938,66.28002166748047,73.12191772460938,67.02397918701172,70.05038452148438,67.02397918701172C67.41049194335938,67.02397918701172,65.03475952148438,66.40001678466797,62.922943115234375,65.15196990966797C60.811126708984375,63.90398406982422,59.395111083984375,62.27197265625,58.675140380859375,60.2559814453125L59.539154052734375,60.2559814453125L59.539154052734375,73.35997772216797C59.539154052734375,75.47203826904297,58.963226318359375,77.08000946044922,57.811370849609375,78.18401336669922C56.707366943359375,79.28801727294922,55.123382568359375,79.84001922607422,53.059661865234375,79.84001922607422L53.059661865234375,79.84001922607422M66.01864624023438,57.592041015625C67.31454467773438,57.592041015625,68.44247436523438,57.280029296875,69.40243530273438,56.656005859375C70.41024780273438,55.9840087890625,71.20223999023438,55,71.77816772460938,53.7039794921875C72.35409545898438,52.3599853515625,72.64193725585938,50.63201904296875,72.64193725585938,48.52001953125C72.64193725585938,45.30401611328125,72.01815795898438,43,70.77035522460938,41.6080322265625C69.52230834960938,40.16796875,67.93832397460938,39.447998046875,66.01864624023438,39.447998046875C64.72274780273438,39.447998046875,63.570892333984375,39.760009765625,62.562835693359375,40.384033203125C61.555023193359375,41.00799560546875,60.763031005859375,41.99200439453125,60.187103271484375,43.33599853515625C59.611175537109375,44.63201904296875,59.323089599609375,46.3599853515625,59.323089599609375,48.52001953125C59.323089599609375,51.68798828125,59.947113037109375,53.99200439453125,61.195159912109375,55.4320068359375C62.442962646484375,56.87200927734375,64.05087280273438,57.592041015625,66.01864624023438,57.592041015625L66.01864624023438,57.592041015625M97.69613647460938,66.87999725341797C95.68026733398438,66.87999725341797,94.12045288085938,66.32799530029297,93.01644897460938,65.22399139404297C91.91268920898438,64.11998748779297,91.36068725585938,62.51202392578125,91.36068725585938,60.4000244140625L91.36068725585938,36.5679931640625C91.36068725585938,34.5040283203125,91.88851928710938,32.9200439453125,92.94467163085938,31.8160400390625C94.04843139648438,30.7120361328125,95.60824584960938,30.1600341796875,97.62411499023438,30.1600341796875C99.63998413085938,30.1600341796875,101.17587280273438,30.7120361328125,102.23178100585938,31.8160400390625C103.28768920898438,32.9200439453125,103.81576538085938,34.5040283203125,103.81576538085938,36.5679931640625L103.81576538085938,39.9520263671875L103.02377319335938,37C104.17562866210938,34.7440185546875,105.80746459960938,33.0159912109375,107.91928100585938,31.8160400390625C110.07919311523438,30.615966796875,112.52694702148438,30.0159912109375,115.26278686523438,30.0159912109375C118.09457397460938,30.0159912109375,120.42221069335938,30.5679931640625,122.24618530273438,31.6719970703125C124.07015991210938,32.72802734375,125.43783569335938,34.40802001953125,126.34994506835938,36.7120361328125C127.26181030273438,38.968017578125,127.71762084960938,41.823974609375,127.71762084960938,45.280029296875L127.71762084960938,60.4000244140625C127.71762084960938,62.51202392578125,127.16586303710938,64.11998748779297,126.06185913085938,65.22399139404297C124.95785522460938,66.32799530029297,123.37411499023438,66.87999725341797,121.31039428710938,66.87999725341797C119.24642944335938,66.87999725341797,117.66244506835938,66.32799530029297,116.55868530273438,65.22399139404297C115.45468139648438,64.11998748779297,114.90267944335938,62.51202392578125,114.90267944335938,60.4000244140625L114.90267944335938,45.78399658203125C114.90267944335938,43.6240234375,114.51889038085938,42.0880126953125,113.75082397460938,41.176025390625C113.03085327148438,40.2640380859375,111.95101928710938,39.8079833984375,110.51107788085938,39.8079833984375C108.59115600585938,39.8079833984375,107.05551147460938,40.4320068359375,105.90341186523438,41.67999267578125C104.75155639648438,42.8800048828125,104.17562866210938,44.511962890625,104.17562866210938,46.57598876953125L104.17562866210938,60.4000244140625C104.17562866210938,64.71996307373047,102.01596069335938,66.87999725341797,97.69613647460938,66.87999725341797L97.69613647460938,66.87999725341797" style="font-weight: 900; font-size: 72px; font-family: Nunito; dominant-baseline: ideographic; white-space: pre; fill: rgb(77, 70, 67); fill-opacity: 1;"/></g></g><g id="shape-b1712094-cced-80d3-8007-9be09c53a47a"><g class="frame-container-wrapper"><g class="frame-container-blur"><g class="frame-container-shadows"><g fill="none"><g class="fills" id="fills-b1712094-cced-80d3-8007-9be09c53a47a"><rect width="103" height="83" class="frame-background" x="131.71771240234375" transform="matrix(1.000000, 0.000000, 0.000000, 1.000000, 0.000000, 0.000000)" style="fill: rgb(234, 91, 12); fill-opacity: 1;" ry="16" rx="16" y="0"/></g><g class="frame-children"><g id="shape-4a085bf9-ae80-80da-8007-ae90d1d640c0"><g class="fills" id="fills-4a085bf9-ae80-80da-8007-ae90d1d640c0"><path d="M148.97427368164062,67.35447692871094C146.86050415039062,67.35447692871094,145.32290649414062,66.8763427734375,144.36196899414062,65.91999816894531C143.44912719726562,64.91586303710938,142.99258422851562,63.457481384277344,142.99258422851562,61.5447998046875C142.99258422851562,60.20594787597656,143.28091430664062,59.010589599609375,143.85757446289062,57.9586181640625C144.48233032226562,56.90669250488281,145.27505493164062,55.87860107421875,146.23574829101562,54.87452697753906L158.84756469726562,41.748992919921875C160.72134399414062,39.74072265625,162.04263305664062,38.019317626953125,162.81118774414062,36.58482360839844C163.62808227539062,35.15034484863281,164.03652954101562,33.715850830078125,164.03652954101562,32.2813720703125C164.03652954101562,30.464385986328125,163.43594360351562,29.101593017578125,162.23477172851562,28.193084716796875C161.03359985351562,27.28460693359375,159.30410766601562,26.830352783203125,157.04580688476562,26.830352783203125C155.89297485351562,26.830352783203125,154.66763305664062,26.99774169921875,153.37051391601562,27.3323974609375C152.07339477539062,27.619308471679688,150.67984008789062,28.145294189453125,149.19058227539062,28.910369873046875C147.89321899414062,29.484146118164062,146.71621704101562,29.651473999023438,145.65908813476562,29.412399291992188C144.65029907226562,29.17333984375,143.78530883789062,28.64739990234375,143.06484985351562,27.834487915039062C142.39199829101562,27.021636962890625,141.95986938476562,26.089187622070312,141.76748657226562,25.037261962890625C141.62344360351562,23.985275268554688,141.79141235351562,22.957244873046875,142.27212524414062,21.953125C142.75259399414062,20.90118408203125,143.61709594726562,20.040496826171875,144.86636352539062,19.371063232421875C147.07656860351562,18.1756591796875,149.35855102539062,17.31494140625,151.71279907226562,16.788955688476562C154.11514282226562,16.263031005859375,156.51748657226562,16,158.91958618164062,16C162.85928344726562,16,166.15054321289062,16.573837280273438,168.79287719726562,17.721405029296875C171.48355102539062,18.868972778320312,173.52554321289062,20.542526245117188,174.91860961914062,22.7420654296875C176.31192016601562,24.893768310546875,177.00869750976562,27.571517944335938,177.00869750976562,30.77520751953125C177.00869750976562,32.783477783203125,176.69644165039062,34.74394226074219,176.07168579101562,36.65657043457031C175.49526977539062,38.56919860839844,174.53433227539062,40.48188781738281,173.18887329101562,42.39445495605469C171.89175415039062,44.30714416503906,170.13833618164062,46.33929443359375,167.92813110351562,48.490997314453125L156.25308227539062,59.966888427734375L156.25308227539062,56.66755676269531L174.05410766601562,56.66755676269531C175.83145141601562,56.66755676269531,177.17691040039062,57.121856689453125,178.08950805664062,58.030364990234375C179.05068969726562,58.9388427734375,179.53115844726562,60.25379943847656,179.53115844726562,61.97514343261719C179.53115844726562,63.69654846191406,179.05068969726562,65.035400390625,178.08950805664062,65.99174499511719C177.17691040039062,66.90023803710938,175.83145141601562,67.35447692871094,174.05410766601562,67.35447692871094ZM211.09683227539062,68.00000762939453C209.07901000976562,68.00000762939453,207.49331665039062,67.45011901855469,206.34024047851562,66.350341796875C205.23526000976562,65.25057220458984,204.68276977539062,63.62480926513672,204.68276977539062,61.473114013671875L204.68276977539062,58.89105224609375L190.19717407226562,58.89105224609375C188.08316040039062,58.89105224609375,186.42544555664062,58.41291809082031,185.22451782226562,57.456512451171875C184.07119750976562,56.50022888183594,183.49478149414062,55.04185485839844,183.49478149414062,53.08137512207031C183.49478149414062,51.933807373046875,183.71109008789062,50.83404541015625,184.14346313476562,49.78204345703125C184.57583618164062,48.682281494140625,185.34439086914062,47.36738586425781,186.44937133789062,45.83726501464844L204.03408813476562,20.303451538085938C204.99502563476562,18.868972778320312,206.07608032226562,17.816986083984375,207.27725219726562,17.147567749023438C208.47817993164062,16.4781494140625,209.89566040039062,16.14349365234375,211.52920532226562,16.14349365234375C213.35488891601562,16.14349365234375,214.79629516601562,16.693374633789062,215.85317993164062,17.79315185546875C216.91030883789062,18.845077514648438,217.43862915039062,20.470840454101562,217.43862915039062,22.670379638671875L217.43862915039062,48.921356201171875L219.16836547851562,48.921356201171875C220.99429321289062,48.921356201171875,222.36343383789062,49.35169982910156,223.27603149414062,50.21240234375C224.23696899414062,51.07310485839844,224.71743774414062,52.29241943359375,224.71743774414062,53.870330810546875C224.71743774414062,55.49609375,224.23696899414062,56.73930358886719,223.27603149414062,57.600006103515625C222.36343383789062,58.46070861816406,220.99429321289062,58.89105224609375,219.16836547851562,58.89105224609375L217.43862915039062,58.89105224609375L217.43862915039062,61.473114013671875C217.43862915039062,63.57701873779297,216.88638305664062,65.2027816772461,215.78140258789062,66.350341796875C214.72427368164062,67.45011901855469,213.16250610351562,68.00000762939453,211.09683227539062,68.00000762939453ZM204.68276977539062,48.921356201171875L204.68276977539062,31.9945068359375L206.70059204101562,31.9945068359375L193.15176391601562,52.00555419921875L193.15176391601562,48.921356201171875Z" style="font-weight: 900; font-size: 72px; font-family: Nunito; dominant-baseline: ideographic; white-space: pre; fill: rgb(246, 245, 244);"/></g></g></g></g></g></g></g></g><g id="shape-4a085bf9-ae80-80da-8007-ae90ba98dd1b"><g class="fills" id="fills-4a085bf9-ae80-80da-8007-ae90ba98dd1b"><path d="M245.7935791015625,67.14140319824219C243.62765502929688,67.14140319824219,241.89463806152344,66.4958724975586,240.59498596191406,65.20481872558594C239.34332275390625,63.91382598876953,238.71774291992188,62.21631622314453,238.71774291992188,60.112403869628906C238.71774291992188,58.05635070800781,239.34332275390625,56.40669250488281,240.59498596191406,55.163421630859375C241.89463806152344,53.87242889404297,243.62765502929688,53.226905822753906,245.7935791015625,53.226905822753906C248.05621337890625,53.226905822753906,249.78900146484375,53.87242889404297,250.992431640625,55.163421630859375C252.24383544921875,56.40669250488281,252.8696746826172,58.05635070800781,252.8696746826172,60.112403869628906C252.8696746826172,62.21631622314453,252.24383544921875,63.91382598876953,250.992431640625,65.20481872558594C249.78900146484375,66.4958724975586,248.05621337890625,67.14140319824219,245.7935791015625,67.14140319824219ZM272.3005065917969,67.50000762939453C269.26806640625,67.50000762939453,266.5722961425781,66.75884246826172,264.21368408203125,65.27656555175781C261.903076171875,63.794288635253906,260.0740661621094,61.66642761230469,258.7259216308594,58.893096923828125C257.42626953125,56.11976623535156,256.7764587402344,52.844337463378906,256.7764587402344,49.06687927246094C256.7764587402344,45.19383239746094,257.42626953125,41.89451599121094,258.7259216308594,39.168975830078125C260.0740661621094,36.44343566894531,261.903076171875,34.33952331542969,264.21368408203125,32.85725402832031C266.5722961425781,31.374908447265625,269.26806640625,30.633804321289062,272.3005065917969,30.633804321289062C274.94805908203125,30.633804321289062,277.3309020996094,31.255386352539062,279.4488220214844,32.49864196777344C281.5667724609375,33.741851806640625,282.98687744140625,35.343658447265625,283.70867919921875,37.30413818359375L282.9143981933594,37.30413818359375L282.9143981933594,21.955215454101562C282.9143981933594,19.851242065429688,283.46826171875,18.249435424804688,284.5751953125,17.149658203125C285.6824035644531,16.049880981445312,287.2707214355469,15.5,289.3406677246094,15.5C291.36260986328125,15.5,292.92669677734375,16.049880981445312,294.0339050292969,17.149658203125C295.1893310546875,18.249435424804688,295.7669372558594,19.851242065429688,295.7669372558594,21.955215454101562L295.7669372558594,60.9013671875C295.7669372558594,63.005271911621094,295.21331787109375,64.60713958740234,294.10638427734375,65.70691680908203C293.04718017578125,66.80669403076172,291.48284912109375,67.35651397705078,289.41290283203125,67.35651397705078C287.3912048339844,67.35651397705078,285.8268737792969,66.80669403076172,284.71966552734375,65.70691680908203C283.6124572753906,64.60713958740234,283.0588684082031,63.005271911621094,283.0588684082031,60.9013671875L283.0588684082031,56.813087463378906L283.8531494140625,60.32758331298828C283.1793212890625,62.479278564453125,281.75921630859375,64.22457885742188,279.5932922363281,65.56348419189453C277.4751281738281,66.85447692871094,275.0442810058594,67.50000762939453,272.3005065917969,67.50000762939453ZM276.4161682128906,58.10414123535156C277.7158203125,58.10414123535156,278.8710021972656,57.79331970214844,279.8819580078125,57.17169189453125C280.8929443359375,56.50226593017578,281.6629943847656,55.52203369140625,282.1925964355469,54.23103332519531C282.77020263671875,52.892189025878906,283.0588684082031,51.17084503173828,283.0588684082031,49.06687927246094C283.0588684082031,45.863250732421875,282.43304443359375,43.56800842285156,281.1816101074219,42.181365966796875C279.9302062988281,40.74688720703125,278.3416442871094,40.02967834472656,276.4161682128906,40.02967834472656C275.11651611328125,40.02967834472656,273.9613037109375,40.34043884277344,272.9503479003906,40.962066650390625C271.9393615722656,41.58369445800781,271.14508056640625,42.563934326171875,270.5677185058594,43.90278625488281C269.9898986816406,45.19383239746094,269.7012023925781,46.91517639160156,269.7012023925781,49.06687927246094C269.7012023925781,52.22277069091797,270.3268127441406,54.51795959472656,271.5784606933594,55.95238494873047C272.8301086425781,57.386924743652344,274.44268798828125,58.10414123535156,276.4161682128906,58.10414123535156ZM322.5546875,67.50000762939453C318.2223815917969,67.50000762939453,314.4678955078125,66.75884246826172,311.2907409667969,65.27656555175781C308.1620788574219,63.746437072753906,305.7552490234375,61.59474182128906,304.0704345703125,58.82135009765625C302.3856506347656,56.04808044433594,301.5433654785156,52.77265930175781,301.5433654785156,48.99519348144531C301.5433654785156,45.36116027832031,302.337646484375,42.181365966796875,303.9262390136719,39.455902099609375C305.5627746582031,36.68251037597656,307.7769470214844,34.53080749511719,310.5689392089844,33.00068664550781C313.408935546875,31.422760009765625,316.6340637207031,30.633804321289062,320.24432373046875,30.633804321289062C322.8916015625,30.633804321289062,325.2984619140625,31.064163208007812,327.4646301269531,31.9248046875C329.63079833984375,32.73771667480469,331.4840393066406,33.95703125,333.0243835449219,35.582733154296875C334.56494140625,37.16070556640625,335.72015380859375,39.073333740234375,336.4902038574219,41.32066345214844C337.3087158203125,43.56800842285156,337.7176208496094,46.078369140625,337.7176208496094,48.85176086425781C337.7176208496094,49.80804443359375,337.45294189453125,50.52526092529297,336.9233093261719,51.003456115722656C336.3939514160156,51.433815002441406,335.55169677734375,51.64898681640625,334.396240234375,51.64898681640625L312.3017272949219,51.64898681640625L312.3017272949219,45.62413024902344L328.3311462402344,45.62413024902344L327.17596435546875,46.5565185546875C327.17596435546875,44.787384033203125,326.9350280761719,43.35289001464844,326.4536437988281,42.25311279296875C325.9722900390625,41.153350830078125,325.2504577636719,40.31654357910156,324.2877197265625,39.74275207519531C323.37298583984375,39.168975830078125,322.2178039550781,38.882049560546875,320.8219299316406,38.882049560546875C319.32958984375,38.882049560546875,318.0299377441406,39.24066162109375,316.9227294921875,39.95793151855469C315.864013671875,40.627349853515625,315.04571533203125,41.63148498535156,314.4678955078125,42.9703369140625C313.8902893066406,44.309173583984375,313.60162353515625,45.9827880859375,313.60162353515625,47.991058349609375L313.60162353515625,48.63652038574219C313.60162353515625,52.03148651123047,314.347412109375,54.47010803222656,315.83978271484375,55.95238494873047C317.3800964355469,57.386924743652344,319.73895263671875,58.10414123535156,322.9158630371094,58.10414123535156C323.9748229980469,58.10414123535156,325.1782531738281,57.98460388183594,326.526123046875,57.74553680419922C327.9219970703125,57.45861053466797,329.2458801269531,57.07611083984375,330.497314453125,56.59796905517578C331.74871826171875,56.11976623535156,332.8319091796875,56.04808044433594,333.7464294433594,56.38273620605469C334.6609191894531,56.669654846191406,335.3590087890625,57.195648193359375,335.8403625488281,57.96070861816406C336.3699645996094,58.67792510986328,336.65887451171875,59.514732360839844,336.7068786621094,60.47101593017578C336.7548828125,61.37950897216797,336.5384216308594,62.288063049316406,336.05706787109375,63.196556091308594C335.57568359375,64.05725860595703,334.7814025878906,64.72667694091797,333.6741943359375,65.20481872558594C331.9896545410156,65.96987915039062,330.18438720703125,66.54366302490234,328.2589111328125,66.92622375488281C326.38165283203125,67.30872344970703,324.4801940917969,67.50000762939453,322.5546875,67.50000762939453Z" style="font-weight: 900; font-size: 72px; font-family: Nunito; dominant-baseline: ideographic; white-space: pre; fill: rgb(77, 70, 67); fill-opacity: 1;"/></g></g></g></g></g></g></g></g></svg>