<svg width="583" xmlns="http://www.w3.org/2000/svg" height="209" id="screenshot-b1712094-cced-80d3-8007-9bdd2b43a989" viewBox="0 0 583 209" xmlns:xlink="http://www.w3.org/1999/xlink" fill="none" version="1.1"><g id="shape-b1712094-cced-80d3-8007-9bdd2b43a989"><defs><clipPath id="frame-clip-b1712094-cced-80d3-8007-9bdd2b43a989-render-55" class="frame-clip frame-clip-def"><rect rx="0" ry="0" x="0" y="0" width="583.0000000000001" height="209" transform="matrix(1.000000, 0.000000, 0.000000, 1.000000, 0.000000, 0.000000)"/></clipPath></defs><g class="frame-container-wrapper"><g class="frame-container-blur"><g class="frame-container-shadows"><g clip-path="url(#frame-clip-b1712094-cced-80d3-8007-9bdd2b43a989-render-55)" fill="none"><g class="fills" id="fills-b1712094-cced-80d3-8007-9bdd2b43a989"><rect width="583.0000000000001" height="209" class="frame-background" x="0" transform="matrix(1.000000, 0.000000, 0.000000, 1.000000, 0.000000, 0.000000)" style="fill: rgb(246, 245, 244); fill-opacity: 1;" ry="0" rx="0" y="0"/></g><g class="frame-children"><g id="shape-b1712094-cced-80d3-8007-9bdedd307208"><g class="frame-container-wrapper"><g class="frame-container-blur"><g class="frame-container-shadows"><g fill="none"><g class="fills" id="fills-b1712094-cced-80d3-8007-9bdedd307208"><rect rx="0" ry="0" x="122.64114379882818" y="63" width="337.71771240234375" height="83" transform="matrix(1.000000, 0.000000, 0.000000, 1.000000, 0.000000, 0.000000)" class="frame-background"/></g><g class="frame-children"><g id="shape-4a085bf9-ae80-80da-8007-ae905e2060a9"><g class="fills" id="fills-4a085bf9-ae80-80da-8007-ae905e2060a9"><path d="M141.8636474609375,142.9840087890625C139.2237548828125,142.9840087890625,136.7520751953125,142.7919921875,134.4481201171875,142.40802001953125C132.1444091796875,142.072021484375,130.1524658203125,141.5679931640625,128.4725341796875,140.89599609375C127.0809326171875,140.416015625,126.0968017578125,139.72003173828125,125.5208740234375,138.8079833984375C124.9449462890625,137.89599609375,124.6810302734375,136.93603515625,124.7288818359375,135.927978515625C124.7769775390625,134.91998291015625,125.0408935546875,134.00799560546875,125.5208740234375,133.1920166015625C126.0489501953125,132.3759765625,126.7447509765625,131.7760009765625,127.6087646484375,131.3919677734375C128.4725341796875,131.0560302734375,129.4324951171875,131.08001708984375,130.4886474609375,131.4639892578125C132.6004638671875,132.3280029296875,134.5201416015625,132.8800048828125,136.2479248046875,133.1199951171875C137.9759521484375,133.40802001953125,139.4398193359375,133.552001953125,140.6397705078125,133.552001953125C143.5675048828125,133.552001953125,145.7513427734375,132.927978515625,147.1912841796875,131.67999267578125C148.6790771484375,130.47998046875,149.4229736328125,128.583984375,149.4229736328125,125.99200439453125L149.4229736328125,121.45599365234375L149.9989013671875,121.45599365234375C149.2789306640625,123.47198486328125,147.8150634765625,125.12799072265625,145.6072998046875,126.42401123046875C143.3995361328125,127.67198944091797,140.9996337890625,128.2960205078125,138.4078369140625,128.2960205078125C135.2401123046875,128.2960205078125,132.4803466796875,127.57598114013672,130.1285400390625,126.135986328125C127.7767333984375,124.64801025390625,125.9288330078125,122.583984375,124.5848388671875,119.9439697265625C123.2889404296875,117.30401611328125,122.6409912109375,114.2080078125,122.6409912109375,110.656005859375C122.6409912109375,107.968017578125,123.0252685546875,105.54400634765625,123.7930908203125,103.384033203125C124.5609130859375,101.2239990234375,125.6170654296875,99.3759765625,126.9608154296875,97.8399658203125C128.3526611328125,96.30401611328125,130.0086669921875,95.12799072265625,131.9283447265625,94.31201171875C133.8963623046875,93.447998046875,136.0560302734375,93.0159912109375,138.4078369140625,93.0159912109375C141.0955810546875,93.0159912109375,143.4954833984375,93.6400146484375,145.6072998046875,94.88800048828125C147.7669677734375,96.135986328125,149.2069091796875,97.76800537109375,149.9268798828125,99.78399658203125L149.2069091796875,102.7359619140625L149.2069091796875,99.5679931640625C149.2069091796875,97.5040283203125,149.7589111328125,95.9200439453125,150.8629150390625,94.8160400390625C152.0147705078125,93.7120361328125,153.5985107421875,93.1600341796875,155.6146240234375,93.1600341796875C157.6302490234375,93.1600341796875,159.1661376953125,93.7120361328125,160.2220458984375,94.8160400390625C161.3260498046875,95.9200439453125,161.8780517578125,97.5040283203125,161.8780517578125,99.5679931640625L161.8780517578125,124.47998046875C161.8780517578125,130.6240234375,160.1502685546875,135.23199462890625,156.6944580078125,138.30401611328125C153.2386474609375,141.42401123046875,148.2950439453125,142.9840087890625,141.8636474609375,142.9840087890625L141.8636474609375,142.9840087890625M142.3675537109375,118.864013671875C143.8074951171875,118.864013671875,145.0313720703125,118.552001953125,146.0391845703125,117.927978515625C147.0472412109375,117.2559814453125,147.8392333984375,116.32000732421875,148.4149169921875,115.1199951171875C148.9910888671875,113.87200927734375,149.2789306640625,112.384033203125,149.2789306640625,110.656005859375C149.2789306640625,108.06396484375,148.6551513671875,106.0479736328125,147.4071044921875,104.6080322265625C146.1593017578125,103.16796875,144.4793701171875,102.447998046875,142.3675537109375,102.447998046875C141.0238037109375,102.447998046875,139.8236083984375,102.78399658203125,138.7679443359375,103.45599365234375C137.7117919921875,104.08001708984375,136.8958740234375,105.0159912109375,136.3201904296875,106.2640380859375C135.7921142578125,107.4639892578125,135.5281982421875,108.927978515625,135.5281982421875,110.656005859375C135.5281982421875,113.24798583984375,136.1519775390625,115.2640380859375,137.4000244140625,116.7039794921875C138.6478271484375,118.14404296875,140.3035888671875,118.864013671875,142.3675537109375,118.864013671875L142.3675537109375,118.864013671875M175.7008056640625,142.84002685546875C173.6849365234375,142.84002685546875,172.1251220703125,142.28802490234375,171.0213623046875,141.18402099609375C169.9173583984375,140.08001708984375,169.3653564453125,138.4720458984375,169.3653564453125,136.3599853515625L169.3653564453125,99.5679931640625C169.3653564453125,97.5040283203125,169.8934326171875,95.9200439453125,170.9490966796875,94.8160400390625C172.0531005859375,93.7120361328125,173.6131591796875,93.1600341796875,175.6287841796875,93.1600341796875C177.6927490234375,93.1600341796875,179.2525634765625,93.7120361328125,180.3084716796875,94.8160400390625C181.4124755859375,95.9200439453125,181.9642333984375,97.5040283203125,181.9642333984375,99.5679931640625L181.9642333984375,103.7440185546875L181.1722412109375,100.21600341796875C181.8443603515625,98.0560302734375,183.2362060546875,96.3280029296875,185.3480224609375,95.031982421875C187.5079345703125,93.68798828125,189.9556884765625,93.0159912109375,192.6915283203125,93.0159912109375C195.7630615234375,93.0159912109375,198.4510498046875,93.760009765625,200.7547607421875,95.24798583984375C203.1065673828125,96.7359619140625,204.9305419921875,98.8480224609375,206.2264404296875,101.583984375C207.5223388671875,104.32000732421875,208.1702880859375,107.63201904296875,208.1702880859375,111.52001953125C208.1702880859375,115.31201171875,207.5223388671875,118.5999755859375,206.2264404296875,121.384033203125C204.9305419921875,124.16796875,203.1065673828125,126.30401611328125,200.7547607421875,127.79198455810547C198.4510498046875,129.280029296875,195.7630615234375,130.02398681640625,192.6915283203125,130.02398681640625C190.0516357421875,130.02398681640625,187.6759033203125,129.4000244140625,185.5640869140625,128.1519775390625C183.4522705078125,126.90398406982422,182.0362548828125,125.27197265625,181.3162841796875,123.2559814453125L182.1802978515625,123.2559814453125L182.1802978515625,136.3599853515625C182.1802978515625,138.4720458984375,181.6043701171875,140.08001708984375,180.4525146484375,141.18402099609375C179.3485107421875,142.28802490234375,177.7645263671875,142.84002685546875,175.7008056640625,142.84002685546875L175.7008056640625,142.84002685546875M188.6597900390625,120.592041015625C189.9556884765625,120.592041015625,191.0836181640625,120.280029296875,192.0435791015625,119.656005859375C193.0513916015625,118.9840087890625,193.8433837890625,118,194.4193115234375,116.7039794921875C194.9952392578125,115.3599853515625,195.2830810546875,113.63201904296875,195.2830810546875,111.52001953125C195.2830810546875,108.30401611328125,194.6593017578125,106,193.4114990234375,104.6080322265625C192.1634521484375,103.16796875,190.5794677734375,102.447998046875,188.6597900390625,102.447998046875C187.3638916015625,102.447998046875,186.2120361328125,102.760009765625,185.2039794921875,103.384033203125C184.1961669921875,104.00799560546875,183.4041748046875,104.99200439453125,182.8282470703125,106.33599853515625C182.2523193359375,107.63201904296875,181.9642333984375,109.3599853515625,181.9642333984375,111.52001953125C181.9642333984375,114.68798828125,182.5882568359375,116.99200439453125,183.8363037109375,118.4320068359375C185.0841064453125,119.87200927734375,186.6920166015625,120.592041015625,188.6597900390625,120.592041015625L188.6597900390625,120.592041015625M220.3372802734375,129.8800048828125C218.3214111328125,129.8800048828125,216.7615966796875,129.3280029296875,215.6575927734375,128.2239990234375C214.5538330078125,127.11998748779297,214.0018310546875,125.51202392578125,214.0018310546875,123.4000244140625L214.0018310546875,99.5679931640625C214.0018310546875,97.5040283203125,214.5296630859375,95.9200439453125,215.5858154296875,94.8160400390625C216.6895751953125,93.7120361328125,218.2493896484375,93.1600341796875,220.2652587890625,93.1600341796875C222.2811279296875,93.1600341796875,223.8170166015625,93.7120361328125,224.8729248046875,94.8160400390625C225.9288330078125,95.9200439453125,226.4569091796875,97.5040283203125,226.4569091796875,99.5679931640625L226.4569091796875,102.9520263671875L225.6649169921875,100C226.8167724609375,97.7440185546875,228.4486083984375,96.0159912109375,230.5604248046875,94.8160400390625C232.7203369140625,93.615966796875,235.1680908203125,93.0159912109375,237.9039306640625,93.0159912109375C240.7357177734375,93.0159912109375,243.0633544921875,93.5679931640625,244.8873291015625,94.6719970703125C246.7113037109375,95.72802734375,248.0789794921875,97.40802001953125,248.9910888671875,99.7120361328125C249.9029541015625,101.968017578125,250.3587646484375,104.823974609375,250.3587646484375,108.280029296875L250.3587646484375,123.4000244140625C250.3587646484375,125.51202392578125,249.8070068359375,127.11998748779297,248.7030029296875,128.2239990234375C247.5989990234375,129.3280029296875,246.0152587890625,129.8800048828125,243.9515380859375,129.8800048828125C241.8875732421875,129.8800048828125,240.3035888671875,129.3280029296875,239.1998291015625,128.2239990234375C238.0958251953125,127.11998748779297,237.5438232421875,125.51202392578125,237.5438232421875,123.4000244140625L237.5438232421875,108.78399658203125C237.5438232421875,106.6240234375,237.1600341796875,105.0880126953125,236.3919677734375,104.176025390625C235.6719970703125,103.2640380859375,234.5921630859375,102.8079833984375,233.1522216796875,102.8079833984375C231.2322998046875,102.8079833984375,229.6966552734375,103.4320068359375,228.5445556640625,104.67999267578125C227.3927001953125,105.8800048828125,226.8167724609375,107.511962890625,226.8167724609375,109.57598876953125L226.8167724609375,123.4000244140625C226.8167724609375,127.71996307373047,224.6571044921875,129.8800048828125,220.3372802734375,129.8800048828125L220.3372802734375,129.8800048828125" style="font-weight: 900; font-size: 72px; font-family: Nunito; dominant-baseline: ideographic; white-space: pre; fill: rgb(77, 70, 67); fill-opacity: 1;"/></g></g><g id="shape-b1712094-cced-80d3-8007-9be09c53a47a"><g class="frame-container-wrapper"><g class="frame-container-blur"><g class="frame-container-shadows"><g fill="none"><g class="fills" id="fills-b1712094-cced-80d3-8007-9be09c53a47a"><rect width="103" height="83" class="frame-background" x="254.35885620117193" transform="matrix(1.000000, 0.000000, 0.000000, 1.000000, 0.000000, 0.000000)" style="fill: rgb(234, 91, 12); fill-opacity: 1;" ry="16" rx="16" y="63"/></g><g class="frame-children"><g id="shape-4a085bf9-ae80-80da-8007-ae90d1d640c0"><g class="fills" id="fills-4a085bf9-ae80-80da-8007-ae90d1d640c0"><path d="M271.61541748046875,130.35447692871094C269.50164794921875,130.35447692871094,267.96405029296875,129.8763427734375,267.00311279296875,128.9199981689453C266.09027099609375,127.91586303710938,265.63372802734375,126.45748138427734,265.63372802734375,124.5447998046875C265.63372802734375,123.20594787597656,265.92205810546875,122.01058959960938,266.49871826171875,120.9586181640625C267.12347412109375,119.90669250488281,267.91619873046875,118.87860107421875,268.87689208984375,117.87452697753906L281.48870849609375,104.74899291992188C283.36248779296875,102.74072265625,284.68377685546875,101.01931762695312,285.45233154296875,99.58482360839844C286.26922607421875,98.15034484863281,286.67767333984375,96.71585083007812,286.67767333984375,95.2813720703125C286.67767333984375,93.46438598632812,286.07708740234375,92.10159301757812,284.87591552734375,91.19308471679688C283.67474365234375,90.28460693359375,281.94525146484375,89.83035278320312,279.68695068359375,89.83035278320312C278.53411865234375,89.83035278320312,277.30877685546875,89.99774169921875,276.01165771484375,90.3323974609375C274.71453857421875,90.61930847167969,273.32098388671875,91.14529418945312,271.83172607421875,91.91036987304688C270.53436279296875,92.48414611816406,269.35736083984375,92.65147399902344,268.30023193359375,92.41239929199219C267.29144287109375,92.17333984375,266.42645263671875,91.64739990234375,265.70599365234375,90.83448791503906C265.03314208984375,90.02163696289062,264.60101318359375,89.08918762207031,264.40863037109375,88.03726196289062C264.26458740234375,86.98527526855469,264.43255615234375,85.95724487304688,264.91326904296875,84.953125C265.39373779296875,83.90118408203125,266.25823974609375,83.04049682617188,267.50750732421875,82.37106323242188C269.71771240234375,81.1756591796875,271.99969482421875,80.31494140625,274.35394287109375,79.78895568847656C276.75628662109375,79.26303100585938,279.15863037109375,79,281.56072998046875,79C285.50042724609375,79,288.79168701171875,79.57383728027344,291.43402099609375,80.72140502929688C294.12469482421875,81.86897277832031,296.16668701171875,83.54252624511719,297.55975341796875,85.7420654296875C298.95306396484375,87.89376831054688,299.64984130859375,90.57151794433594,299.64984130859375,93.77520751953125C299.64984130859375,95.78347778320312,299.33758544921875,97.74394226074219,298.71282958984375,99.65657043457031C298.13641357421875,101.56919860839844,297.17547607421875,103.48188781738281,295.83001708984375,105.39445495605469C294.53289794921875,107.30714416503906,292.77947998046875,109.33929443359375,290.56927490234375,111.49099731445312L278.89422607421875,122.96688842773438L278.89422607421875,119.66755676269531L296.69525146484375,119.66755676269531C298.47259521484375,119.66755676269531,299.81805419921875,120.12185668945312,300.73065185546875,121.03036499023438C301.69183349609375,121.9388427734375,302.17230224609375,123.25379943847656,302.17230224609375,124.97514343261719C302.17230224609375,126.69654846191406,301.69183349609375,128.035400390625,300.73065185546875,128.9917449951172C299.81805419921875,129.90023803710938,298.47259521484375,130.35447692871094,296.69525146484375,130.35447692871094ZM333.73797607421875,131C331.72015380859375,131,330.13446044921875,130.4501190185547,328.98138427734375,129.350341796875C327.87640380859375,128.25057983398438,327.32391357421875,126.62480926513672,327.32391357421875,124.47311401367188L327.32391357421875,121.89105224609375L312.83831787109375,121.89105224609375C310.72430419921875,121.89105224609375,309.06658935546875,121.41291809082031,307.86566162109375,120.45651245117188C306.71234130859375,119.50022888183594,306.13592529296875,118.04185485839844,306.13592529296875,116.08137512207031C306.13592529296875,114.93380737304688,306.35223388671875,113.83404541015625,306.78460693359375,112.78204345703125C307.21697998046875,111.68228149414062,307.98553466796875,110.36738586425781,309.09051513671875,108.83726501464844L326.67523193359375,83.30345153808594C327.63616943359375,81.86897277832031,328.71722412109375,80.81698608398438,329.91839599609375,80.14756774902344C331.11932373046875,79.4781494140625,332.53680419921875,79.14349365234375,334.17034912109375,79.14349365234375C335.99603271484375,79.14349365234375,337.43743896484375,79.69337463378906,338.49432373046875,80.79315185546875C339.55145263671875,81.84507751464844,340.07977294921875,83.47084045410156,340.07977294921875,85.67037963867188L340.07977294921875,111.92135620117188L341.80950927734375,111.92135620117188C343.63543701171875,111.92135620117188,345.00457763671875,112.35169982910156,345.91717529296875,113.21240234375C346.87811279296875,114.07310485839844,347.35858154296875,115.29241943359375,347.35858154296875,116.87033081054688C347.35858154296875,118.49609375,346.87811279296875,119.73930358886719,345.91717529296875,120.60000610351562C345.00457763671875,121.46070861816406,343.63543701171875,121.89105224609375,341.80950927734375,121.89105224609375L340.07977294921875,121.89105224609375L340.07977294921875,124.47311401367188C340.07977294921875,126.57701873779297,339.52752685546875,128.20278930664062,338.42254638671875,129.350341796875C337.36541748046875,130.4501190185547,335.80364990234375,131,333.73797607421875,131ZM327.32391357421875,111.92135620117188L327.32391357421875,94.9945068359375L329.34173583984375,94.9945068359375L315.79290771484375,115.00555419921875L315.79290771484375,111.92135620117188Z" style="font-weight: 900; font-size: 72px; font-family: Nunito; dominant-baseline: ideographic; white-space: pre; fill: rgb(246, 245, 244);"/></g></g></g></g></g></g></g></g><g id="shape-4a085bf9-ae80-80da-8007-ae90ba98dd1b"><g class="fills" id="fills-4a085bf9-ae80-80da-8007-ae90ba98dd1b"><path d="M368.4347229003906,130.1414031982422C366.268798828125,130.1414031982422,364.5357666015625,129.49588012695312,363.23614501953125,128.20481872558594C361.9844665527344,126.91382598876953,361.35888671875,125.21631622314453,361.35888671875,123.1124038696289C361.35888671875,121.05635070800781,361.9844665527344,119.40669250488281,363.23614501953125,118.16342163085938C364.5357666015625,116.87242889404297,366.268798828125,116.2269058227539,368.4347229003906,116.2269058227539C370.6973571777344,116.2269058227539,372.4301452636719,116.87242889404297,373.6335754394531,118.16342163085938C374.8849792480469,119.40669250488281,375.51080322265625,121.05635070800781,375.51080322265625,123.1124038696289C375.51080322265625,125.21631622314453,374.8849792480469,126.91382598876953,373.6335754394531,128.20481872558594C372.4301452636719,129.49588012695312,370.6973571777344,130.1414031982422,368.4347229003906,130.1414031982422ZM394.941650390625,130.5C391.90924072265625,130.5,389.21343994140625,129.75885009765625,386.8548583984375,128.2765655517578C384.5442199707031,126.7942886352539,382.7152099609375,124.66642761230469,381.3670654296875,121.89309692382812C380.06744384765625,119.11976623535156,379.4176025390625,115.8443374633789,379.4176025390625,112.06687927246094C379.4176025390625,108.19383239746094,380.06744384765625,104.89451599121094,381.3670654296875,102.16897583007812C382.7152099609375,99.44343566894531,384.5442199707031,97.33952331542969,386.8548583984375,95.85725402832031C389.21343994140625,94.37490844726562,391.90924072265625,93.63380432128906,394.941650390625,93.63380432128906C397.5892028808594,93.63380432128906,399.9720458984375,94.25538635253906,402.0899658203125,95.49864196777344C404.2079162597656,96.74185180664062,405.6280212402344,98.34365844726562,406.349853515625,100.30413818359375L405.5555419921875,100.30413818359375L405.5555419921875,84.95521545410156C405.5555419921875,82.85124206542969,406.1094055175781,81.24943542480469,407.21636962890625,80.149658203125C408.32354736328125,79.04988098144531,409.911865234375,78.5,411.9818115234375,78.5C414.0037841796875,78.5,415.5678405761719,79.04988098144531,416.675048828125,80.149658203125C417.8304748535156,81.24943542480469,418.4080810546875,82.85124206542969,418.4080810546875,84.95521545410156L418.4080810546875,123.9013671875C418.4080810546875,126.0052719116211,417.8544921875,127.60713958740234,416.7475280761719,128.7069091796875C415.6883239746094,129.80670166015625,414.1239929199219,130.35650634765625,412.0540466308594,130.35650634765625C410.0323486328125,130.35650634765625,408.468017578125,129.80670166015625,407.3608093261719,128.7069091796875C406.25360107421875,127.60713958740234,405.70001220703125,126.0052719116211,405.70001220703125,123.9013671875L405.70001220703125,119.8130874633789L406.4942932128906,123.32758331298828C405.82049560546875,125.47927856445312,404.4003601074219,127.22457885742188,402.23443603515625,128.5634765625C400.11627197265625,129.85447692871094,397.6854248046875,130.5,394.941650390625,130.5ZM399.05731201171875,121.10414123535156C400.3569641113281,121.10414123535156,401.51214599609375,120.79331970214844,402.52313232421875,120.17169189453125C403.5340881347656,119.50226593017578,404.30413818359375,118.52203369140625,404.833740234375,117.23103332519531C405.4113464355469,115.8921890258789,405.70001220703125,114.17084503173828,405.70001220703125,112.06687927246094C405.70001220703125,108.86325073242188,405.0741882324219,106.56800842285156,403.82275390625,105.18136596679688C402.57135009765625,103.74688720703125,400.9827880859375,103.02967834472656,399.05731201171875,103.02967834472656C397.7576599121094,103.02967834472656,396.60247802734375,103.34043884277344,395.59149169921875,103.96206665039062C394.58050537109375,104.58369445800781,393.7862243652344,105.56393432617188,393.2088623046875,106.90278625488281C392.63104248046875,108.19383239746094,392.34234619140625,109.91517639160156,392.34234619140625,112.06687927246094C392.34234619140625,115.22277069091797,392.96795654296875,117.51795959472656,394.2196044921875,118.95238494873047C395.47125244140625,120.38692474365234,397.0838317871094,121.10414123535156,399.05731201171875,121.10414123535156ZM445.19586181640625,130.5C440.863525390625,130.5,437.1090393066406,129.75885009765625,433.931884765625,128.2765655517578C430.80322265625,126.7464370727539,428.3963928222656,124.59474182128906,426.71160888671875,121.82135009765625C425.02679443359375,119.04808044433594,424.18450927734375,115.77265930175781,424.18450927734375,111.99519348144531C424.18450927734375,108.36116027832031,424.97882080078125,105.18136596679688,426.5673828125,102.45590209960938C428.20391845703125,99.68251037597656,430.4180908203125,97.53080749511719,433.2100830078125,96.00068664550781C436.0500793457031,94.42276000976562,439.27520751953125,93.63380432128906,442.8854675292969,93.63380432128906C445.53277587890625,93.63380432128906,447.9396057128906,94.06416320800781,450.10577392578125,94.9248046875C452.2719421386719,95.73771667480469,454.12518310546875,96.95703125,455.66552734375,98.58273315429688C457.20611572265625,100.16070556640625,458.3612976074219,102.07333374023438,459.13134765625,104.32066345214844C459.9498596191406,106.56800842285156,460.3587646484375,109.078369140625,460.3587646484375,111.85176086425781C460.3587646484375,112.80804443359375,460.0940856933594,113.52526092529297,459.564453125,114.00345611572266C459.03509521484375,114.4338150024414,458.1928405761719,114.64898681640625,457.03741455078125,114.64898681640625L434.94287109375,114.64898681640625L434.94287109375,108.62413024902344L450.9722900390625,108.62413024902344L449.8171081542969,109.5565185546875C449.8171081542969,107.78738403320312,449.576171875,106.35289001464844,449.09478759765625,105.25311279296875C448.6134338378906,104.15335083007812,447.8916015625,103.31654357910156,446.92889404296875,102.74275207519531C446.0141296386719,102.16897583007812,444.85894775390625,101.88204956054688,443.46307373046875,101.88204956054688C441.9707336425781,101.88204956054688,440.67108154296875,102.24066162109375,439.5638732910156,102.95793151855469C438.5051574707031,103.62734985351562,437.6868896484375,104.63148498535156,437.1090393066406,105.9703369140625C436.53143310546875,107.30917358398438,436.2427673339844,108.9827880859375,436.2427673339844,110.99105834960938L436.2427673339844,111.63652038574219C436.2427673339844,115.03148651123047,436.98858642578125,117.47010803222656,438.4809265136719,118.95238494873047C440.021240234375,120.38692474365234,442.380126953125,121.10414123535156,445.5570068359375,121.10414123535156C446.615966796875,121.10414123535156,447.81939697265625,120.98460388183594,449.16729736328125,120.74553680419922C450.56317138671875,120.45861053466797,451.88702392578125,120.07611083984375,453.1384582519531,119.59796905517578C454.389892578125,119.11976623535156,455.47308349609375,119.04808044433594,456.3875732421875,119.38273620605469C457.30206298828125,119.6696548461914,458.0001525878906,120.19564819335938,458.48150634765625,120.96070861816406C459.0111083984375,121.67792510986328,459.300048828125,122.51473236083984,459.3480224609375,123.47101593017578C459.3960266113281,124.37950897216797,459.1795654296875,125.2880630493164,458.6982116699219,126.1965560913086C458.21685791015625,127.05725860595703,457.42254638671875,127.72667694091797,456.31536865234375,128.20481872558594C454.63079833984375,128.96987915039062,452.8255615234375,129.54367065429688,450.9000549316406,129.9262237548828C449.0228271484375,130.3087158203125,447.121337890625,130.5,445.19586181640625,130.5Z" style="font-weight: 900; font-size: 72px; font-family: Nunito; dominant-baseline: ideographic; white-space: pre; fill: rgb(77, 70, 67); fill-opacity: 1;"/></g></g></g></g></g></g></g></g></g></g></g></g></g></g></svg>