<svg width="350" xmlns="http://www.w3.org/2000/svg" height="312" id="screenshot-b1712094-cced-80d3-8007-9bf00c754249" viewBox="-0 -0 350 312" xmlns:xlink="http://www.w3.org/1999/xlink" fill="none" version="1.1"><g id="shape-b1712094-cced-80d3-8007-9bf00c754249"><g class="frame-container-wrapper"><g class="frame-container-blur"><g class="frame-container-shadows"><g fill="none"><g class="fills" id="fills-b1712094-cced-80d3-8007-9bf00c754249"><rect rx="0" ry="0" x="0" y="0" width="350" height="312" transform="matrix(1.000000, 0.000000, 0.000000, 1.000000, 0.000000, 0.000000)" class="frame-background"/></g><g class="frame-children"><g id="shape-b1712094-cced-80d3-8007-9be8cc21d664"><g class="frame-container-wrapper"><g class="frame-container-blur"><g class="frame-container-shadows"><g fill="none"><g class="fills" id="fills-b1712094-cced-80d3-8007-9be8cc21d664"><rect rx="0" ry="0" x="0.5" y="225" width="337.71771240234375" height="83" transform="matrix(1.000000, 0.000000, 0.000000, 1.000000, 0.000000, 0.000000)" class="frame-background"/></g><g class="frame-children"><g id="shape-4a085bf9-ae80-80da-8007-ae905e359ff1"><g class="fills" id="fills-4a085bf9-ae80-80da-8007-ae905e359ff1"><path d="M19.722503662109375,304.9840087890625C17.082611083984375,304.9840087890625,14.610931396484375,304.7919921875,12.306976318359375,304.40802001953125C10.003265380859375,304.072021484375,8.011322021484375,303.5679931640625,6.331390380859375,302.89599609375C4.939788818359375,302.416015625,3.955657958984375,301.72003173828125,3.379730224609375,300.8079833984375C2.803802490234375,299.89599609375,2.539886474609375,298.93603515625,2.587738037109375,297.927978515625C2.635833740234375,296.91998291015625,2.899749755859375,296.00799560546875,3.379730224609375,295.1920166015625C3.907806396484375,294.3759765625,4.603607177734375,293.7760009765625,5.467620849609375,293.3919677734375C6.331390380859375,293.0560302734375,7.291351318359375,293.08001708984375,8.347503662109375,293.4639892578125C10.459320068359375,294.3280029296875,12.378997802734375,294.8800048828125,14.106781005859375,295.1199951171875C15.834808349609375,295.40802001953125,17.298675537109375,295.552001953125,18.498626708984375,295.552001953125C21.426361083984375,295.552001953125,23.610198974609375,294.927978515625,25.050140380859375,293.67999267578125C26.537933349609375,292.47998046875,27.281829833984375,290.583984375,27.281829833984375,287.99200439453125L27.281829833984375,283.45599365234375L27.857757568359375,283.45599365234375C27.137786865234375,285.47198486328125,25.673919677734375,287.12799072265625,23.466156005859375,288.42401123046875C21.258392333984375,289.6719970703125,18.858489990234375,290.2960205078125,16.266693115234375,290.2960205078125C13.098968505859375,290.2960205078125,10.339202880859375,289.57598876953125,7.987396240234375,288.135986328125C5.635589599609375,286.64801025390625,3.787689208984375,284.583984375,2.443695068359375,281.9439697265625C1.147796630859375,279.30401611328125,0.499847412109375,276.2080078125,0.499847412109375,272.656005859375C0.499847412109375,269.968017578125,0.884124755859375,267.54400634765625,1.651947021484375,265.384033203125C2.419769287109375,263.2239990234375,3.475921630859375,261.3759765625,4.819671630859375,259.8399658203125C6.211517333984375,258.30401611328125,7.867523193359375,257.12799072265625,9.787200927734375,256.31201171875C11.755218505859375,255.447998046875,13.914886474609375,255.0159912109375,16.266693115234375,255.0159912109375C18.954437255859375,255.0159912109375,21.354339599609375,255.6400146484375,23.466156005859375,256.88800048828125C25.625823974609375,258.135986328125,27.065765380859375,259.76800537109375,27.785736083984375,261.78399658203125L27.065765380859375,264.7359619140625L27.065765380859375,261.5679931640625C27.065765380859375,259.5040283203125,27.617767333984375,257.9200439453125,28.721771240234375,256.8160400390625C29.873626708984375,255.7120361328125,31.457366943359375,255.1600341796875,33.473480224609375,255.1600341796875C35.489105224609375,255.1600341796875,37.024993896484375,255.7120361328125,38.080902099609375,256.8160400390625C39.184906005859375,257.9200439453125,39.736907958984375,259.5040283203125,39.736907958984375,261.5679931640625L39.736907958984375,286.47998046875C39.736907958984375,292.6240234375,38.009124755859375,297.23199462890625,34.553314208984375,300.30401611328125C31.097503662109375,303.42401123046875,26.153900146484375,304.9840087890625,19.722503662109375,304.9840087890625L19.722503662109375,304.9840087890625M20.226409912109375,280.864013671875C21.666351318359375,280.864013671875,22.890228271484375,280.552001953125,23.898040771484375,279.927978515625C24.906097412109375,279.2559814453125,25.698089599609375,278.32000732421875,26.273773193359375,277.1199951171875C26.849945068359375,275.87200927734375,27.137786865234375,274.384033203125,27.137786865234375,272.656005859375C27.137786865234375,270.06396484375,26.514007568359375,268.0479736328125,25.265960693359375,266.6080322265625C24.018157958984375,265.16796875,22.338226318359375,264.447998046875,20.226409912109375,264.447998046875C18.882659912109375,264.447998046875,17.682464599609375,264.78399658203125,16.626800537109375,265.45599365234375C15.570648193359375,266.08001708984375,14.754730224609375,267.0159912109375,14.179046630859375,268.2640380859375C13.650970458984375,269.4639892578125,13.387054443359375,270.927978515625,13.387054443359375,272.656005859375C13.387054443359375,275.24798583984375,14.010833740234375,277.2640380859375,15.258880615234375,278.7039794921875C16.506683349609375,280.14404296875,18.162445068359375,280.864013671875,20.226409912109375,280.864013671875L20.226409912109375,280.864013671875M53.559661865234375,304.84002685546875C51.543792724609375,304.84002685546875,49.983978271484375,304.28802490234375,48.880218505859375,303.18402099609375C47.776214599609375,302.08001708984375,47.224212646484375,300.4720458984375,47.224212646484375,298.3599853515625L47.224212646484375,261.5679931640625C47.224212646484375,259.5040283203125,47.752288818359375,257.9200439453125,48.807952880859375,256.8160400390625C49.911956787109375,255.7120361328125,51.472015380859375,255.1600341796875,53.487640380859375,255.1600341796875C55.551605224609375,255.1600341796875,57.111419677734375,255.7120361328125,58.167327880859375,256.8160400390625C59.271331787109375,257.9200439453125,59.823089599609375,259.5040283203125,59.823089599609375,261.5679931640625L59.823089599609375,265.7440185546875L59.031097412109375,262.21600341796875C59.703216552734375,260.0560302734375,61.095062255859375,258.3280029296875,63.206878662109375,257.031982421875C65.36679077148438,255.68798828125,67.81454467773438,255.0159912109375,70.55038452148438,255.0159912109375C73.62191772460938,255.0159912109375,76.30990600585938,255.760009765625,78.61361694335938,257.24798583984375C80.96542358398438,258.7359619140625,82.78939819335938,260.8480224609375,84.08529663085938,263.583984375C85.38119506835938,266.32000732421875,86.02914428710938,269.63201904296875,86.02914428710938,273.52001953125C86.02914428710938,277.31201171875,85.38119506835938,280.5999755859375,84.08529663085938,283.384033203125C82.78939819335938,286.16796875,80.96542358398438,288.30401611328125,78.61361694335938,289.7919921875C76.30990600585938,291.280029296875,73.62191772460938,292.02398681640625,70.55038452148438,292.02398681640625C67.91049194335938,292.02398681640625,65.53475952148438,291.4000244140625,63.422943115234375,290.1519775390625C61.311126708984375,288.90399169921875,59.895111083984375,287.27197265625,59.175140380859375,285.2559814453125L60.039154052734375,285.2559814453125L60.039154052734375,298.3599853515625C60.039154052734375,300.4720458984375,59.463226318359375,302.08001708984375,58.311370849609375,303.18402099609375C57.207366943359375,304.28802490234375,55.623382568359375,304.84002685546875,53.559661865234375,304.84002685546875L53.559661865234375,304.84002685546875M66.51864624023438,282.592041015625C67.81454467773438,282.592041015625,68.94247436523438,282.280029296875,69.90243530273438,281.656005859375C70.91024780273438,280.9840087890625,71.70223999023438,280,72.27816772460938,278.7039794921875C72.85409545898438,277.3599853515625,73.14193725585938,275.63201904296875,73.14193725585938,273.52001953125C73.14193725585938,270.30401611328125,72.51815795898438,268,71.27035522460938,266.6080322265625C70.02230834960938,265.16796875,68.43832397460938,264.447998046875,66.51864624023438,264.447998046875C65.22274780273438,264.447998046875,64.07089233398438,264.760009765625,63.062835693359375,265.384033203125C62.055023193359375,266.00799560546875,61.263031005859375,266.99200439453125,60.687103271484375,268.33599853515625C60.111175537109375,269.63201904296875,59.823089599609375,271.3599853515625,59.823089599609375,273.52001953125C59.823089599609375,276.68798828125,60.447113037109375,278.99200439453125,61.695159912109375,280.4320068359375C62.942962646484375,281.87200927734375,64.55087280273438,282.592041015625,66.51864624023438,282.592041015625L66.51864624023438,282.592041015625M98.19613647460938,291.8800048828125C96.18026733398438,291.8800048828125,94.62045288085938,291.3280029296875,93.51644897460938,290.2239990234375C92.41268920898438,289.1199951171875,91.86068725585938,287.51202392578125,91.86068725585938,285.4000244140625L91.86068725585938,261.5679931640625C91.86068725585938,259.5040283203125,92.38851928710938,257.9200439453125,93.44467163085938,256.8160400390625C94.54843139648438,255.7120361328125,96.10824584960938,255.1600341796875,98.12411499023438,255.1600341796875C100.13998413085938,255.1600341796875,101.67587280273438,255.7120361328125,102.73178100585938,256.8160400390625C103.78768920898438,257.9200439453125,104.31576538085938,259.5040283203125,104.31576538085938,261.5679931640625L104.31576538085938,264.9520263671875L103.52377319335938,262C104.67562866210938,259.7440185546875,106.30746459960938,258.0159912109375,108.41928100585938,256.8160400390625C110.57919311523438,255.615966796875,113.02694702148438,255.0159912109375,115.76278686523438,255.0159912109375C118.59457397460938,255.0159912109375,120.92221069335938,255.5679931640625,122.74618530273438,256.6719970703125C124.57015991210938,257.72802734375,125.93783569335938,259.40802001953125,126.84994506835938,261.7120361328125C127.76181030273438,263.968017578125,128.21762084960938,266.823974609375,128.21762084960938,270.280029296875L128.21762084960938,285.4000244140625C128.21762084960938,287.51202392578125,127.66586303710938,289.1199951171875,126.56185913085938,290.2239990234375C125.45785522460938,291.3280029296875,123.87411499023438,291.8800048828125,121.81039428710938,291.8800048828125C119.74642944335938,291.8800048828125,118.16244506835938,291.3280029296875,117.05868530273438,290.2239990234375C115.95468139648438,289.1199951171875,115.40267944335938,287.51202392578125,115.40267944335938,285.4000244140625L115.40267944335938,270.78399658203125C115.40267944335938,268.6240234375,115.01889038085938,267.0880126953125,114.25082397460938,266.176025390625C113.53085327148438,265.2640380859375,112.45101928710938,264.8079833984375,111.01107788085938,264.8079833984375C109.09115600585938,264.8079833984375,107.55551147460938,265.4320068359375,106.40341186523438,266.67999267578125C105.25155639648438,267.8800048828125,104.67562866210938,269.511962890625,104.67562866210938,271.57598876953125L104.67562866210938,285.4000244140625C104.67562866210938,289.719970703125,102.51596069335938,291.8800048828125,98.19613647460938,291.8800048828125L98.19613647460938,291.8800048828125" style="font-weight: 900; font-size: 72px; font-family: Nunito; dominant-baseline: ideographic; white-space: pre; fill: rgb(77, 70, 67); fill-opacity: 1;"/></g></g><g id="shape-b1712094-cced-80d3-8007-9be8cc21d667"><g class="frame-container-wrapper"><g class="frame-container-blur"><g class="frame-container-shadows"><g fill="none"><g class="fills" id="fills-b1712094-cced-80d3-8007-9be8cc21d667"><rect width="103" height="83" class="frame-background" x="132.21771240234375" transform="matrix(1.000000, 0.000000, 0.000000, 1.000000, 0.000000, 0.000000)" style="fill: rgb(234, 91, 12); fill-opacity: 1;" ry="16" rx="16" y="225"/></g><g class="frame-children"><g id="shape-4a085bf9-ae80-80da-8007-ae90d1ecb910"><g class="fills" id="fills-4a085bf9-ae80-80da-8007-ae90d1ecb910"><path d="M149.47427368164062,292.3544921875C147.36050415039062,292.3544921875,145.82290649414062,291.8763427734375,144.86196899414062,290.91998291015625C143.94912719726562,289.9158935546875,143.49258422851562,288.45745849609375,143.49258422851562,286.5447998046875C143.49258422851562,285.2059326171875,143.78091430664062,284.0106201171875,144.35757446289062,282.9586181640625C144.98233032226562,281.90667724609375,145.77505493164062,280.87860107421875,146.73574829101562,279.87451171875L159.34756469726562,266.7490234375C161.22134399414062,264.74072265625,162.54263305664062,263.019287109375,163.31118774414062,261.5848388671875C164.12808227539062,260.15032958984375,164.53652954101562,258.7158203125,164.53652954101562,257.2813720703125C164.53652954101562,255.46435546875,163.93594360351562,254.1015625,162.73477172851562,253.193115234375C161.53359985351562,252.28460693359375,159.80410766601562,251.830322265625,157.54580688476562,251.830322265625C156.39297485351562,251.830322265625,155.16763305664062,251.99774169921875,153.87051391601562,252.3323974609375C152.57339477539062,252.61932373046875,151.17984008789062,253.145263671875,149.69058227539062,253.910400390625C148.39321899414062,254.484130859375,147.21621704101562,254.6514892578125,146.15908813476562,254.41241455078125C145.15029907226562,254.17333984375,144.28530883789062,253.64739990234375,143.56484985351562,252.83447265625C142.89199829101562,252.0216064453125,142.45986938476562,251.08917236328125,142.26748657226562,250.0372314453125C142.12344360351562,248.98529052734375,142.29141235351562,247.957275390625,142.77212524414062,246.953125C143.25259399414062,245.90118408203125,144.11709594726562,245.04052734375,145.36636352539062,244.37109375C147.57656860351562,243.1756591796875,149.85855102539062,242.31494140625,152.21279907226562,241.7889404296875C154.61514282226562,241.2630615234375,157.01748657226562,241,159.41958618164062,241C163.35928344726562,241,166.65054321289062,241.5738525390625,169.29287719726562,242.721435546875C171.98355102539062,243.86895751953125,174.02554321289062,245.54254150390625,175.41860961914062,247.7420654296875C176.81192016601562,249.893798828125,177.50869750976562,252.571533203125,177.50869750976562,255.77520751953125C177.50869750976562,257.783447265625,177.19644165039062,259.74395751953125,176.57168579101562,261.65655517578125C175.99526977539062,263.5692138671875,175.03433227539062,265.48187255859375,173.68887329101562,267.39447021484375C172.39175415039062,269.30712890625,170.63833618164062,271.33929443359375,168.42813110351562,273.490966796875L156.75308227539062,284.9669189453125L156.75308227539062,281.66754150390625L174.55410766601562,281.66754150390625C176.33145141601562,281.66754150390625,177.67691040039062,282.121826171875,178.58950805664062,283.0303955078125C179.55068969726562,283.9388427734375,180.03115844726562,285.2537841796875,180.03115844726562,286.97515869140625C180.03115844726562,288.696533203125,179.55068969726562,290.035400390625,178.58950805664062,290.99176025390625C177.67691040039062,291.9002685546875,176.33145141601562,292.3544921875,174.55410766601562,292.3544921875ZM211.59683227539062,293C209.57901000976562,293,207.99331665039062,292.45013427734375,206.84024047851562,291.350341796875C205.73526000976562,290.25054931640625,205.18276977539062,288.62481689453125,205.18276977539062,286.47314453125L205.18276977539062,283.89105224609375L190.69717407226562,283.89105224609375C188.58316040039062,283.89105224609375,186.92544555664062,283.41290283203125,185.72451782226562,282.45654296875C184.57119750976562,281.500244140625,183.99478149414062,280.0418701171875,183.99478149414062,278.08135986328125C183.99478149414062,276.933837890625,184.21109008789062,275.83404541015625,184.64346313476562,274.78204345703125C185.07583618164062,273.6822509765625,185.84439086914062,272.36737060546875,186.94937133789062,270.8372802734375L204.53408813476562,245.303466796875C205.49502563476562,243.86895751953125,206.57608032226562,242.8170166015625,207.77725219726562,242.1475830078125C208.97817993164062,241.4781494140625,210.39566040039062,241.14349365234375,212.02920532226562,241.14349365234375C213.85488891601562,241.14349365234375,215.29629516601562,241.693359375,216.35317993164062,242.79315185546875C217.41030883789062,243.8450927734375,217.93862915039062,245.4708251953125,217.93862915039062,247.67041015625L217.93862915039062,273.92138671875L219.66836547851562,273.92138671875C221.49429321289062,273.92138671875,222.86343383789062,274.3516845703125,223.77603149414062,275.21240234375C224.73696899414062,276.0731201171875,225.21743774414062,277.29241943359375,225.21743774414062,278.870361328125C225.21743774414062,280.49609375,224.73696899414062,281.73931884765625,223.77603149414062,282.5999755859375C222.86343383789062,283.460693359375,221.49429321289062,283.89105224609375,219.66836547851562,283.89105224609375L217.93862915039062,283.89105224609375L217.93862915039062,286.47314453125C217.93862915039062,288.5770263671875,217.38638305664062,290.2027587890625,216.28140258789062,291.350341796875C215.22427368164062,292.45013427734375,213.66250610351562,293,211.59683227539062,293ZM205.18276977539062,273.92138671875L205.18276977539062,256.9945068359375L207.20059204101562,256.9945068359375L193.65176391601562,277.00555419921875L193.65176391601562,273.92138671875Z" style="font-weight: 900; font-size: 72px; font-family: Nunito; dominant-baseline: ideographic; white-space: pre; fill: rgb(246, 245, 244);"/></g></g></g></g></g></g></g></g><g id="shape-4a085bf9-ae80-80da-8007-ae90bd27174b"><g class="fills" id="fills-4a085bf9-ae80-80da-8007-ae90bd27174b"><path d="M246.2935791015625,292.14141845703125C244.12765502929688,292.14141845703125,242.39463806152344,291.495849609375,241.09498596191406,290.204833984375C239.84332275390625,288.913818359375,239.21774291992188,287.21630859375,239.21774291992188,285.1124267578125C239.21774291992188,283.05633544921875,239.84332275390625,281.40667724609375,241.09498596191406,280.1634521484375C242.39463806152344,278.8724365234375,244.12765502929688,278.2269287109375,246.2935791015625,278.2269287109375C248.55621337890625,278.2269287109375,250.28900146484375,278.8724365234375,251.492431640625,280.1634521484375C252.74383544921875,281.40667724609375,253.3696746826172,283.05633544921875,253.3696746826172,285.1124267578125C253.3696746826172,287.21630859375,252.74383544921875,288.913818359375,251.492431640625,290.204833984375C250.28900146484375,291.495849609375,248.55621337890625,292.14141845703125,246.2935791015625,292.14141845703125ZM272.8005065917969,292.5C269.76806640625,292.5,267.0722961425781,291.75885009765625,264.71368408203125,290.27655029296875C262.403076171875,288.7943115234375,260.5740661621094,286.66644287109375,259.2259216308594,283.89306640625C257.92626953125,281.1197509765625,257.2764587402344,277.8443603515625,257.2764587402344,274.06689453125C257.2764587402344,270.19384765625,257.92626953125,266.89453125,259.2259216308594,264.1689453125C260.5740661621094,261.44342041015625,262.403076171875,259.33953857421875,264.71368408203125,257.85723876953125C267.0722961425781,256.3748779296875,269.76806640625,255.6337890625,272.8005065917969,255.6337890625C275.44805908203125,255.6337890625,277.8309020996094,256.25537109375,279.9488220214844,257.4986572265625C282.0667724609375,258.7418212890625,283.48687744140625,260.3436279296875,284.20867919921875,262.30413818359375L283.4143981933594,262.30413818359375L283.4143981933594,246.9552001953125C283.4143981933594,244.85125732421875,283.96826171875,243.24945068359375,285.0751953125,242.149658203125C286.1824035644531,241.04986572265625,287.7707214355469,240.5,289.8406677246094,240.5C291.86260986328125,240.5,293.42669677734375,241.04986572265625,294.5339050292969,242.149658203125C295.6893310546875,243.24945068359375,296.2669372558594,244.85125732421875,296.2669372558594,246.9552001953125L296.2669372558594,285.9013671875C296.2669372558594,288.0052490234375,295.71331787109375,289.60711669921875,294.60638427734375,290.7069091796875C293.54718017578125,291.80670166015625,291.98284912109375,292.35650634765625,289.91290283203125,292.35650634765625C287.8912048339844,292.35650634765625,286.3268737792969,291.80670166015625,285.21966552734375,290.7069091796875C284.1124572753906,289.60711669921875,283.5588684082031,288.0052490234375,283.5588684082031,285.9013671875L283.5588684082031,281.8131103515625L284.3531494140625,285.32757568359375C283.6793212890625,287.479248046875,282.25921630859375,289.224609375,280.0932922363281,290.5634765625C277.9751281738281,291.8544921875,275.5442810058594,292.5,272.8005065917969,292.5ZM276.9161682128906,283.1041259765625C278.2158203125,283.1041259765625,279.3710021972656,282.7933349609375,280.3819580078125,282.17169189453125C281.3929443359375,281.50225830078125,282.1629943847656,280.52203369140625,282.6925964355469,279.23101806640625C283.27020263671875,277.8922119140625,283.5588684082031,276.17083740234375,283.5588684082031,274.06689453125C283.5588684082031,270.86328125,282.93304443359375,268.5679931640625,281.6816101074219,267.181396484375C280.4302062988281,265.74688720703125,278.8416442871094,265.0296630859375,276.9161682128906,265.0296630859375C275.61651611328125,265.0296630859375,274.4613037109375,265.3404541015625,273.4503479003906,265.9620361328125C272.4393615722656,266.58367919921875,271.64508056640625,267.56396484375,271.0677185058594,268.90277099609375C270.4898986816406,270.19384765625,270.2012023925781,271.9151611328125,270.2012023925781,274.06689453125C270.2012023925781,277.2227783203125,270.8268127441406,279.5179443359375,272.0784606933594,280.952392578125C273.3301086425781,282.38690185546875,274.94268798828125,283.1041259765625,276.9161682128906,283.1041259765625ZM323.0546875,292.5C318.7223815917969,292.5,314.9678955078125,291.75885009765625,311.7907409667969,290.27655029296875C308.6620788574219,288.7464599609375,306.2552490234375,286.5947265625,304.5704345703125,283.82135009765625C302.8856506347656,281.048095703125,302.0433654785156,277.77264404296875,302.0433654785156,273.99517822265625C302.0433654785156,270.36114501953125,302.837646484375,267.181396484375,304.4262390136719,264.4559326171875C306.0627746582031,261.6824951171875,308.2769470214844,259.53082275390625,311.0689392089844,258.00067138671875C313.908935546875,256.4227294921875,317.1340637207031,255.6337890625,320.74432373046875,255.6337890625C323.3916015625,255.6337890625,325.7984619140625,256.06414794921875,327.9646301269531,256.9248046875C330.13079833984375,257.73773193359375,331.9840393066406,258.95703125,333.5243835449219,260.582763671875C335.06494140625,262.16070556640625,336.22015380859375,264.0733642578125,336.9902038574219,266.3206787109375C337.8087158203125,268.5679931640625,338.2176208496094,271.078369140625,338.2176208496094,273.85174560546875C338.2176208496094,274.80804443359375,337.95294189453125,275.5252685546875,337.4233093261719,276.00347900390625C336.8939514160156,276.433837890625,336.05169677734375,276.64898681640625,334.896240234375,276.64898681640625L312.8017272949219,276.64898681640625L312.8017272949219,270.6241455078125L328.8311462402344,270.6241455078125L327.67596435546875,271.5565185546875C327.67596435546875,269.787353515625,327.4350280761719,268.3529052734375,326.9536437988281,267.25311279296875C326.4722900390625,266.1533203125,325.7504577636719,265.3165283203125,324.7877197265625,264.74273681640625C323.87298583984375,264.1689453125,322.7178039550781,263.882080078125,321.3219299316406,263.882080078125C319.82958984375,263.882080078125,318.5299377441406,264.24066162109375,317.4227294921875,264.95794677734375C316.364013671875,265.6273193359375,315.54571533203125,266.6314697265625,314.9678955078125,267.9703369140625C314.3902893066406,269.3092041015625,314.10162353515625,270.9827880859375,314.10162353515625,272.9910888671875L314.10162353515625,273.63653564453125C314.10162353515625,277.031494140625,314.847412109375,279.4700927734375,316.33978271484375,280.952392578125C317.8800964355469,282.38690185546875,320.23895263671875,283.1041259765625,323.4158630371094,283.1041259765625C324.4748229980469,283.1041259765625,325.6782531738281,282.984619140625,327.026123046875,282.74554443359375C328.4219970703125,282.4586181640625,329.7458801269531,282.07611083984375,330.997314453125,281.59796142578125C332.24871826171875,281.1197509765625,333.3319091796875,281.048095703125,334.2464294433594,281.38275146484375C335.1609191894531,281.669677734375,335.8590087890625,282.1956787109375,336.3403625488281,282.960693359375C336.8699645996094,283.67791748046875,337.15887451171875,284.51470947265625,337.2068786621094,285.47100830078125C337.2548828125,286.3795166015625,337.0384216308594,287.2880859375,336.55706787109375,288.196533203125C336.07568359375,289.0572509765625,335.2814025878906,289.7266845703125,334.1741943359375,290.204833984375C332.4896545410156,290.9698486328125,330.68438720703125,291.54364013671875,328.7589111328125,291.92620849609375C326.88165283203125,292.3087158203125,324.9801940917969,292.5,323.0546875,292.5Z" style="font-weight: 900; font-size: 72px; font-family: Nunito; dominant-baseline: ideographic; white-space: pre; fill: rgb(77, 70, 67); fill-opacity: 1;"/></g></g></g></g></g></g></g></g><g id="shape-b1712094-cced-80d3-8007-9be8cc21d665"><g class="frame-container-wrapper"><g class="frame-container-blur"><g class="frame-container-shadows"><g fill="none"><g class="fills" id="fills-b1712094-cced-80d3-8007-9be8cc21d665"><rect rx="0" ry="0" x="0" y="0" width="350" height="192.9999999999999" transform="matrix(1.000000, 0.000000, 0.000000, 1.000000, 0.000000, 0.000000)" class="frame-background"/></g><g class="frame-children"><g id="shape-b1712094-cced-80d3-8007-9be8cc21d66a" rx="0" ry="0" style="fill: rgb(0, 0, 0);"><g id="shape-b1712094-cced-80d3-8007-9be8cc21d66b"><g class="fills" id="fills-b1712094-cced-80d3-8007-9be8cc21d66b"><path d="M167.39707946777344,114.20184326171875C170.53309631347656,158.51220703125,207.8256072998047,192.90487670898438,252.8387451171875,192.9998779296875C286.1222229003906,192.93002319335938,316.3642883300781,173.87930297851562,330.4384460449219,144.11660766601562C312.7238464355469,166.52328491210938,285.5380554199219,179.63018798828125,256.7385559082031,179.64889526367188C215.618408203125,179.57901000976562,179.3652801513672,153.02175903320312,167.39707946777344,114.20184326171875Z" style="stroke-width: 0.668315; fill: rgb(234, 91, 12); fill-opacity: 1;"/></g></g><g id="shape-b1712094-cced-80d3-8007-9be8cc21d66c"><g class="fills" id="fills-b1712094-cced-80d3-8007-9be8cc21d66c"><path d="M252.8387451171875,23.601104736328125C220.4453582763672,23.676483154296875,190.85414123535156,41.741302490234375,176.32510375976562,70.31106567382812C194.04910278320312,48.542724609375,220.80567932128906,35.860595703125,249.1037139892578,35.8154296875C289.875244140625,35.895904541015625,325.8988342285156,62.022918701171875,338.1477966308594,100.3970947265625C334.0194396972656,56.92803955078125,297.0830383300781,23.677490234375,252.8387451171875,23.601104736328125Z" style="stroke-width: 0.668315; fill: rgb(234, 91, 12); fill-opacity: 1;"/></g></g><g id="shape-b1712094-cced-80d3-8007-9be8cc21d66d"><g class="fills" id="fills-b1712094-cced-80d3-8007-9be8cc21d66d"><path d="M-0.00006103515625,0.06353759765625C177.7498321533203,32.05645751953125,137.18865966796875,139.29608154296875,267.59259033203125,143.5689697265625C322.97845458984375,143.5689697265625,344.03399658203125,119.23138427734375,349.9683532714844,108.37619018554688C351.1507263183594,106.2135009765625,318.8367004394531,130.11309814453125,268.74810791015625,129.41885375976562C263.98834228515625,129.41885375976562,259.43603515625,129.21633911132812,255.07264709472656,128.8272705078125C147.73231506347656,119.2569580078125,154.6920623779297,-3.18572998046875,-0.00006103515625,0.06353759765625L-0.00006103515625,0.06353759765625L-0.00006103515625,0.06353759765625" style="stroke-width: 0.942867; fill: rgb(77, 70, 67); fill-opacity: 1;"/></g></g></g></g></g></g></g></g></g></g></g></g></g></g></g></svg>