<svg width="350" xmlns="http://www.w3.org/2000/svg" height="308" id="screenshot-8c5cf91c-312f-80ca-8007-b44862d2ad46" viewBox="-0 -0 350 308" xmlns:xlink="http://www.w3.org/1999/xlink" fill="none" version="1.1"><g id="shape-8c5cf91c-312f-80ca-8007-b44862d2ad46" rx="0" ry="0"><g id="shape-b1712094-cced-80d3-8007-9be900bcd865"><g class="frame-container-wrapper"><g class="frame-container-blur"><g class="frame-container-shadows"><g fill="none"><g class="fills" id="fills-b1712094-cced-80d3-8007-9be900bcd865"><rect rx="0" ry="0" x="6.141143798828239" y="225" width="337.7177124023437" height="83" transform="matrix(1.000000, 0.000000, 0.000000, 1.000000, 0.000000, 0.000000)" class="frame-background"/></g><g class="frame-children"><g id="shape-4a085bf9-ae80-80da-8007-ae905e31050f"><g class="fills" id="fills-4a085bf9-ae80-80da-8007-ae905e31050f"><path d="M25.3636474609375,304.9840087890625C22.7237548828125,304.9840087890625,20.2520751953125,304.7919921875,17.9481201171875,304.40802001953125C15.6444091796875,304.072021484375,13.6524658203125,303.5679931640625,11.9725341796875,302.89599609375C10.5809326171875,302.416015625,9.5968017578125,301.72003173828125,9.0208740234375,300.8079833984375C8.4449462890625,299.89599609375,8.1810302734375,298.93603515625,8.2288818359375,297.927978515625C8.2769775390625,296.91998291015625,8.5408935546875,296.00799560546875,9.0208740234375,295.1920166015625C9.5489501953125,294.3759765625,10.2447509765625,293.7760009765625,11.1087646484375,293.3919677734375C11.9725341796875,293.0560302734375,12.9324951171875,293.08001708984375,13.9886474609375,293.4639892578125C16.1004638671875,294.3280029296875,18.0201416015625,294.8800048828125,19.7479248046875,295.1199951171875C21.4759521484375,295.40802001953125,22.9398193359375,295.552001953125,24.1397705078125,295.552001953125C27.0675048828125,295.552001953125,29.2513427734375,294.927978515625,30.6912841796875,293.67999267578125C32.1790771484375,292.47998046875,32.9229736328125,290.583984375,32.9229736328125,287.99200439453125L32.9229736328125,283.45599365234375L33.4989013671875,283.45599365234375C32.7789306640625,285.47198486328125,31.3150634765625,287.12799072265625,29.1072998046875,288.42401123046875C26.8995361328125,289.6719970703125,24.4996337890625,290.2960205078125,21.9078369140625,290.2960205078125C18.7401123046875,290.2960205078125,15.9803466796875,289.57598876953125,13.6285400390625,288.135986328125C11.2767333984375,286.64801025390625,9.4288330078125,284.583984375,8.0848388671875,281.9439697265625C6.7889404296875,279.30401611328125,6.1409912109375,276.2080078125,6.1409912109375,272.656005859375C6.1409912109375,269.968017578125,6.5252685546875,267.54400634765625,7.2930908203125,265.384033203125C8.0609130859375,263.2239990234375,9.1170654296875,261.3759765625,10.4608154296875,259.8399658203125C11.8526611328125,258.30401611328125,13.5086669921875,257.12799072265625,15.4283447265625,256.31201171875C17.3963623046875,255.447998046875,19.5560302734375,255.0159912109375,21.9078369140625,255.0159912109375C24.5955810546875,255.0159912109375,26.9954833984375,255.6400146484375,29.1072998046875,256.88800048828125C31.2669677734375,258.135986328125,32.7069091796875,259.76800537109375,33.4268798828125,261.78399658203125L32.7069091796875,264.7359619140625L32.7069091796875,261.5679931640625C32.7069091796875,259.5040283203125,33.2589111328125,257.9200439453125,34.3629150390625,256.8160400390625C35.5147705078125,255.7120361328125,37.0985107421875,255.1600341796875,39.1146240234375,255.1600341796875C41.1302490234375,255.1600341796875,42.6661376953125,255.7120361328125,43.7220458984375,256.8160400390625C44.8260498046875,257.9200439453125,45.3780517578125,259.5040283203125,45.3780517578125,261.5679931640625L45.3780517578125,286.47998046875C45.3780517578125,292.6240234375,43.6502685546875,297.23199462890625,40.1944580078125,300.30401611328125C36.7386474609375,303.42401123046875,31.7950439453125,304.9840087890625,25.3636474609375,304.9840087890625L25.3636474609375,304.9840087890625M25.8675537109375,280.864013671875C27.3074951171875,280.864013671875,28.5313720703125,280.552001953125,29.5391845703125,279.927978515625C30.5472412109375,279.2559814453125,31.3392333984375,278.32000732421875,31.9149169921875,277.1199951171875C32.4910888671875,275.87200927734375,32.7789306640625,274.384033203125,32.7789306640625,272.656005859375C32.7789306640625,270.06396484375,32.1551513671875,268.0479736328125,30.9071044921875,266.6080322265625C29.6593017578125,265.16796875,27.9793701171875,264.447998046875,25.8675537109375,264.447998046875C24.5238037109375,264.447998046875,23.3236083984375,264.78399658203125,22.2679443359375,265.45599365234375C21.2117919921875,266.08001708984375,20.3958740234375,267.0159912109375,19.8201904296875,268.2640380859375C19.2921142578125,269.4639892578125,19.0281982421875,270.927978515625,19.0281982421875,272.656005859375C19.0281982421875,275.24798583984375,19.6519775390625,277.2640380859375,20.9000244140625,278.7039794921875C22.1478271484375,280.14404296875,23.8035888671875,280.864013671875,25.8675537109375,280.864013671875L25.8675537109375,280.864013671875M59.2008056640625,304.84002685546875C57.1849365234375,304.84002685546875,55.6251220703125,304.28802490234375,54.5213623046875,303.18402099609375C53.4173583984375,302.08001708984375,52.8653564453125,300.4720458984375,52.8653564453125,298.3599853515625L52.8653564453125,261.5679931640625C52.8653564453125,259.5040283203125,53.3934326171875,257.9200439453125,54.4490966796875,256.8160400390625C55.5531005859375,255.7120361328125,57.1131591796875,255.1600341796875,59.1287841796875,255.1600341796875C61.1927490234375,255.1600341796875,62.7525634765625,255.7120361328125,63.8084716796875,256.8160400390625C64.9124755859375,257.9200439453125,65.4642333984375,259.5040283203125,65.4642333984375,261.5679931640625L65.4642333984375,265.7440185546875L64.6722412109375,262.21600341796875C65.3443603515625,260.0560302734375,66.7362060546875,258.3280029296875,68.8480224609375,257.031982421875C71.0079345703125,255.68798828125,73.4556884765625,255.0159912109375,76.1915283203125,255.0159912109375C79.2630615234375,255.0159912109375,81.9510498046875,255.760009765625,84.2547607421875,257.24798583984375C86.6065673828125,258.7359619140625,88.4305419921875,260.8480224609375,89.7264404296875,263.583984375C91.0223388671875,266.32000732421875,91.6702880859375,269.63201904296875,91.6702880859375,273.52001953125C91.6702880859375,277.31201171875,91.0223388671875,280.5999755859375,89.7264404296875,283.384033203125C88.4305419921875,286.16796875,86.6065673828125,288.30401611328125,84.2547607421875,289.7919921875C81.9510498046875,291.280029296875,79.2630615234375,292.02398681640625,76.1915283203125,292.02398681640625C73.5516357421875,292.02398681640625,71.1759033203125,291.4000244140625,69.0640869140625,290.1519775390625C66.9522705078125,288.90399169921875,65.5362548828125,287.27197265625,64.8162841796875,285.2559814453125L65.6802978515625,285.2559814453125L65.6802978515625,298.3599853515625C65.6802978515625,300.4720458984375,65.1043701171875,302.08001708984375,63.9525146484375,303.18402099609375C62.8485107421875,304.28802490234375,61.2645263671875,304.84002685546875,59.2008056640625,304.84002685546875L59.2008056640625,304.84002685546875M72.1597900390625,282.592041015625C73.4556884765625,282.592041015625,74.5836181640625,282.280029296875,75.5435791015625,281.656005859375C76.5513916015625,280.9840087890625,77.3433837890625,280,77.9193115234375,278.7039794921875C78.4952392578125,277.3599853515625,78.7830810546875,275.63201904296875,78.7830810546875,273.52001953125C78.7830810546875,270.30401611328125,78.1593017578125,268,76.9114990234375,266.6080322265625C75.6634521484375,265.16796875,74.0794677734375,264.447998046875,72.1597900390625,264.447998046875C70.8638916015625,264.447998046875,69.7120361328125,264.760009765625,68.7039794921875,265.384033203125C67.6961669921875,266.00799560546875,66.9041748046875,266.99200439453125,66.3282470703125,268.33599853515625C65.7523193359375,269.63201904296875,65.4642333984375,271.3599853515625,65.4642333984375,273.52001953125C65.4642333984375,276.68798828125,66.0882568359375,278.99200439453125,67.3363037109375,280.4320068359375C68.5841064453125,281.87200927734375,70.1920166015625,282.592041015625,72.1597900390625,282.592041015625L72.1597900390625,282.592041015625M103.8372802734375,291.8800048828125C101.8214111328125,291.8800048828125,100.2615966796875,291.3280029296875,99.1575927734375,290.2239990234375C98.0538330078125,289.1199951171875,97.5018310546875,287.51202392578125,97.5018310546875,285.4000244140625L97.5018310546875,261.5679931640625C97.5018310546875,259.5040283203125,98.0296630859375,257.9200439453125,99.0858154296875,256.8160400390625C100.1895751953125,255.7120361328125,101.7493896484375,255.1600341796875,103.7652587890625,255.1600341796875C105.7811279296875,255.1600341796875,107.3170166015625,255.7120361328125,108.3729248046875,256.8160400390625C109.4288330078125,257.9200439453125,109.9569091796875,259.5040283203125,109.9569091796875,261.5679931640625L109.9569091796875,264.9520263671875L109.1649169921875,262C110.3167724609375,259.7440185546875,111.9486083984375,258.0159912109375,114.0604248046875,256.8160400390625C116.2203369140625,255.615966796875,118.6680908203125,255.0159912109375,121.4039306640625,255.0159912109375C124.2357177734375,255.0159912109375,126.5633544921875,255.5679931640625,128.3873291015625,256.6719970703125C130.2113037109375,257.72802734375,131.5789794921875,259.40802001953125,132.4910888671875,261.7120361328125C133.4029541015625,263.968017578125,133.8587646484375,266.823974609375,133.8587646484375,270.280029296875L133.8587646484375,285.4000244140625C133.8587646484375,287.51202392578125,133.3070068359375,289.1199951171875,132.2030029296875,290.2239990234375C131.0989990234375,291.3280029296875,129.5152587890625,291.8800048828125,127.4515380859375,291.8800048828125C125.3875732421875,291.8800048828125,123.8035888671875,291.3280029296875,122.6998291015625,290.2239990234375C121.5958251953125,289.1199951171875,121.0438232421875,287.51202392578125,121.0438232421875,285.4000244140625L121.0438232421875,270.78399658203125C121.0438232421875,268.6240234375,120.6600341796875,267.0880126953125,119.8919677734375,266.176025390625C119.1719970703125,265.2640380859375,118.0921630859375,264.8079833984375,116.6522216796875,264.8079833984375C114.7322998046875,264.8079833984375,113.1966552734375,265.4320068359375,112.0445556640625,266.67999267578125C110.8927001953125,267.8800048828125,110.3167724609375,269.511962890625,110.3167724609375,271.57598876953125L110.3167724609375,285.4000244140625C110.3167724609375,289.719970703125,108.1571044921875,291.8800048828125,103.8372802734375,291.8800048828125L103.8372802734375,291.8800048828125" style="font-weight: 900; font-size: 72px; font-family: Nunito; dominant-baseline: ideographic; white-space: pre; fill: rgb(246, 245, 244); fill-opacity: 1;"/></g></g><g id="shape-b1712094-cced-80d3-8007-9be900bcd868"><g class="frame-container-wrapper"><g class="frame-container-blur"><g class="frame-container-shadows"><g fill="none"><g class="fills" id="fills-b1712094-cced-80d3-8007-9be900bcd868"><rect width="103" height="83" class="frame-background" x="137.85885620117193" transform="matrix(1.000000, 0.000000, 0.000000, 1.000000, 0.000000, 0.000000)" style="fill: rgb(234, 91, 12); fill-opacity: 1;" ry="16" rx="16" y="225"/></g><g class="frame-children"><g id="shape-4a085bf9-ae80-80da-8007-ae90d1e8aaa6"><g class="fills" id="fills-4a085bf9-ae80-80da-8007-ae90d1e8aaa6"><path d="M155.11541748046875,292.3544921875C153.00164794921875,292.3544921875,151.46405029296875,291.8763427734375,150.50311279296875,290.91998291015625C149.59027099609375,289.9158935546875,149.13372802734375,288.45745849609375,149.13372802734375,286.5447998046875C149.13372802734375,285.2059326171875,149.42205810546875,284.0106201171875,149.99871826171875,282.9586181640625C150.62347412109375,281.90667724609375,151.41619873046875,280.87860107421875,152.37689208984375,279.87451171875L164.98870849609375,266.7490234375C166.86248779296875,264.74072265625,168.18377685546875,263.019287109375,168.95233154296875,261.5848388671875C169.76922607421875,260.15032958984375,170.17767333984375,258.7158203125,170.17767333984375,257.2813720703125C170.17767333984375,255.46435546875,169.57708740234375,254.1015625,168.37591552734375,253.193115234375C167.17474365234375,252.28460693359375,165.44525146484375,251.830322265625,163.18695068359375,251.830322265625C162.03411865234375,251.830322265625,160.80877685546875,251.99774169921875,159.51165771484375,252.3323974609375C158.21453857421875,252.61932373046875,156.82098388671875,253.145263671875,155.33172607421875,253.910400390625C154.03436279296875,254.484130859375,152.85736083984375,254.6514892578125,151.80023193359375,254.41241455078125C150.79144287109375,254.17333984375,149.92645263671875,253.64739990234375,149.20599365234375,252.83447265625C148.53314208984375,252.0216064453125,148.10101318359375,251.08917236328125,147.90863037109375,250.0372314453125C147.76458740234375,248.98529052734375,147.93255615234375,247.957275390625,148.41326904296875,246.953125C148.89373779296875,245.90118408203125,149.75823974609375,245.04052734375,151.00750732421875,244.37109375C153.21771240234375,243.1756591796875,155.49969482421875,242.31494140625,157.85394287109375,241.7889404296875C160.25628662109375,241.2630615234375,162.65863037109375,241,165.06072998046875,241C169.00042724609375,241,172.29168701171875,241.5738525390625,174.93402099609375,242.721435546875C177.62469482421875,243.86895751953125,179.66668701171875,245.54254150390625,181.05975341796875,247.7420654296875C182.45306396484375,249.893798828125,183.14984130859375,252.571533203125,183.14984130859375,255.77520751953125C183.14984130859375,257.783447265625,182.83758544921875,259.74395751953125,182.21282958984375,261.65655517578125C181.63641357421875,263.5692138671875,180.67547607421875,265.48187255859375,179.33001708984375,267.39447021484375C178.03289794921875,269.30712890625,176.27947998046875,271.33929443359375,174.06927490234375,273.490966796875L162.39422607421875,284.9669189453125L162.39422607421875,281.66754150390625L180.19525146484375,281.66754150390625C181.97259521484375,281.66754150390625,183.31805419921875,282.121826171875,184.23065185546875,283.0303955078125C185.19183349609375,283.9388427734375,185.67230224609375,285.2537841796875,185.67230224609375,286.97515869140625C185.67230224609375,288.696533203125,185.19183349609375,290.035400390625,184.23065185546875,290.99176025390625C183.31805419921875,291.9002685546875,181.97259521484375,292.3544921875,180.19525146484375,292.3544921875ZM217.23797607421875,293C215.22015380859375,293,213.63446044921875,292.45013427734375,212.48138427734375,291.350341796875C211.37640380859375,290.25054931640625,210.82391357421875,288.62481689453125,210.82391357421875,286.47314453125L210.82391357421875,283.89105224609375L196.33831787109375,283.89105224609375C194.22430419921875,283.89105224609375,192.56658935546875,283.41290283203125,191.36566162109375,282.45654296875C190.21234130859375,281.500244140625,189.63592529296875,280.0418701171875,189.63592529296875,278.08135986328125C189.63592529296875,276.933837890625,189.85223388671875,275.83404541015625,190.28460693359375,274.78204345703125C190.71697998046875,273.6822509765625,191.48553466796875,272.36737060546875,192.59051513671875,270.8372802734375L210.17523193359375,245.303466796875C211.13616943359375,243.86895751953125,212.21722412109375,242.8170166015625,213.41839599609375,242.1475830078125C214.61932373046875,241.4781494140625,216.03680419921875,241.14349365234375,217.67034912109375,241.14349365234375C219.49603271484375,241.14349365234375,220.93743896484375,241.693359375,221.99432373046875,242.79315185546875C223.05145263671875,243.8450927734375,223.57977294921875,245.4708251953125,223.57977294921875,247.67041015625L223.57977294921875,273.92138671875L225.30950927734375,273.92138671875C227.13543701171875,273.92138671875,228.50457763671875,274.3516845703125,229.41717529296875,275.21240234375C230.37811279296875,276.0731201171875,230.85858154296875,277.29241943359375,230.85858154296875,278.870361328125C230.85858154296875,280.49609375,230.37811279296875,281.73931884765625,229.41717529296875,282.5999755859375C228.50457763671875,283.460693359375,227.13543701171875,283.89105224609375,225.30950927734375,283.89105224609375L223.57977294921875,283.89105224609375L223.57977294921875,286.47314453125C223.57977294921875,288.5770263671875,223.02752685546875,290.2027587890625,221.92254638671875,291.350341796875C220.86541748046875,292.45013427734375,219.30364990234375,293,217.23797607421875,293ZM210.82391357421875,273.92138671875L210.82391357421875,256.9945068359375L212.84173583984375,256.9945068359375L199.29290771484375,277.00555419921875L199.29290771484375,273.92138671875Z" style="font-weight: 900; font-size: 72px; font-family: Nunito; dominant-baseline: ideographic; white-space: pre; fill: rgb(246, 245, 244);"/></g></g></g></g></g></g></g></g><g id="shape-4a085bf9-ae80-80da-8007-ae90bd222452"><g class="fills" id="fills-4a085bf9-ae80-80da-8007-ae90bd222452"><path d="M251.93475341796875,292.14141845703125C249.768798828125,292.14141845703125,248.0357666015625,291.495849609375,246.73614501953125,290.204833984375C245.4844970703125,288.913818359375,244.85888671875,287.21630859375,244.85888671875,285.1124267578125C244.85888671875,283.05633544921875,245.4844970703125,281.40667724609375,246.73614501953125,280.1634521484375C248.0357666015625,278.8724365234375,249.768798828125,278.2269287109375,251.93475341796875,278.2269287109375C254.1973876953125,278.2269287109375,255.93017578125,278.8724365234375,257.13360595703125,280.1634521484375C258.385009765625,281.40667724609375,259.01080322265625,283.05633544921875,259.01080322265625,285.1124267578125C259.01080322265625,287.21630859375,258.385009765625,288.913818359375,257.13360595703125,290.204833984375C255.93017578125,291.495849609375,254.1973876953125,292.14141845703125,251.93475341796875,292.14141845703125ZM278.441650390625,292.5C275.40924072265625,292.5,272.71343994140625,291.75885009765625,270.3548583984375,290.27655029296875C268.04425048828125,288.7943115234375,266.2152099609375,286.66644287109375,264.8670654296875,283.89306640625C263.56744384765625,281.1197509765625,262.9176025390625,277.8443603515625,262.9176025390625,274.06689453125C262.9176025390625,270.19384765625,263.56744384765625,266.89453125,264.8670654296875,264.1689453125C266.2152099609375,261.44342041015625,268.04425048828125,259.33953857421875,270.3548583984375,257.85723876953125C272.71343994140625,256.3748779296875,275.40924072265625,255.6337890625,278.441650390625,255.6337890625C281.08917236328125,255.6337890625,283.4720458984375,256.25537109375,285.5899658203125,257.4986572265625C287.70794677734375,258.7418212890625,289.1280517578125,260.3436279296875,289.849853515625,262.30413818359375L289.0555419921875,262.30413818359375L289.0555419921875,246.9552001953125C289.0555419921875,244.85125732421875,289.60943603515625,243.24945068359375,290.71636962890625,242.149658203125C291.82354736328125,241.04986572265625,293.411865234375,240.5,295.4818115234375,240.5C297.5037841796875,240.5,299.06787109375,241.04986572265625,300.175048828125,242.149658203125C301.33050537109375,243.24945068359375,301.9080810546875,244.85125732421875,301.9080810546875,246.9552001953125L301.9080810546875,285.9013671875C301.9080810546875,288.0052490234375,301.3544921875,289.60711669921875,300.24755859375,290.7069091796875C299.1883544921875,291.80670166015625,297.6240234375,292.35650634765625,295.5540771484375,292.35650634765625C293.5323486328125,292.35650634765625,291.968017578125,291.80670166015625,290.86083984375,290.7069091796875C289.75360107421875,289.60711669921875,289.20001220703125,288.0052490234375,289.20001220703125,285.9013671875L289.20001220703125,281.8131103515625L289.99432373046875,285.32757568359375C289.32049560546875,287.479248046875,287.900390625,289.224609375,285.73443603515625,290.5634765625C283.61627197265625,291.8544921875,281.1854248046875,292.5,278.441650390625,292.5ZM282.55731201171875,283.1041259765625C283.85693359375,283.1041259765625,285.01214599609375,282.7933349609375,286.02313232421875,282.17169189453125C287.03411865234375,281.50225830078125,287.80413818359375,280.52203369140625,288.333740234375,279.23101806640625C288.911376953125,277.8922119140625,289.20001220703125,276.17083740234375,289.20001220703125,274.06689453125C289.20001220703125,270.86328125,288.57421875,268.5679931640625,287.32275390625,267.181396484375C286.07135009765625,265.74688720703125,284.4827880859375,265.0296630859375,282.55731201171875,265.0296630859375C281.25762939453125,265.0296630859375,280.10247802734375,265.3404541015625,279.09149169921875,265.9620361328125C278.08050537109375,266.58367919921875,277.2862548828125,267.56396484375,276.7088623046875,268.90277099609375C276.13104248046875,270.19384765625,275.84234619140625,271.9151611328125,275.84234619140625,274.06689453125C275.84234619140625,277.2227783203125,276.46795654296875,279.5179443359375,277.7196044921875,280.952392578125C278.97125244140625,282.38690185546875,280.5838623046875,283.1041259765625,282.55731201171875,283.1041259765625ZM328.69586181640625,292.5C324.363525390625,292.5,320.60906982421875,291.75885009765625,317.431884765625,290.27655029296875C314.30322265625,288.7464599609375,311.89642333984375,286.5947265625,310.21160888671875,283.82135009765625C308.52679443359375,281.048095703125,307.68450927734375,277.77264404296875,307.68450927734375,273.99517822265625C307.68450927734375,270.36114501953125,308.47882080078125,267.181396484375,310.0673828125,264.4559326171875C311.70391845703125,261.6824951171875,313.9180908203125,259.53082275390625,316.7100830078125,258.00067138671875C319.55010986328125,256.4227294921875,322.77520751953125,255.6337890625,326.385498046875,255.6337890625C329.03277587890625,255.6337890625,331.43963623046875,256.06414794921875,333.60577392578125,256.9248046875C335.77197265625,257.73773193359375,337.62518310546875,258.95703125,339.16552734375,260.582763671875C340.70611572265625,262.16070556640625,341.861328125,264.0733642578125,342.63134765625,266.3206787109375C343.44989013671875,268.5679931640625,343.8587646484375,271.078369140625,343.8587646484375,273.85174560546875C343.8587646484375,274.80804443359375,343.5941162109375,275.5252685546875,343.064453125,276.00347900390625C342.53509521484375,276.433837890625,341.69287109375,276.64898681640625,340.53741455078125,276.64898681640625L318.44287109375,276.64898681640625L318.44287109375,270.6241455078125L334.4722900390625,270.6241455078125L333.317138671875,271.5565185546875C333.317138671875,269.787353515625,333.076171875,268.3529052734375,332.59478759765625,267.25311279296875C332.11346435546875,266.1533203125,331.3916015625,265.3165283203125,330.42889404296875,264.74273681640625C329.51416015625,264.1689453125,328.35894775390625,263.882080078125,326.96307373046875,263.882080078125C325.47076416015625,263.882080078125,324.17108154296875,264.24066162109375,323.06390380859375,264.95794677734375C322.00518798828125,265.6273193359375,321.1868896484375,266.6314697265625,320.60906982421875,267.9703369140625C320.03143310546875,269.3092041015625,319.7427978515625,270.9827880859375,319.7427978515625,272.9910888671875L319.7427978515625,273.63653564453125C319.7427978515625,277.031494140625,320.48858642578125,279.4700927734375,321.98095703125,280.952392578125C323.521240234375,282.38690185546875,325.880126953125,283.1041259765625,329.0570068359375,283.1041259765625C330.115966796875,283.1041259765625,331.31939697265625,282.984619140625,332.66729736328125,282.74554443359375C334.06317138671875,282.4586181640625,335.38702392578125,282.07611083984375,336.63848876953125,281.59796142578125C337.889892578125,281.1197509765625,338.97308349609375,281.048095703125,339.8875732421875,281.38275146484375C340.80206298828125,281.669677734375,341.50018310546875,282.1956787109375,341.98150634765625,282.960693359375C342.5111083984375,283.67791748046875,342.800048828125,284.51470947265625,342.8480224609375,285.47100830078125C342.89605712890625,286.3795166015625,342.6795654296875,287.2880859375,342.1982421875,288.196533203125C341.71685791015625,289.0572509765625,340.92254638671875,289.7266845703125,339.81536865234375,290.204833984375C338.13079833984375,290.9698486328125,336.3255615234375,291.54364013671875,334.40008544921875,291.92620849609375C332.5228271484375,292.3087158203125,330.621337890625,292.5,328.69586181640625,292.5Z" style="font-weight: 900; font-size: 72px; font-family: Nunito; dominant-baseline: ideographic; white-space: pre; fill: rgb(246, 245, 244); fill-opacity: 1;"/></g></g></g></g></g></g></g></g><g id="shape-b1712094-cced-80d3-8007-9be900bcd866"><g class="frame-container-wrapper"><g class="frame-container-blur"><g class="frame-container-shadows"><g fill="none"><g class="fills" id="fills-b1712094-cced-80d3-8007-9be900bcd866"><rect rx="0" ry="0" x="0" y="0" width="350.00000000000006" height="192.9999999999999" transform="matrix(1.000000, 0.000000, 0.000000, 1.000000, 0.000000, 0.000000)" class="frame-background"/></g><g class="frame-children"><g id="shape-b1712094-cced-80d3-8007-9be900bcd86b" rx="0" ry="0" style="fill: rgb(0, 0, 0);"><g id="shape-b1712094-cced-80d3-8007-9be900bcd86c"><g class="fills" id="fills-b1712094-cced-80d3-8007-9be900bcd86c"><path d="M167.3970947265625,114.20184326171875C170.5330810546875,158.51220703125,207.82562255859375,192.90487670898438,252.8387451171875,192.9998779296875C286.12225341796875,192.93002319335938,316.3642578125,173.87930297851562,330.4384765625,144.11660766601562C312.72381591796875,166.52328491210938,285.5380859375,179.63018798828125,256.738525390625,179.64889526367188C215.618408203125,179.57901000976562,179.36529541015625,153.02175903320312,167.3970947265625,114.20184326171875Z" style="stroke-width: 0.668315; fill: rgb(234, 91, 12); fill-opacity: 1;"/></g></g><g id="shape-b1712094-cced-80d3-8007-9be900bcd86d"><g class="fills" id="fills-b1712094-cced-80d3-8007-9be900bcd86d"><path d="M252.8387451171875,23.601104736328125C220.44537353515625,23.676483154296875,190.8541259765625,41.741302490234375,176.32513427734375,70.31106567382812C194.049072265625,48.542724609375,220.8056640625,35.860595703125,249.10369873046875,35.8154296875C289.875244140625,35.895904541015625,325.89886474609375,62.022918701171875,338.1478271484375,100.3970947265625C334.01947021484375,56.92803955078125,297.0830078125,23.677490234375,252.8387451171875,23.601104736328125Z" style="stroke-width: 0.668315; fill: rgb(234, 91, 12); fill-opacity: 1;"/></g></g><g id="shape-b1712094-cced-80d3-8007-9be900bcd86e"><g class="fills" id="fills-b1712094-cced-80d3-8007-9be900bcd86e"><path d="M-0.00006103515625,0.06353759765625C177.74981689453125,32.05645751953125,137.18865966796875,139.29608154296875,267.59259033203125,143.5689697265625C322.97845458984375,143.5689697265625,344.03399658203125,119.23138427734375,349.9683837890625,108.37619018554688C351.1507568359375,106.2135009765625,318.83673095703125,130.11309814453125,268.74810791015625,129.41885375976562C263.98834228515625,129.41885375976562,259.43603515625,129.21633911132812,255.0726318359375,128.8272705078125C147.7322998046875,119.2569580078125,154.69207763671875,-3.18572998046875,-0.00006103515625,0.06353759765625L-0.00006103515625,0.06353759765625L-0.00006103515625,0.06353759765625" style="stroke-width: 0.942867; fill: rgb(246, 245, 244); fill-opacity: 1;"/></g></g></g></g></g></g></g></g></g></g></svg>