<svg width="583" xmlns="http://www.w3.org/2000/svg" height="436" id="screenshot-b1712094-cced-80d3-8007-9be900bcd864" viewBox="0 0 583 436" xmlns:xlink="http://www.w3.org/1999/xlink" fill="none" version="1.1"><g id="shape-b1712094-cced-80d3-8007-9be900bcd864"><defs><clipPath id="frame-clip-b1712094-cced-80d3-8007-9be900bcd864-render-1" class="frame-clip frame-clip-def"><rect rx="0" ry="0" x="0" y="0" width="583" height="436" transform="matrix(1.000000, 0.000000, 0.000000, 1.000000, 0.000000, 0.000000)"/></clipPath></defs><g class="frame-container-wrapper"><g class="frame-container-blur"><g class="frame-container-shadows"><g clip-path="url(#frame-clip-b1712094-cced-80d3-8007-9be900bcd864-render-1)" fill="none"><g class="fills" id="fills-b1712094-cced-80d3-8007-9be900bcd864"><rect width="583" height="436" class="frame-background" x="0" transform="matrix(1.000000, 0.000000, 0.000000, 1.000000, 0.000000, 0.000000)" style="fill: rgb(18, 17, 17); fill-opacity: 1;" ry="0" rx="0" y="0"/></g><g class="frame-children"><g id="shape-8c5cf91c-312f-80ca-8007-b44862d2ad46" rx="0" ry="0"><g id="shape-b1712094-cced-80d3-8007-9be900bcd865"><g class="frame-container-wrapper"><g class="frame-container-blur"><g class="frame-container-shadows"><g fill="none"><g class="fills" id="fills-b1712094-cced-80d3-8007-9be900bcd865"><rect rx="0" ry="0" x="122.64114379882824" y="289" width="337.7177124023437" height="83" transform="matrix(1.000000, 0.000000, 0.000000, 1.000000, 0.000000, 0.000000)" class="frame-background"/></g><g class="frame-children"><g id="shape-4a085bf9-ae80-80da-8007-ae905e31050f"><g class="fills" id="fills-4a085bf9-ae80-80da-8007-ae905e31050f"><path d="M141.8636474609375,368.9840087890625C139.2237548828125,368.9840087890625,136.7520751953125,368.7919921875,134.4481201171875,368.40802001953125C132.1444091796875,368.072021484375,130.1524658203125,367.5679931640625,128.4725341796875,366.89599609375C127.0809326171875,366.416015625,126.0968017578125,365.72003173828125,125.5208740234375,364.8079833984375C124.9449462890625,363.89599609375,124.6810302734375,362.93603515625,124.7288818359375,361.927978515625C124.7769775390625,360.91998291015625,125.0408935546875,360.00799560546875,125.5208740234375,359.1920166015625C126.0489501953125,358.3759765625,126.7447509765625,357.7760009765625,127.6087646484375,357.3919677734375C128.4725341796875,357.0560302734375,129.4324951171875,357.08001708984375,130.4886474609375,357.4639892578125C132.6004638671875,358.3280029296875,134.5201416015625,358.8800048828125,136.2479248046875,359.1199951171875C137.9759521484375,359.40802001953125,139.4398193359375,359.552001953125,140.6397705078125,359.552001953125C143.5675048828125,359.552001953125,145.7513427734375,358.927978515625,147.1912841796875,357.67999267578125C148.6790771484375,356.47998046875,149.4229736328125,354.583984375,149.4229736328125,351.99200439453125L149.4229736328125,347.45599365234375L149.9989013671875,347.45599365234375C149.2789306640625,349.47198486328125,147.8150634765625,351.12799072265625,145.6072998046875,352.42401123046875C143.3995361328125,353.6719970703125,140.9996337890625,354.2960205078125,138.4078369140625,354.2960205078125C135.2401123046875,354.2960205078125,132.4803466796875,353.57598876953125,130.1285400390625,352.135986328125C127.7767333984375,350.64801025390625,125.9288330078125,348.583984375,124.5848388671875,345.9439697265625C123.2889404296875,343.30401611328125,122.6409912109375,340.2080078125,122.6409912109375,336.656005859375C122.6409912109375,333.968017578125,123.0252685546875,331.54400634765625,123.7930908203125,329.384033203125C124.5609130859375,327.2239990234375,125.6170654296875,325.3759765625,126.9608154296875,323.8399658203125C128.3526611328125,322.30401611328125,130.0086669921875,321.12799072265625,131.9283447265625,320.31201171875C133.8963623046875,319.447998046875,136.0560302734375,319.0159912109375,138.4078369140625,319.0159912109375C141.0955810546875,319.0159912109375,143.4954833984375,319.6400146484375,145.6072998046875,320.88800048828125C147.7669677734375,322.135986328125,149.2069091796875,323.76800537109375,149.9268798828125,325.78399658203125L149.2069091796875,328.7359619140625L149.2069091796875,325.5679931640625C149.2069091796875,323.5040283203125,149.7589111328125,321.9200439453125,150.8629150390625,320.8160400390625C152.0147705078125,319.7120361328125,153.5985107421875,319.1600341796875,155.6146240234375,319.1600341796875C157.6302490234375,319.1600341796875,159.1661376953125,319.7120361328125,160.2220458984375,320.8160400390625C161.3260498046875,321.9200439453125,161.8780517578125,323.5040283203125,161.8780517578125,325.5679931640625L161.8780517578125,350.47998046875C161.8780517578125,356.6240234375,160.1502685546875,361.23199462890625,156.6944580078125,364.30401611328125C153.2386474609375,367.42401123046875,148.2950439453125,368.9840087890625,141.8636474609375,368.9840087890625L141.8636474609375,368.9840087890625M142.3675537109375,344.864013671875C143.8074951171875,344.864013671875,145.0313720703125,344.552001953125,146.0391845703125,343.927978515625C147.0472412109375,343.2559814453125,147.8392333984375,342.32000732421875,148.4149169921875,341.1199951171875C148.9910888671875,339.87200927734375,149.2789306640625,338.384033203125,149.2789306640625,336.656005859375C149.2789306640625,334.06396484375,148.6551513671875,332.0479736328125,147.4071044921875,330.6080322265625C146.1593017578125,329.16796875,144.4793701171875,328.447998046875,142.3675537109375,328.447998046875C141.0238037109375,328.447998046875,139.8236083984375,328.78399658203125,138.7679443359375,329.45599365234375C137.7117919921875,330.08001708984375,136.8958740234375,331.0159912109375,136.3201904296875,332.2640380859375C135.7921142578125,333.4639892578125,135.5281982421875,334.927978515625,135.5281982421875,336.656005859375C135.5281982421875,339.24798583984375,136.1519775390625,341.2640380859375,137.4000244140625,342.7039794921875C138.6478271484375,344.14404296875,140.3035888671875,344.864013671875,142.3675537109375,344.864013671875L142.3675537109375,344.864013671875M175.7008056640625,368.84002685546875C173.6849365234375,368.84002685546875,172.1251220703125,368.28802490234375,171.0213623046875,367.18402099609375C169.9173583984375,366.08001708984375,169.3653564453125,364.4720458984375,169.3653564453125,362.3599853515625L169.3653564453125,325.5679931640625C169.3653564453125,323.5040283203125,169.8934326171875,321.9200439453125,170.9490966796875,320.8160400390625C172.0531005859375,319.7120361328125,173.6131591796875,319.1600341796875,175.6287841796875,319.1600341796875C177.6927490234375,319.1600341796875,179.2525634765625,319.7120361328125,180.3084716796875,320.8160400390625C181.4124755859375,321.9200439453125,181.9642333984375,323.5040283203125,181.9642333984375,325.5679931640625L181.9642333984375,329.7440185546875L181.1722412109375,326.21600341796875C181.8443603515625,324.0560302734375,183.2362060546875,322.3280029296875,185.3480224609375,321.031982421875C187.5079345703125,319.68798828125,189.9556884765625,319.0159912109375,192.6915283203125,319.0159912109375C195.7630615234375,319.0159912109375,198.4510498046875,319.760009765625,200.7547607421875,321.24798583984375C203.1065673828125,322.7359619140625,204.9305419921875,324.8480224609375,206.2264404296875,327.583984375C207.5223388671875,330.32000732421875,208.1702880859375,333.63201904296875,208.1702880859375,337.52001953125C208.1702880859375,341.31201171875,207.5223388671875,344.5999755859375,206.2264404296875,347.384033203125C204.9305419921875,350.16796875,203.1065673828125,352.30401611328125,200.7547607421875,353.7919921875C198.4510498046875,355.280029296875,195.7630615234375,356.02398681640625,192.6915283203125,356.02398681640625C190.0516357421875,356.02398681640625,187.6759033203125,355.4000244140625,185.5640869140625,354.1519775390625C183.4522705078125,352.90399169921875,182.0362548828125,351.27197265625,181.3162841796875,349.2559814453125L182.1802978515625,349.2559814453125L182.1802978515625,362.3599853515625C182.1802978515625,364.4720458984375,181.6043701171875,366.08001708984375,180.4525146484375,367.18402099609375C179.3485107421875,368.28802490234375,177.7645263671875,368.84002685546875,175.7008056640625,368.84002685546875L175.7008056640625,368.84002685546875M188.6597900390625,346.592041015625C189.9556884765625,346.592041015625,191.0836181640625,346.280029296875,192.0435791015625,345.656005859375C193.0513916015625,344.9840087890625,193.8433837890625,344,194.4193115234375,342.7039794921875C194.9952392578125,341.3599853515625,195.2830810546875,339.63201904296875,195.2830810546875,337.52001953125C195.2830810546875,334.30401611328125,194.6593017578125,332,193.4114990234375,330.6080322265625C192.1634521484375,329.16796875,190.5794677734375,328.447998046875,188.6597900390625,328.447998046875C187.3638916015625,328.447998046875,186.2120361328125,328.760009765625,185.2039794921875,329.384033203125C184.1961669921875,330.00799560546875,183.4041748046875,330.99200439453125,182.8282470703125,332.33599853515625C182.2523193359375,333.63201904296875,181.9642333984375,335.3599853515625,181.9642333984375,337.52001953125C181.9642333984375,340.68798828125,182.5882568359375,342.99200439453125,183.8363037109375,344.4320068359375C185.0841064453125,345.87200927734375,186.6920166015625,346.592041015625,188.6597900390625,346.592041015625L188.6597900390625,346.592041015625M220.3372802734375,355.8800048828125C218.3214111328125,355.8800048828125,216.7615966796875,355.3280029296875,215.6575927734375,354.2239990234375C214.5538330078125,353.1199951171875,214.0018310546875,351.51202392578125,214.0018310546875,349.4000244140625L214.0018310546875,325.5679931640625C214.0018310546875,323.5040283203125,214.5296630859375,321.9200439453125,215.5858154296875,320.8160400390625C216.6895751953125,319.7120361328125,218.2493896484375,319.1600341796875,220.2652587890625,319.1600341796875C222.2811279296875,319.1600341796875,223.8170166015625,319.7120361328125,224.8729248046875,320.8160400390625C225.9288330078125,321.9200439453125,226.4569091796875,323.5040283203125,226.4569091796875,325.5679931640625L226.4569091796875,328.9520263671875L225.6649169921875,326C226.8167724609375,323.7440185546875,228.4486083984375,322.0159912109375,230.5604248046875,320.8160400390625C232.7203369140625,319.615966796875,235.1680908203125,319.0159912109375,237.9039306640625,319.0159912109375C240.7357177734375,319.0159912109375,243.0633544921875,319.5679931640625,244.8873291015625,320.6719970703125C246.7113037109375,321.72802734375,248.0789794921875,323.40802001953125,248.9910888671875,325.7120361328125C249.9029541015625,327.968017578125,250.3587646484375,330.823974609375,250.3587646484375,334.280029296875L250.3587646484375,349.4000244140625C250.3587646484375,351.51202392578125,249.8070068359375,353.1199951171875,248.7030029296875,354.2239990234375C247.5989990234375,355.3280029296875,246.0152587890625,355.8800048828125,243.9515380859375,355.8800048828125C241.8875732421875,355.8800048828125,240.3035888671875,355.3280029296875,239.1998291015625,354.2239990234375C238.0958251953125,353.1199951171875,237.5438232421875,351.51202392578125,237.5438232421875,349.4000244140625L237.5438232421875,334.78399658203125C237.5438232421875,332.6240234375,237.1600341796875,331.0880126953125,236.3919677734375,330.176025390625C235.6719970703125,329.2640380859375,234.5921630859375,328.8079833984375,233.1522216796875,328.8079833984375C231.2322998046875,328.8079833984375,229.6966552734375,329.4320068359375,228.5445556640625,330.67999267578125C227.3927001953125,331.8800048828125,226.8167724609375,333.511962890625,226.8167724609375,335.57598876953125L226.8167724609375,349.4000244140625C226.8167724609375,353.719970703125,224.6571044921875,355.8800048828125,220.3372802734375,355.8800048828125L220.3372802734375,355.8800048828125" style="font-weight: 900; font-size: 72px; font-family: Nunito; dominant-baseline: ideographic; white-space: pre; fill: rgb(246, 245, 244); fill-opacity: 1;"/></g></g><g id="shape-b1712094-cced-80d3-8007-9be900bcd868"><g class="frame-container-wrapper"><g class="frame-container-blur"><g class="frame-container-shadows"><g fill="none"><g class="fills" id="fills-b1712094-cced-80d3-8007-9be900bcd868"><rect width="103" height="83" class="frame-background" x="254.35885620117193" transform="matrix(1.000000, 0.000000, 0.000000, 1.000000, 0.000000, 0.000000)" style="fill: rgb(234, 91, 12); fill-opacity: 1;" ry="16" rx="16" y="289"/></g><g class="frame-children"><g id="shape-4a085bf9-ae80-80da-8007-ae90d1e8aaa6"><g class="fills" id="fills-4a085bf9-ae80-80da-8007-ae90d1e8aaa6"><path d="M271.61541748046875,356.3544921875C269.50164794921875,356.3544921875,267.96405029296875,355.8763427734375,267.00311279296875,354.91998291015625C266.09027099609375,353.9158935546875,265.63372802734375,352.45745849609375,265.63372802734375,350.5447998046875C265.63372802734375,349.2059326171875,265.92205810546875,348.0106201171875,266.49871826171875,346.9586181640625C267.12347412109375,345.90667724609375,267.91619873046875,344.87860107421875,268.87689208984375,343.87451171875L281.48870849609375,330.7490234375C283.36248779296875,328.74072265625,284.68377685546875,327.019287109375,285.45233154296875,325.5848388671875C286.26922607421875,324.15032958984375,286.67767333984375,322.7158203125,286.67767333984375,321.2813720703125C286.67767333984375,319.46435546875,286.07708740234375,318.1015625,284.87591552734375,317.193115234375C283.67474365234375,316.28460693359375,281.94525146484375,315.830322265625,279.68695068359375,315.830322265625C278.53411865234375,315.830322265625,277.30877685546875,315.99774169921875,276.01165771484375,316.3323974609375C274.71453857421875,316.61932373046875,273.32098388671875,317.145263671875,271.83172607421875,317.910400390625C270.53436279296875,318.484130859375,269.35736083984375,318.6514892578125,268.30023193359375,318.41241455078125C267.29144287109375,318.17333984375,266.42645263671875,317.64739990234375,265.70599365234375,316.83447265625C265.03314208984375,316.0216064453125,264.60101318359375,315.08917236328125,264.40863037109375,314.0372314453125C264.26458740234375,312.98529052734375,264.43255615234375,311.957275390625,264.91326904296875,310.953125C265.39373779296875,309.90118408203125,266.25823974609375,309.04052734375,267.50750732421875,308.37109375C269.71771240234375,307.1756591796875,271.99969482421875,306.31494140625,274.35394287109375,305.7889404296875C276.75628662109375,305.2630615234375,279.15863037109375,305,281.56072998046875,305C285.50042724609375,305,288.79168701171875,305.5738525390625,291.43402099609375,306.721435546875C294.12469482421875,307.86895751953125,296.16668701171875,309.54254150390625,297.55975341796875,311.7420654296875C298.95306396484375,313.893798828125,299.64984130859375,316.571533203125,299.64984130859375,319.77520751953125C299.64984130859375,321.783447265625,299.33758544921875,323.74395751953125,298.71282958984375,325.65655517578125C298.13641357421875,327.5692138671875,297.17547607421875,329.48187255859375,295.83001708984375,331.39447021484375C294.53289794921875,333.30712890625,292.77947998046875,335.33929443359375,290.56927490234375,337.490966796875L278.89422607421875,348.9669189453125L278.89422607421875,345.66754150390625L296.69525146484375,345.66754150390625C298.47259521484375,345.66754150390625,299.81805419921875,346.121826171875,300.73065185546875,347.0303955078125C301.69183349609375,347.9388427734375,302.17230224609375,349.2537841796875,302.17230224609375,350.97515869140625C302.17230224609375,352.696533203125,301.69183349609375,354.035400390625,300.73065185546875,354.99176025390625C299.81805419921875,355.9002685546875,298.47259521484375,356.3544921875,296.69525146484375,356.3544921875ZM333.73797607421875,357C331.72015380859375,357,330.13446044921875,356.45013427734375,328.98138427734375,355.350341796875C327.87640380859375,354.25054931640625,327.32391357421875,352.62481689453125,327.32391357421875,350.47314453125L327.32391357421875,347.89105224609375L312.83831787109375,347.89105224609375C310.72430419921875,347.89105224609375,309.06658935546875,347.41290283203125,307.86566162109375,346.45654296875C306.71234130859375,345.500244140625,306.13592529296875,344.0418701171875,306.13592529296875,342.08135986328125C306.13592529296875,340.933837890625,306.35223388671875,339.83404541015625,306.78460693359375,338.78204345703125C307.21697998046875,337.6822509765625,307.98553466796875,336.36737060546875,309.09051513671875,334.8372802734375L326.67523193359375,309.303466796875C327.63616943359375,307.86895751953125,328.71722412109375,306.8170166015625,329.91839599609375,306.1475830078125C331.11932373046875,305.4781494140625,332.53680419921875,305.14349365234375,334.17034912109375,305.14349365234375C335.99603271484375,305.14349365234375,337.43743896484375,305.693359375,338.49432373046875,306.79315185546875C339.55145263671875,307.8450927734375,340.07977294921875,309.4708251953125,340.07977294921875,311.67041015625L340.07977294921875,337.92138671875L341.80950927734375,337.92138671875C343.63543701171875,337.92138671875,345.00457763671875,338.3516845703125,345.91717529296875,339.21240234375C346.87811279296875,340.0731201171875,347.35858154296875,341.29241943359375,347.35858154296875,342.870361328125C347.35858154296875,344.49609375,346.87811279296875,345.73931884765625,345.91717529296875,346.5999755859375C345.00457763671875,347.460693359375,343.63543701171875,347.89105224609375,341.80950927734375,347.89105224609375L340.07977294921875,347.89105224609375L340.07977294921875,350.47314453125C340.07977294921875,352.5770263671875,339.52752685546875,354.2027587890625,338.42254638671875,355.350341796875C337.36541748046875,356.45013427734375,335.80364990234375,357,333.73797607421875,357ZM327.32391357421875,337.92138671875L327.32391357421875,320.9945068359375L329.34173583984375,320.9945068359375L315.79290771484375,341.00555419921875L315.79290771484375,337.92138671875Z" style="font-weight: 900; font-size: 72px; font-family: Nunito; dominant-baseline: ideographic; white-space: pre; fill: rgb(246, 245, 244);"/></g></g></g></g></g></g></g></g><g id="shape-4a085bf9-ae80-80da-8007-ae90bd222452"><g class="fills" id="fills-4a085bf9-ae80-80da-8007-ae90bd222452"><path d="M368.43475341796875,356.14141845703125C366.268798828125,356.14141845703125,364.5357666015625,355.495849609375,363.23614501953125,354.204833984375C361.9844970703125,352.913818359375,361.35888671875,351.21630859375,361.35888671875,349.1124267578125C361.35888671875,347.05633544921875,361.9844970703125,345.40667724609375,363.23614501953125,344.1634521484375C364.5357666015625,342.8724365234375,366.268798828125,342.2269287109375,368.43475341796875,342.2269287109375C370.6973876953125,342.2269287109375,372.43017578125,342.8724365234375,373.63360595703125,344.1634521484375C374.885009765625,345.40667724609375,375.51080322265625,347.05633544921875,375.51080322265625,349.1124267578125C375.51080322265625,351.21630859375,374.885009765625,352.913818359375,373.63360595703125,354.204833984375C372.43017578125,355.495849609375,370.6973876953125,356.14141845703125,368.43475341796875,356.14141845703125ZM394.941650390625,356.5C391.90924072265625,356.5,389.21343994140625,355.75885009765625,386.8548583984375,354.27655029296875C384.54425048828125,352.7943115234375,382.7152099609375,350.66644287109375,381.3670654296875,347.89306640625C380.06744384765625,345.1197509765625,379.4176025390625,341.8443603515625,379.4176025390625,338.06689453125C379.4176025390625,334.19384765625,380.06744384765625,330.89453125,381.3670654296875,328.1689453125C382.7152099609375,325.44342041015625,384.54425048828125,323.33953857421875,386.8548583984375,321.85723876953125C389.21343994140625,320.3748779296875,391.90924072265625,319.6337890625,394.941650390625,319.6337890625C397.58917236328125,319.6337890625,399.9720458984375,320.25537109375,402.0899658203125,321.4986572265625C404.20794677734375,322.7418212890625,405.6280517578125,324.3436279296875,406.349853515625,326.30413818359375L405.5555419921875,326.30413818359375L405.5555419921875,310.9552001953125C405.5555419921875,308.85125732421875,406.10943603515625,307.24945068359375,407.21636962890625,306.149658203125C408.32354736328125,305.04986572265625,409.911865234375,304.5,411.9818115234375,304.5C414.0037841796875,304.5,415.56787109375,305.04986572265625,416.675048828125,306.149658203125C417.83050537109375,307.24945068359375,418.4080810546875,308.85125732421875,418.4080810546875,310.9552001953125L418.4080810546875,349.9013671875C418.4080810546875,352.0052490234375,417.8544921875,353.60711669921875,416.74755859375,354.7069091796875C415.6883544921875,355.80670166015625,414.1240234375,356.35650634765625,412.0540771484375,356.35650634765625C410.0323486328125,356.35650634765625,408.468017578125,355.80670166015625,407.36083984375,354.7069091796875C406.25360107421875,353.60711669921875,405.70001220703125,352.0052490234375,405.70001220703125,349.9013671875L405.70001220703125,345.8131103515625L406.49432373046875,349.32757568359375C405.82049560546875,351.479248046875,404.400390625,353.224609375,402.23443603515625,354.5634765625C400.11627197265625,355.8544921875,397.6854248046875,356.5,394.941650390625,356.5ZM399.05731201171875,347.1041259765625C400.35693359375,347.1041259765625,401.51214599609375,346.7933349609375,402.52313232421875,346.17169189453125C403.53411865234375,345.50225830078125,404.30413818359375,344.52203369140625,404.833740234375,343.23101806640625C405.411376953125,341.8922119140625,405.70001220703125,340.17083740234375,405.70001220703125,338.06689453125C405.70001220703125,334.86328125,405.07421875,332.5679931640625,403.82275390625,331.181396484375C402.57135009765625,329.74688720703125,400.9827880859375,329.0296630859375,399.05731201171875,329.0296630859375C397.75762939453125,329.0296630859375,396.60247802734375,329.3404541015625,395.59149169921875,329.9620361328125C394.58050537109375,330.58367919921875,393.7862548828125,331.56396484375,393.2088623046875,332.90277099609375C392.63104248046875,334.19384765625,392.34234619140625,335.9151611328125,392.34234619140625,338.06689453125C392.34234619140625,341.2227783203125,392.96795654296875,343.5179443359375,394.2196044921875,344.952392578125C395.47125244140625,346.38690185546875,397.0838623046875,347.1041259765625,399.05731201171875,347.1041259765625ZM445.19586181640625,356.5C440.863525390625,356.5,437.10906982421875,355.75885009765625,433.931884765625,354.27655029296875C430.80322265625,352.7464599609375,428.39642333984375,350.5947265625,426.71160888671875,347.82135009765625C425.02679443359375,345.048095703125,424.18450927734375,341.77264404296875,424.18450927734375,337.99517822265625C424.18450927734375,334.36114501953125,424.97882080078125,331.181396484375,426.5673828125,328.4559326171875C428.20391845703125,325.6824951171875,430.4180908203125,323.53082275390625,433.2100830078125,322.00067138671875C436.05010986328125,320.4227294921875,439.27520751953125,319.6337890625,442.885498046875,319.6337890625C445.53277587890625,319.6337890625,447.93963623046875,320.06414794921875,450.10577392578125,320.9248046875C452.27197265625,321.73773193359375,454.12518310546875,322.95703125,455.66552734375,324.582763671875C457.20611572265625,326.16070556640625,458.361328125,328.0733642578125,459.13134765625,330.3206787109375C459.94989013671875,332.5679931640625,460.3587646484375,335.078369140625,460.3587646484375,337.85174560546875C460.3587646484375,338.80804443359375,460.0941162109375,339.5252685546875,459.564453125,340.00347900390625C459.03509521484375,340.433837890625,458.19287109375,340.64898681640625,457.03741455078125,340.64898681640625L434.94287109375,340.64898681640625L434.94287109375,334.6241455078125L450.9722900390625,334.6241455078125L449.817138671875,335.5565185546875C449.817138671875,333.787353515625,449.576171875,332.3529052734375,449.09478759765625,331.25311279296875C448.61346435546875,330.1533203125,447.8916015625,329.3165283203125,446.92889404296875,328.74273681640625C446.01416015625,328.1689453125,444.85894775390625,327.882080078125,443.46307373046875,327.882080078125C441.97076416015625,327.882080078125,440.67108154296875,328.24066162109375,439.56390380859375,328.95794677734375C438.50518798828125,329.6273193359375,437.6868896484375,330.6314697265625,437.10906982421875,331.9703369140625C436.53143310546875,333.3092041015625,436.2427978515625,334.9827880859375,436.2427978515625,336.9910888671875L436.2427978515625,337.63653564453125C436.2427978515625,341.031494140625,436.98858642578125,343.4700927734375,438.48095703125,344.952392578125C440.021240234375,346.38690185546875,442.380126953125,347.1041259765625,445.5570068359375,347.1041259765625C446.615966796875,347.1041259765625,447.81939697265625,346.984619140625,449.16729736328125,346.74554443359375C450.56317138671875,346.4586181640625,451.88702392578125,346.07611083984375,453.13848876953125,345.59796142578125C454.389892578125,345.1197509765625,455.47308349609375,345.048095703125,456.3875732421875,345.38275146484375C457.30206298828125,345.669677734375,458.00018310546875,346.1956787109375,458.48150634765625,346.960693359375C459.0111083984375,347.67791748046875,459.300048828125,348.51470947265625,459.3480224609375,349.47100830078125C459.39605712890625,350.3795166015625,459.1795654296875,351.2880859375,458.6982421875,352.196533203125C458.21685791015625,353.0572509765625,457.42254638671875,353.7266845703125,456.31536865234375,354.204833984375C454.63079833984375,354.9698486328125,452.8255615234375,355.54364013671875,450.90008544921875,355.92620849609375C449.0228271484375,356.3087158203125,447.121337890625,356.5,445.19586181640625,356.5Z" style="font-weight: 900; font-size: 72px; font-family: Nunito; dominant-baseline: ideographic; white-space: pre; fill: rgb(246, 245, 244); fill-opacity: 1;"/></g></g></g></g></g></g></g></g><g id="shape-b1712094-cced-80d3-8007-9be900bcd866"><g class="frame-container-wrapper"><g class="frame-container-blur"><g class="frame-container-shadows"><g fill="none"><g class="fills" id="fills-b1712094-cced-80d3-8007-9be900bcd866"><rect rx="0" ry="0" x="116.5" y="64" width="350.00000000000006" height="192.9999999999999" transform="matrix(1.000000, 0.000000, 0.000000, 1.000000, 0.000000, 0.000000)" class="frame-background"/></g><g class="frame-children"><g id="shape-b1712094-cced-80d3-8007-9be900bcd86b" rx="0" ry="0" style="fill: rgb(0, 0, 0);"><g id="shape-b1712094-cced-80d3-8007-9be900bcd86c"><g class="fills" id="fills-b1712094-cced-80d3-8007-9be900bcd86c"><path d="M283.8970947265625,178.20184326171875C287.0330810546875,222.51220703125,324.32562255859375,256.9048767089844,369.3387451171875,256.9998779296875C402.62225341796875,256.9300231933594,432.8642578125,237.87930297851562,446.9384765625,208.11660766601562C429.22381591796875,230.52328491210938,402.0380859375,243.63018798828125,373.238525390625,243.64889526367188C332.118408203125,243.57901000976562,295.86529541015625,217.02175903320312,283.8970947265625,178.20184326171875Z" style="stroke-width: 0.668315; fill: rgb(234, 91, 12); fill-opacity: 1;"/></g></g><g id="shape-b1712094-cced-80d3-8007-9be900bcd86d"><g class="fills" id="fills-b1712094-cced-80d3-8007-9be900bcd86d"><path d="M369.3387451171875,87.60110473632812C336.94537353515625,87.67648315429688,307.3541259765625,105.74130249023438,292.82513427734375,134.31106567382812C310.549072265625,112.542724609375,337.3056640625,99.860595703125,365.60369873046875,99.8154296875C406.375244140625,99.89590454101562,442.39886474609375,126.02291870117188,454.6478271484375,164.3970947265625C450.51947021484375,120.92803955078125,413.5830078125,87.677490234375,369.3387451171875,87.60110473632812Z" style="stroke-width: 0.668315; fill: rgb(234, 91, 12); fill-opacity: 1;"/></g></g><g id="shape-b1712094-cced-80d3-8007-9be900bcd86e"><g class="fills" id="fills-b1712094-cced-80d3-8007-9be900bcd86e"><path d="M116.49993896484375,64.06353759765625C294.24981689453125,96.05645751953125,253.68865966796875,203.29608154296875,384.09259033203125,207.5689697265625C439.47845458984375,207.5689697265625,460.53399658203125,183.23138427734375,466.4683837890625,172.37619018554688C467.6507568359375,170.2135009765625,435.33673095703125,194.11309814453125,385.24810791015625,193.41885375976562C380.48834228515625,193.41885375976562,375.93603515625,193.21633911132812,371.5726318359375,192.8272705078125C264.2322998046875,183.2569580078125,271.19207763671875,60.81427001953125,116.49993896484375,64.06353759765625L116.49993896484375,64.06353759765625L116.49993896484375,64.06353759765625" style="stroke-width: 0.942867; fill: rgb(246, 245, 244); fill-opacity: 1;"/></g></g></g></g></g></g></g></g></g></g></g></g></g></g></g></g></svg>