<svg width="583" xmlns="http://www.w3.org/2000/svg" height="440" id="screenshot-b1712094-cced-80d3-8007-9be8cc21d663" viewBox="0 0 583 440" xmlns:xlink="http://www.w3.org/1999/xlink" fill="none" version="1.1"><g id="shape-b1712094-cced-80d3-8007-9be8cc21d663"><defs><clipPath id="frame-clip-b1712094-cced-80d3-8007-9be8cc21d663-render-13" class="frame-clip frame-clip-def"><rect rx="0" ry="0" x="0" y="0" width="583.0000000000001" height="440" transform="matrix(1.000000, 0.000000, 0.000000, 1.000000, 0.000000, 0.000000)"/></clipPath></defs><g class="frame-container-wrapper"><g class="frame-container-blur"><g class="frame-container-shadows"><g clip-path="url(#frame-clip-b1712094-cced-80d3-8007-9be8cc21d663-render-13)" fill="none"><g class="fills" id="fills-b1712094-cced-80d3-8007-9be8cc21d663"><rect width="583.0000000000001" height="440" class="frame-background" x="0" transform="matrix(1.000000, 0.000000, 0.000000, 1.000000, 0.000000, 0.000000)" style="fill: rgb(246, 245, 244); fill-opacity: 1;" ry="0" rx="0" y="0"/></g><g class="frame-children"><g id="shape-b1712094-cced-80d3-8007-9bf00c754249"><g class="frame-container-wrapper"><g class="frame-container-blur"><g class="frame-container-shadows"><g fill="none"><g class="fills" id="fills-b1712094-cced-80d3-8007-9bf00c754249"><rect rx="0" ry="0" x="116.50000000000006" y="64" width="350" height="312" transform="matrix(1.000000, 0.000000, 0.000000, 1.000000, 0.000000, 0.000000)" class="frame-background"/></g><g class="frame-children"><g id="shape-b1712094-cced-80d3-8007-9be8cc21d664"><g class="frame-container-wrapper"><g class="frame-container-blur"><g class="frame-container-shadows"><g fill="none"><g class="fills" id="fills-b1712094-cced-80d3-8007-9be8cc21d664"><rect rx="0" ry="0" x="117.00000000000006" y="289" width="337.71771240234375" height="83" transform="matrix(1.000000, 0.000000, 0.000000, 1.000000, 0.000000, 0.000000)" class="frame-background"/></g><g class="frame-children"><g id="shape-4a085bf9-ae80-80da-8007-ae905e359ff1"><g class="fills" id="fills-4a085bf9-ae80-80da-8007-ae905e359ff1"><path d="M136.22250366210938,368.9840087890625C133.58261108398438,368.9840087890625,131.11093139648438,368.7919921875,128.80697631835938,368.40802001953125C126.50326538085938,368.072021484375,124.51132202148438,367.5679931640625,122.83139038085938,366.89599609375C121.43978881835938,366.416015625,120.45565795898438,365.72003173828125,119.87973022460938,364.8079833984375C119.30380249023438,363.89599609375,119.03988647460938,362.93603515625,119.08773803710938,361.927978515625C119.13583374023438,360.91998291015625,119.39974975585938,360.00799560546875,119.87973022460938,359.1920166015625C120.40780639648438,358.3759765625,121.10360717773438,357.7760009765625,121.96762084960938,357.3919677734375C122.83139038085938,357.0560302734375,123.79135131835938,357.08001708984375,124.84750366210938,357.4639892578125C126.95932006835938,358.3280029296875,128.87899780273438,358.8800048828125,130.60678100585938,359.1199951171875C132.33480834960938,359.40802001953125,133.79867553710938,359.552001953125,134.99862670898438,359.552001953125C137.92636108398438,359.552001953125,140.11019897460938,358.927978515625,141.55014038085938,357.67999267578125C143.03793334960938,356.47998046875,143.78182983398438,354.583984375,143.78182983398438,351.99200439453125L143.78182983398438,347.45599365234375L144.35775756835938,347.45599365234375C143.63778686523438,349.47198486328125,142.17391967773438,351.12799072265625,139.96615600585938,352.42401123046875C137.75839233398438,353.6719970703125,135.35848999023438,354.2960205078125,132.76669311523438,354.2960205078125C129.59896850585938,354.2960205078125,126.83920288085938,353.57598876953125,124.48739624023438,352.135986328125C122.13558959960938,350.64801025390625,120.28768920898438,348.583984375,118.94369506835938,345.9439697265625C117.64779663085938,343.30401611328125,116.99984741210938,340.2080078125,116.99984741210938,336.656005859375C116.99984741210938,333.968017578125,117.38412475585938,331.54400634765625,118.15194702148438,329.384033203125C118.91976928710938,327.2239990234375,119.97592163085938,325.3759765625,121.31967163085938,323.8399658203125C122.71151733398438,322.30401611328125,124.36752319335938,321.12799072265625,126.28720092773438,320.31201171875C128.25521850585938,319.447998046875,130.41488647460938,319.0159912109375,132.76669311523438,319.0159912109375C135.45443725585938,319.0159912109375,137.85433959960938,319.6400146484375,139.96615600585938,320.88800048828125C142.12582397460938,322.135986328125,143.56576538085938,323.76800537109375,144.28573608398438,325.78399658203125L143.56576538085938,328.7359619140625L143.56576538085938,325.5679931640625C143.56576538085938,323.5040283203125,144.11776733398438,321.9200439453125,145.22177124023438,320.8160400390625C146.37362670898438,319.7120361328125,147.95736694335938,319.1600341796875,149.97348022460938,319.1600341796875C151.98910522460938,319.1600341796875,153.52499389648438,319.7120361328125,154.58090209960938,320.8160400390625C155.68490600585938,321.9200439453125,156.23690795898438,323.5040283203125,156.23690795898438,325.5679931640625L156.23690795898438,350.47998046875C156.23690795898438,356.6240234375,154.50912475585938,361.23199462890625,151.05331420898438,364.30401611328125C147.59750366210938,367.42401123046875,142.65390014648438,368.9840087890625,136.22250366210938,368.9840087890625L136.22250366210938,368.9840087890625M136.72640991210938,344.864013671875C138.16635131835938,344.864013671875,139.39022827148438,344.552001953125,140.39804077148438,343.927978515625C141.40609741210938,343.2559814453125,142.19808959960938,342.32000732421875,142.77377319335938,341.1199951171875C143.34994506835938,339.87200927734375,143.63778686523438,338.384033203125,143.63778686523438,336.656005859375C143.63778686523438,334.06396484375,143.01400756835938,332.0479736328125,141.76596069335938,330.6080322265625C140.51815795898438,329.16796875,138.83822631835938,328.447998046875,136.72640991210938,328.447998046875C135.38265991210938,328.447998046875,134.18246459960938,328.78399658203125,133.12680053710938,329.45599365234375C132.07064819335938,330.08001708984375,131.25473022460938,331.0159912109375,130.67904663085938,332.2640380859375C130.15097045898438,333.4639892578125,129.88705444335938,334.927978515625,129.88705444335938,336.656005859375C129.88705444335938,339.24798583984375,130.51083374023438,341.2640380859375,131.75888061523438,342.7039794921875C133.00668334960938,344.14404296875,134.66244506835938,344.864013671875,136.72640991210938,344.864013671875L136.72640991210938,344.864013671875M170.05966186523438,368.84002685546875C168.04379272460938,368.84002685546875,166.48397827148438,368.28802490234375,165.38021850585938,367.18402099609375C164.27621459960938,366.08001708984375,163.72421264648438,364.4720458984375,163.72421264648438,362.3599853515625L163.72421264648438,325.5679931640625C163.72421264648438,323.5040283203125,164.25228881835938,321.9200439453125,165.30795288085938,320.8160400390625C166.41195678710938,319.7120361328125,167.97201538085938,319.1600341796875,169.98764038085938,319.1600341796875C172.05160522460938,319.1600341796875,173.61141967773438,319.7120361328125,174.66732788085938,320.8160400390625C175.77133178710938,321.9200439453125,176.32308959960938,323.5040283203125,176.32308959960938,325.5679931640625L176.32308959960938,329.7440185546875L175.53109741210938,326.21600341796875C176.20321655273438,324.0560302734375,177.59506225585938,322.3280029296875,179.70687866210938,321.031982421875C181.86679077148438,319.68798828125,184.31454467773438,319.0159912109375,187.05038452148438,319.0159912109375C190.12191772460938,319.0159912109375,192.80990600585938,319.760009765625,195.11361694335938,321.24798583984375C197.46542358398438,322.7359619140625,199.28939819335938,324.8480224609375,200.58529663085938,327.583984375C201.88119506835938,330.32000732421875,202.52914428710938,333.63201904296875,202.52914428710938,337.52001953125C202.52914428710938,341.31201171875,201.88119506835938,344.5999755859375,200.58529663085938,347.384033203125C199.28939819335938,350.16796875,197.46542358398438,352.30401611328125,195.11361694335938,353.7919921875C192.80990600585938,355.280029296875,190.12191772460938,356.02398681640625,187.05038452148438,356.02398681640625C184.41049194335938,356.02398681640625,182.03475952148438,355.4000244140625,179.92294311523438,354.1519775390625C177.81112670898438,352.90399169921875,176.39511108398438,351.27197265625,175.67514038085938,349.2559814453125L176.53915405273438,349.2559814453125L176.53915405273438,362.3599853515625C176.53915405273438,364.4720458984375,175.96322631835938,366.08001708984375,174.81137084960938,367.18402099609375C173.70736694335938,368.28802490234375,172.12338256835938,368.84002685546875,170.05966186523438,368.84002685546875L170.05966186523438,368.84002685546875M183.01864624023438,346.592041015625C184.31454467773438,346.592041015625,185.44247436523438,346.280029296875,186.40243530273438,345.656005859375C187.41024780273438,344.9840087890625,188.20223999023438,344,188.77816772460938,342.7039794921875C189.35409545898438,341.3599853515625,189.64193725585938,339.63201904296875,189.64193725585938,337.52001953125C189.64193725585938,334.30401611328125,189.01815795898438,332,187.77035522460938,330.6080322265625C186.52230834960938,329.16796875,184.93832397460938,328.447998046875,183.01864624023438,328.447998046875C181.72274780273438,328.447998046875,180.57089233398438,328.760009765625,179.56283569335938,329.384033203125C178.55502319335938,330.00799560546875,177.76303100585938,330.99200439453125,177.18710327148438,332.33599853515625C176.61117553710938,333.63201904296875,176.32308959960938,335.3599853515625,176.32308959960938,337.52001953125C176.32308959960938,340.68798828125,176.94711303710938,342.99200439453125,178.19515991210938,344.4320068359375C179.44296264648438,345.87200927734375,181.05087280273438,346.592041015625,183.01864624023438,346.592041015625L183.01864624023438,346.592041015625M214.69613647460938,355.8800048828125C212.68026733398438,355.8800048828125,211.12045288085938,355.3280029296875,210.01644897460938,354.2239990234375C208.91268920898438,353.1199951171875,208.36068725585938,351.51202392578125,208.36068725585938,349.4000244140625L208.36068725585938,325.5679931640625C208.36068725585938,323.5040283203125,208.88851928710938,321.9200439453125,209.94467163085938,320.8160400390625C211.04843139648438,319.7120361328125,212.60824584960938,319.1600341796875,214.62411499023438,319.1600341796875C216.63998413085938,319.1600341796875,218.17587280273438,319.7120361328125,219.23178100585938,320.8160400390625C220.28768920898438,321.9200439453125,220.81576538085938,323.5040283203125,220.81576538085938,325.5679931640625L220.81576538085938,328.9520263671875L220.02377319335938,326C221.17562866210938,323.7440185546875,222.80746459960938,322.0159912109375,224.91928100585938,320.8160400390625C227.07919311523438,319.615966796875,229.52694702148438,319.0159912109375,232.26278686523438,319.0159912109375C235.09457397460938,319.0159912109375,237.42221069335938,319.5679931640625,239.24618530273438,320.6719970703125C241.07015991210938,321.72802734375,242.43783569335938,323.40802001953125,243.34994506835938,325.7120361328125C244.26181030273438,327.968017578125,244.71762084960938,330.823974609375,244.71762084960938,334.280029296875L244.71762084960938,349.4000244140625C244.71762084960938,351.51202392578125,244.16586303710938,353.1199951171875,243.06185913085938,354.2239990234375C241.95785522460938,355.3280029296875,240.37411499023438,355.8800048828125,238.31039428710938,355.8800048828125C236.24642944335938,355.8800048828125,234.66244506835938,355.3280029296875,233.55868530273438,354.2239990234375C232.45468139648438,353.1199951171875,231.90267944335938,351.51202392578125,231.90267944335938,349.4000244140625L231.90267944335938,334.78399658203125C231.90267944335938,332.6240234375,231.51889038085938,331.0880126953125,230.75082397460938,330.176025390625C230.03085327148438,329.2640380859375,228.95101928710938,328.8079833984375,227.51107788085938,328.8079833984375C225.59115600585938,328.8079833984375,224.05551147460938,329.4320068359375,222.90341186523438,330.67999267578125C221.75155639648438,331.8800048828125,221.17562866210938,333.511962890625,221.17562866210938,335.57598876953125L221.17562866210938,349.4000244140625C221.17562866210938,353.719970703125,219.01596069335938,355.8800048828125,214.69613647460938,355.8800048828125L214.69613647460938,355.8800048828125" style="font-weight: 900; font-size: 72px; font-family: Nunito; dominant-baseline: ideographic; white-space: pre; fill: rgb(77, 70, 67); fill-opacity: 1;"/></g></g><g id="shape-b1712094-cced-80d3-8007-9be8cc21d667"><g class="frame-container-wrapper"><g class="frame-container-blur"><g class="frame-container-shadows"><g fill="none"><g class="fills" id="fills-b1712094-cced-80d3-8007-9be8cc21d667"><rect width="103" height="83" class="frame-background" x="248.7177124023438" transform="matrix(1.000000, 0.000000, 0.000000, 1.000000, 0.000000, 0.000000)" style="fill: rgb(234, 91, 12); fill-opacity: 1;" ry="16" rx="16" y="289"/></g><g class="frame-children"><g id="shape-4a085bf9-ae80-80da-8007-ae90d1ecb910"><g class="fills" id="fills-4a085bf9-ae80-80da-8007-ae90d1ecb910"><path d="M265.9742736816406,356.3544921875C263.8605041503906,356.3544921875,262.3229064941406,355.8763427734375,261.3619689941406,354.91998291015625C260.4491271972656,353.9158935546875,259.9925842285156,352.45745849609375,259.9925842285156,350.5447998046875C259.9925842285156,349.2059326171875,260.2809143066406,348.0106201171875,260.8575744628906,346.9586181640625C261.4823303222656,345.90667724609375,262.2750549316406,344.87860107421875,263.2357482910156,343.87451171875L275.8475646972656,330.7490234375C277.7213439941406,328.74072265625,279.0426330566406,327.019287109375,279.8111877441406,325.5848388671875C280.6280822753906,324.15032958984375,281.0365295410156,322.7158203125,281.0365295410156,321.2813720703125C281.0365295410156,319.46435546875,280.4359436035156,318.1015625,279.2347717285156,317.193115234375C278.0335998535156,316.28460693359375,276.3041076660156,315.830322265625,274.0458068847656,315.830322265625C272.8929748535156,315.830322265625,271.6676330566406,315.99774169921875,270.3705139160156,316.3323974609375C269.0733947753906,316.61932373046875,267.6798400878906,317.145263671875,266.1905822753906,317.910400390625C264.8932189941406,318.484130859375,263.7162170410156,318.6514892578125,262.6590881347656,318.41241455078125C261.6502990722656,318.17333984375,260.7853088378906,317.64739990234375,260.0648498535156,316.83447265625C259.3919982910156,316.0216064453125,258.9598693847656,315.08917236328125,258.7674865722656,314.0372314453125C258.6234436035156,312.98529052734375,258.7914123535156,311.957275390625,259.2721252441406,310.953125C259.7525939941406,309.90118408203125,260.6170959472656,309.04052734375,261.8663635253906,308.37109375C264.0765686035156,307.1756591796875,266.3585510253906,306.31494140625,268.7127990722656,305.7889404296875C271.1151428222656,305.2630615234375,273.5174865722656,305,275.9195861816406,305C279.8592834472656,305,283.1505432128906,305.5738525390625,285.7928771972656,306.721435546875C288.4835510253906,307.86895751953125,290.5255432128906,309.54254150390625,291.9186096191406,311.7420654296875C293.3119201660156,313.893798828125,294.0086975097656,316.571533203125,294.0086975097656,319.77520751953125C294.0086975097656,321.783447265625,293.6964416503906,323.74395751953125,293.0716857910156,325.65655517578125C292.4952697753906,327.5692138671875,291.5343322753906,329.48187255859375,290.1888732910156,331.39447021484375C288.8917541503906,333.30712890625,287.1383361816406,335.33929443359375,284.9281311035156,337.490966796875L273.2530822753906,348.9669189453125L273.2530822753906,345.66754150390625L291.0541076660156,345.66754150390625C292.8314514160156,345.66754150390625,294.1769104003906,346.121826171875,295.0895080566406,347.0303955078125C296.0506896972656,347.9388427734375,296.5311584472656,349.2537841796875,296.5311584472656,350.97515869140625C296.5311584472656,352.696533203125,296.0506896972656,354.035400390625,295.0895080566406,354.99176025390625C294.1769104003906,355.9002685546875,292.8314514160156,356.3544921875,291.0541076660156,356.3544921875ZM328.0968322753906,357C326.0790100097656,357,324.4933166503906,356.45013427734375,323.3402404785156,355.350341796875C322.2352600097656,354.25054931640625,321.6827697753906,352.62481689453125,321.6827697753906,350.47314453125L321.6827697753906,347.89105224609375L307.1971740722656,347.89105224609375C305.0831604003906,347.89105224609375,303.4254455566406,347.41290283203125,302.2245178222656,346.45654296875C301.0711975097656,345.500244140625,300.4947814941406,344.0418701171875,300.4947814941406,342.08135986328125C300.4947814941406,340.933837890625,300.7110900878906,339.83404541015625,301.1434631347656,338.78204345703125C301.5758361816406,337.6822509765625,302.3443908691406,336.36737060546875,303.4493713378906,334.8372802734375L321.0340881347656,309.303466796875C321.9950256347656,307.86895751953125,323.0760803222656,306.8170166015625,324.2772521972656,306.1475830078125C325.4781799316406,305.4781494140625,326.8956604003906,305.14349365234375,328.5292053222656,305.14349365234375C330.3548889160156,305.14349365234375,331.7962951660156,305.693359375,332.8531799316406,306.79315185546875C333.9103088378906,307.8450927734375,334.4386291503906,309.4708251953125,334.4386291503906,311.67041015625L334.4386291503906,337.92138671875L336.1683654785156,337.92138671875C337.9942932128906,337.92138671875,339.3634338378906,338.3516845703125,340.2760314941406,339.21240234375C341.2369689941406,340.0731201171875,341.7174377441406,341.29241943359375,341.7174377441406,342.870361328125C341.7174377441406,344.49609375,341.2369689941406,345.73931884765625,340.2760314941406,346.5999755859375C339.3634338378906,347.460693359375,337.9942932128906,347.89105224609375,336.1683654785156,347.89105224609375L334.4386291503906,347.89105224609375L334.4386291503906,350.47314453125C334.4386291503906,352.5770263671875,333.8863830566406,354.2027587890625,332.7814025878906,355.350341796875C331.7242736816406,356.45013427734375,330.1625061035156,357,328.0968322753906,357ZM321.6827697753906,337.92138671875L321.6827697753906,320.9945068359375L323.7005920410156,320.9945068359375L310.1517639160156,341.00555419921875L310.1517639160156,337.92138671875Z" style="font-weight: 900; font-size: 72px; font-family: Nunito; dominant-baseline: ideographic; white-space: pre; fill: rgb(246, 245, 244);"/></g></g></g></g></g></g></g></g><g id="shape-4a085bf9-ae80-80da-8007-ae90bd27174b"><g class="fills" id="fills-4a085bf9-ae80-80da-8007-ae90bd27174b"><path d="M362.7935791015625,356.14141845703125C360.6276550292969,356.14141845703125,358.8946533203125,355.495849609375,357.594970703125,354.204833984375C356.34332275390625,352.913818359375,355.7177429199219,351.21630859375,355.7177429199219,349.1124267578125C355.7177429199219,347.05633544921875,356.34332275390625,345.40667724609375,357.594970703125,344.1634521484375C358.8946533203125,342.8724365234375,360.6276550292969,342.2269287109375,362.7935791015625,342.2269287109375C365.05621337890625,342.2269287109375,366.78900146484375,342.8724365234375,367.992431640625,344.1634521484375C369.24383544921875,345.40667724609375,369.86968994140625,347.05633544921875,369.86968994140625,349.1124267578125C369.86968994140625,351.21630859375,369.24383544921875,352.913818359375,367.992431640625,354.204833984375C366.78900146484375,355.495849609375,365.05621337890625,356.14141845703125,362.7935791015625,356.14141845703125ZM389.300537109375,356.5C386.26806640625,356.5,383.57232666015625,355.75885009765625,381.21368408203125,354.27655029296875C378.903076171875,352.7943115234375,377.0740661621094,350.66644287109375,375.7259521484375,347.89306640625C374.42626953125,345.1197509765625,373.7764587402344,341.8443603515625,373.7764587402344,338.06689453125C373.7764587402344,334.19384765625,374.42626953125,330.89453125,375.7259521484375,328.1689453125C377.0740661621094,325.44342041015625,378.903076171875,323.33953857421875,381.21368408203125,321.85723876953125C383.57232666015625,320.3748779296875,386.26806640625,319.6337890625,389.300537109375,319.6337890625C391.94805908203125,319.6337890625,394.3309020996094,320.25537109375,396.4488525390625,321.4986572265625C398.5667724609375,322.7418212890625,399.98687744140625,324.3436279296875,400.70867919921875,326.30413818359375L399.9143981933594,326.30413818359375L399.9143981933594,310.9552001953125C399.9143981933594,308.85125732421875,400.46826171875,307.24945068359375,401.5751953125,306.149658203125C402.6824035644531,305.04986572265625,404.2707214355469,304.5,406.3406677246094,304.5C408.36260986328125,304.5,409.92669677734375,305.04986572265625,411.0339050292969,306.149658203125C412.1893310546875,307.24945068359375,412.7669372558594,308.85125732421875,412.7669372558594,310.9552001953125L412.7669372558594,349.9013671875C412.7669372558594,352.0052490234375,412.21331787109375,353.60711669921875,411.10638427734375,354.7069091796875C410.04718017578125,355.80670166015625,408.48284912109375,356.35650634765625,406.41290283203125,356.35650634765625C404.3912048339844,356.35650634765625,402.8268737792969,355.80670166015625,401.71966552734375,354.7069091796875C400.6124572753906,353.60711669921875,400.0588684082031,352.0052490234375,400.0588684082031,349.9013671875L400.0588684082031,345.8131103515625L400.8531494140625,349.32757568359375C400.1793212890625,351.479248046875,398.75921630859375,353.224609375,396.5932922363281,354.5634765625C394.4751281738281,355.8544921875,392.0442810058594,356.5,389.300537109375,356.5ZM393.4161682128906,347.1041259765625C394.7158203125,347.1041259765625,395.8710021972656,346.7933349609375,396.8819580078125,346.17169189453125C397.8929443359375,345.50225830078125,398.6629943847656,344.52203369140625,399.1925964355469,343.23101806640625C399.77020263671875,341.8922119140625,400.0588684082031,340.17083740234375,400.0588684082031,338.06689453125C400.0588684082031,334.86328125,399.43304443359375,332.5679931640625,398.181640625,331.181396484375C396.9302062988281,329.74688720703125,395.3416442871094,329.0296630859375,393.4161682128906,329.0296630859375C392.11651611328125,329.0296630859375,390.9613037109375,329.3404541015625,389.9503479003906,329.9620361328125C388.9393615722656,330.58367919921875,388.14508056640625,331.56396484375,387.5677490234375,332.90277099609375C386.9898986816406,334.19384765625,386.70123291015625,335.9151611328125,386.70123291015625,338.06689453125C386.70123291015625,341.2227783203125,387.3268127441406,343.5179443359375,388.5784606933594,344.952392578125C389.83013916015625,346.38690185546875,391.44268798828125,347.1041259765625,393.4161682128906,347.1041259765625ZM439.5546875,356.5C435.2223815917969,356.5,431.4678955078125,355.75885009765625,428.2907409667969,354.27655029296875C425.162109375,352.7464599609375,422.7552490234375,350.5947265625,421.0704345703125,347.82135009765625C419.3856506347656,345.048095703125,418.5433654785156,341.77264404296875,418.5433654785156,337.99517822265625C418.5433654785156,334.36114501953125,419.337646484375,331.181396484375,420.9262390136719,328.4559326171875C422.56280517578125,325.6824951171875,424.7769470214844,323.53082275390625,427.5689392089844,322.00067138671875C430.408935546875,320.4227294921875,433.6340637207031,319.6337890625,437.24432373046875,319.6337890625C439.8916015625,319.6337890625,442.2984619140625,320.06414794921875,444.4646301269531,320.9248046875C446.63079833984375,321.73773193359375,448.48406982421875,322.95703125,450.0243835449219,324.582763671875C451.56494140625,326.16070556640625,452.72015380859375,328.0733642578125,453.4902038574219,330.3206787109375C454.3087158203125,332.5679931640625,454.7176208496094,335.078369140625,454.7176208496094,337.85174560546875C454.7176208496094,338.80804443359375,454.45294189453125,339.5252685546875,453.92333984375,340.00347900390625C453.39398193359375,340.433837890625,452.55169677734375,340.64898681640625,451.396240234375,340.64898681640625L429.3017272949219,340.64898681640625L429.3017272949219,334.6241455078125L445.3311462402344,334.6241455078125L444.17596435546875,335.5565185546875C444.17596435546875,333.787353515625,443.9350280761719,332.3529052734375,443.45367431640625,331.25311279296875C442.9722900390625,330.1533203125,442.25048828125,329.3165283203125,441.2877197265625,328.74273681640625C440.37298583984375,328.1689453125,439.2178039550781,327.882080078125,437.8219299316406,327.882080078125C436.32958984375,327.882080078125,435.0299377441406,328.24066162109375,433.9227294921875,328.95794677734375C432.864013671875,329.6273193359375,432.04571533203125,330.6314697265625,431.4678955078125,331.9703369140625C430.8902893066406,333.3092041015625,430.60162353515625,334.9827880859375,430.60162353515625,336.9910888671875L430.60162353515625,337.63653564453125C430.60162353515625,341.031494140625,431.347412109375,343.4700927734375,432.83978271484375,344.952392578125C434.3800964355469,346.38690185546875,436.73895263671875,347.1041259765625,439.9158630371094,347.1041259765625C440.9748229980469,347.1041259765625,442.1782531738281,346.984619140625,443.526123046875,346.74554443359375C444.9219970703125,346.4586181640625,446.24591064453125,346.07611083984375,447.497314453125,345.59796142578125C448.74871826171875,345.1197509765625,449.8319091796875,345.048095703125,450.7464294433594,345.38275146484375C451.66094970703125,345.669677734375,452.3590087890625,346.1956787109375,452.84039306640625,346.960693359375C453.3699951171875,347.67791748046875,453.65887451171875,348.51470947265625,453.7069091796875,349.47100830078125C453.7548828125,350.3795166015625,453.5384521484375,351.2880859375,453.05706787109375,352.196533203125C452.57568359375,353.0572509765625,451.7814025878906,353.7266845703125,450.6741943359375,354.204833984375C448.9896545410156,354.9698486328125,447.18438720703125,355.54364013671875,445.2589111328125,355.92620849609375C443.38165283203125,356.3087158203125,441.4801940917969,356.5,439.5546875,356.5Z" style="font-weight: 900; font-size: 72px; font-family: Nunito; dominant-baseline: ideographic; white-space: pre; fill: rgb(77, 70, 67); fill-opacity: 1;"/></g></g></g></g></g></g></g></g><g id="shape-b1712094-cced-80d3-8007-9be8cc21d665"><g class="frame-container-wrapper"><g class="frame-container-blur"><g class="frame-container-shadows"><g fill="none"><g class="fills" id="fills-b1712094-cced-80d3-8007-9be8cc21d665"><rect rx="0" ry="0" x="116.50000000000006" y="64" width="350" height="192.9999999999999" transform="matrix(1.000000, 0.000000, 0.000000, 1.000000, 0.000000, 0.000000)" class="frame-background"/></g><g class="frame-children"><g id="shape-b1712094-cced-80d3-8007-9be8cc21d66a" rx="0" ry="0" style="fill: rgb(0, 0, 0);"><g id="shape-b1712094-cced-80d3-8007-9be8cc21d66b"><g class="fills" id="fills-b1712094-cced-80d3-8007-9be8cc21d66b"><path d="M283.8970947265625,178.20184326171875C287.0330810546875,222.51220703125,324.3255920410156,256.9048767089844,369.3387451171875,256.9998779296875C402.6222229003906,256.9300231933594,432.8642883300781,237.87930297851562,446.9384460449219,208.11660766601562C429.2238464355469,230.52328491210938,402.0380554199219,243.63018798828125,373.2385559082031,243.64889526367188C332.118408203125,243.57901000976562,295.86529541015625,217.02175903320312,283.8970947265625,178.20184326171875Z" style="stroke-width: 0.668315; fill: rgb(234, 91, 12); fill-opacity: 1;"/></g></g><g id="shape-b1712094-cced-80d3-8007-9be8cc21d66c"><g class="fills" id="fills-b1712094-cced-80d3-8007-9be8cc21d66c"><path d="M369.3387451171875,87.60110473632812C336.9453430175781,87.67648315429688,307.3541259765625,105.74130249023438,292.8251037597656,134.31106567382812C310.5491027832031,112.542724609375,337.3056640625,99.860595703125,365.60369873046875,99.8154296875C406.375244140625,99.89590454101562,442.3988342285156,126.02291870117188,454.6478271484375,164.3970947265625C450.51947021484375,120.92803955078125,413.5830383300781,87.677490234375,369.3387451171875,87.60110473632812Z" style="stroke-width: 0.668315; fill: rgb(234, 91, 12); fill-opacity: 1;"/></g></g><g id="shape-b1712094-cced-80d3-8007-9be8cc21d66d"><g class="fills" id="fills-b1712094-cced-80d3-8007-9be8cc21d66d"><path d="M116.49993896484375,64.06353759765625C294.2498474121094,96.05645751953125,253.68865966796875,203.29608154296875,384.09259033203125,207.5689697265625C439.47845458984375,207.5689697265625,460.53399658203125,183.23138427734375,466.4683837890625,172.37619018554688C467.6507263183594,170.2135009765625,435.3367004394531,194.11309814453125,385.24810791015625,193.41885375976562C380.48834228515625,193.41885375976562,375.93603515625,193.21633911132812,371.5726318359375,192.8272705078125C264.2322998046875,183.2569580078125,271.19207763671875,60.81427001953125,116.49993896484375,64.06353759765625L116.49993896484375,64.06353759765625L116.49993896484375,64.06353759765625" style="stroke-width: 0.942867; fill: rgb(77, 70, 67); fill-opacity: 1;"/></g></g></g></g></g></g></g></g></g></g></g></g></g></g></g></g></g></g></g></g></g></svg>